<?xml version="1.0" encoding="utf-8" standalone="no"?>
<!DOCTYPE svg PUBLIC "-//W3C//DTD SVG 1.1//EN"
  "http://www.w3.org/Graphics/SVG/1.1/DTD/svg11.dtd">
<!-- Created with matplotlib (https://matplotlib.org/) -->
<svg height="347.459746pt" version="1.1" viewBox="0 0 613.63875 347.459746" width="613.63875pt" xmlns="http://www.w3.org/2000/svg" xmlns:xlink="http://www.w3.org/1999/xlink">
 <defs>
  <style type="text/css">
*{stroke-linecap:butt;stroke-linejoin:round;}
  </style>
 </defs>
 <g id="figure_1">
  <g id="patch_1">
   <path d="M 0 347.459746 
L 613.63875 347.459746 
L 613.63875 0 
L 0 0 
z
" style="fill:#ffffff;"/>
  </g>
  <g id="axes_1">
   <g id="patch_2">
    <path d="M 58.523438 288.71965 
L 484.332812 288.71965 
L 484.332812 22.318125 
L 58.523438 22.318125 
z
" style="fill:#ffffff;"/>
   </g>
   <g id="matplotlib.axis_1">
    <g id="xtick_1">
     <g id="line2d_1">
      <path clip-path="url(#p4eb5fd5571)" d="M 66.948097 288.71965 
L 66.948097 22.318125 
" style="fill:none;stroke:#b0b0b0;stroke-linecap:square;stroke-width:0.8;"/>
     </g>
     <g id="line2d_2">
      <defs>
       <path d="M 0 0 
L 0 3.5 
" id="m248fca79e0" style="stroke:#000000;stroke-width:0.8;"/>
      </defs>
      <g>
       <use style="stroke:#000000;stroke-width:0.8;" x="66.948097" xlink:href="#m248fca79e0" y="288.71965"/>
      </g>
     </g>
     <g id="text_1">
      <!-- 05-19 20 -->
      <defs>
       <path d="M 31.78125 66.40625 
Q 24.171875 66.40625 20.328125 58.90625 
Q 16.5 51.421875 16.5 36.375 
Q 16.5 21.390625 20.328125 13.890625 
Q 24.171875 6.390625 31.78125 6.390625 
Q 39.453125 6.390625 43.28125 13.890625 
Q 47.125 21.390625 47.125 36.375 
Q 47.125 51.421875 43.28125 58.90625 
Q 39.453125 66.40625 31.78125 66.40625 
z
M 31.78125 74.21875 
Q 44.046875 74.21875 50.515625 64.515625 
Q 56.984375 54.828125 56.984375 36.375 
Q 56.984375 17.96875 50.515625 8.265625 
Q 44.046875 -1.421875 31.78125 -1.421875 
Q 19.53125 -1.421875 13.0625 8.265625 
Q 6.59375 17.96875 6.59375 36.375 
Q 6.59375 54.828125 13.0625 64.515625 
Q 19.53125 74.21875 31.78125 74.21875 
z
" id="DejaVuSans-48"/>
       <path d="M 10.796875 72.90625 
L 49.515625 72.90625 
L 49.515625 64.59375 
L 19.828125 64.59375 
L 19.828125 46.734375 
Q 21.96875 47.46875 24.109375 47.828125 
Q 26.265625 48.1875 28.421875 48.1875 
Q 40.625 48.1875 47.75 41.5 
Q 54.890625 34.8125 54.890625 23.390625 
Q 54.890625 11.625 47.5625 5.09375 
Q 40.234375 -1.421875 26.90625 -1.421875 
Q 22.3125 -1.421875 17.546875 -0.640625 
Q 12.796875 0.140625 7.71875 1.703125 
L 7.71875 11.625 
Q 12.109375 9.234375 16.796875 8.0625 
Q 21.484375 6.890625 26.703125 6.890625 
Q 35.15625 6.890625 40.078125 11.328125 
Q 45.015625 15.765625 45.015625 23.390625 
Q 45.015625 31 40.078125 35.4375 
Q 35.15625 39.890625 26.703125 39.890625 
Q 22.75 39.890625 18.8125 39.015625 
Q 14.890625 38.140625 10.796875 36.28125 
z
" id="DejaVuSans-53"/>
       <path d="M 4.890625 31.390625 
L 31.203125 31.390625 
L 31.203125 23.390625 
L 4.890625 23.390625 
z
" id="DejaVuSans-45"/>
       <path d="M 12.40625 8.296875 
L 28.515625 8.296875 
L 28.515625 63.921875 
L 10.984375 60.40625 
L 10.984375 69.390625 
L 28.421875 72.90625 
L 38.28125 72.90625 
L 38.28125 8.296875 
L 54.390625 8.296875 
L 54.390625 0 
L 12.40625 0 
z
" id="DejaVuSans-49"/>
       <path d="M 10.984375 1.515625 
L 10.984375 10.5 
Q 14.703125 8.734375 18.5 7.8125 
Q 22.3125 6.890625 25.984375 6.890625 
Q 35.75 6.890625 40.890625 13.453125 
Q 46.046875 20.015625 46.78125 33.40625 
Q 43.953125 29.203125 39.59375 26.953125 
Q 35.25 24.703125 29.984375 24.703125 
Q 19.046875 24.703125 12.671875 31.3125 
Q 6.296875 37.9375 6.296875 49.421875 
Q 6.296875 60.640625 12.9375 67.421875 
Q 19.578125 74.21875 30.609375 74.21875 
Q 43.265625 74.21875 49.921875 64.515625 
Q 56.59375 54.828125 56.59375 36.375 
Q 56.59375 19.140625 48.40625 8.859375 
Q 40.234375 -1.421875 26.421875 -1.421875 
Q 22.703125 -1.421875 18.890625 -0.6875 
Q 15.09375 0.046875 10.984375 1.515625 
z
M 30.609375 32.421875 
Q 37.25 32.421875 41.125 36.953125 
Q 45.015625 41.5 45.015625 49.421875 
Q 45.015625 57.28125 41.125 61.84375 
Q 37.25 66.40625 30.609375 66.40625 
Q 23.96875 66.40625 20.09375 61.84375 
Q 16.21875 57.28125 16.21875 49.421875 
Q 16.21875 41.5 20.09375 36.953125 
Q 23.96875 32.421875 30.609375 32.421875 
z
" id="DejaVuSans-57"/>
       <path id="DejaVuSans-32"/>
       <path d="M 19.1875 8.296875 
L 53.609375 8.296875 
L 53.609375 0 
L 7.328125 0 
L 7.328125 8.296875 
Q 12.9375 14.109375 22.625 23.890625 
Q 32.328125 33.6875 34.8125 36.53125 
Q 39.546875 41.84375 41.421875 45.53125 
Q 43.3125 49.21875 43.3125 52.78125 
Q 43.3125 58.59375 39.234375 62.25 
Q 35.15625 65.921875 28.609375 65.921875 
Q 23.96875 65.921875 18.8125 64.3125 
Q 13.671875 62.703125 7.8125 59.421875 
L 7.8125 69.390625 
Q 13.765625 71.78125 18.9375 73 
Q 24.125 74.21875 28.421875 74.21875 
Q 39.75 74.21875 46.484375 68.546875 
Q 53.21875 62.890625 53.21875 53.421875 
Q 53.21875 48.921875 51.53125 44.890625 
Q 49.859375 40.875 45.40625 35.40625 
Q 44.1875 33.984375 37.640625 27.21875 
Q 31.109375 20.453125 19.1875 8.296875 
z
" id="DejaVuSans-50"/>
      </defs>
      <g transform="translate(26.970939 324.780559)rotate(-30)scale(0.1 -0.1)">
       <use xlink:href="#DejaVuSans-48"/>
       <use x="63.623047" xlink:href="#DejaVuSans-53"/>
       <use x="127.246094" xlink:href="#DejaVuSans-45"/>
       <use x="163.330078" xlink:href="#DejaVuSans-49"/>
       <use x="226.953125" xlink:href="#DejaVuSans-57"/>
       <use x="290.576172" xlink:href="#DejaVuSans-32"/>
       <use x="322.363281" xlink:href="#DejaVuSans-50"/>
       <use x="385.986328" xlink:href="#DejaVuSans-48"/>
      </g>
     </g>
    </g>
    <g id="xtick_2">
     <g id="line2d_3">
      <path clip-path="url(#p4eb5fd5571)" d="M 104.856694 288.71965 
L 104.856694 22.318125 
" style="fill:none;stroke:#b0b0b0;stroke-linecap:square;stroke-width:0.8;"/>
     </g>
     <g id="line2d_4">
      <g>
       <use style="stroke:#000000;stroke-width:0.8;" x="104.856694" xlink:href="#m248fca79e0" y="288.71965"/>
      </g>
     </g>
     <g id="text_2">
      <!-- 05-19 21 -->
      <g transform="translate(64.879537 324.780559)rotate(-30)scale(0.1 -0.1)">
       <use xlink:href="#DejaVuSans-48"/>
       <use x="63.623047" xlink:href="#DejaVuSans-53"/>
       <use x="127.246094" xlink:href="#DejaVuSans-45"/>
       <use x="163.330078" xlink:href="#DejaVuSans-49"/>
       <use x="226.953125" xlink:href="#DejaVuSans-57"/>
       <use x="290.576172" xlink:href="#DejaVuSans-32"/>
       <use x="322.363281" xlink:href="#DejaVuSans-50"/>
       <use x="385.986328" xlink:href="#DejaVuSans-49"/>
      </g>
     </g>
    </g>
    <g id="xtick_3">
     <g id="line2d_5">
      <path clip-path="url(#p4eb5fd5571)" d="M 142.765292 288.71965 
L 142.765292 22.318125 
" style="fill:none;stroke:#b0b0b0;stroke-linecap:square;stroke-width:0.8;"/>
     </g>
     <g id="line2d_6">
      <g>
       <use style="stroke:#000000;stroke-width:0.8;" x="142.765292" xlink:href="#m248fca79e0" y="288.71965"/>
      </g>
     </g>
     <g id="text_3">
      <!-- 05-19 22 -->
      <g transform="translate(102.788134 324.780559)rotate(-30)scale(0.1 -0.1)">
       <use xlink:href="#DejaVuSans-48"/>
       <use x="63.623047" xlink:href="#DejaVuSans-53"/>
       <use x="127.246094" xlink:href="#DejaVuSans-45"/>
       <use x="163.330078" xlink:href="#DejaVuSans-49"/>
       <use x="226.953125" xlink:href="#DejaVuSans-57"/>
       <use x="290.576172" xlink:href="#DejaVuSans-32"/>
       <use x="322.363281" xlink:href="#DejaVuSans-50"/>
       <use x="385.986328" xlink:href="#DejaVuSans-50"/>
      </g>
     </g>
    </g>
    <g id="xtick_4">
     <g id="line2d_7">
      <path clip-path="url(#p4eb5fd5571)" d="M 180.67389 288.71965 
L 180.67389 22.318125 
" style="fill:none;stroke:#b0b0b0;stroke-linecap:square;stroke-width:0.8;"/>
     </g>
     <g id="line2d_8">
      <g>
       <use style="stroke:#000000;stroke-width:0.8;" x="180.67389" xlink:href="#m248fca79e0" y="288.71965"/>
      </g>
     </g>
     <g id="text_4">
      <!-- 05-19 23 -->
      <defs>
       <path d="M 40.578125 39.3125 
Q 47.65625 37.796875 51.625 33 
Q 55.609375 28.21875 55.609375 21.1875 
Q 55.609375 10.40625 48.1875 4.484375 
Q 40.765625 -1.421875 27.09375 -1.421875 
Q 22.515625 -1.421875 17.65625 -0.515625 
Q 12.796875 0.390625 7.625 2.203125 
L 7.625 11.71875 
Q 11.71875 9.328125 16.59375 8.109375 
Q 21.484375 6.890625 26.8125 6.890625 
Q 36.078125 6.890625 40.9375 10.546875 
Q 45.796875 14.203125 45.796875 21.1875 
Q 45.796875 27.640625 41.28125 31.265625 
Q 36.765625 34.90625 28.71875 34.90625 
L 20.21875 34.90625 
L 20.21875 43.015625 
L 29.109375 43.015625 
Q 36.375 43.015625 40.234375 45.921875 
Q 44.09375 48.828125 44.09375 54.296875 
Q 44.09375 59.90625 40.109375 62.90625 
Q 36.140625 65.921875 28.71875 65.921875 
Q 24.65625 65.921875 20.015625 65.03125 
Q 15.375 64.15625 9.8125 62.3125 
L 9.8125 71.09375 
Q 15.4375 72.65625 20.34375 73.4375 
Q 25.25 74.21875 29.59375 74.21875 
Q 40.828125 74.21875 47.359375 69.109375 
Q 53.90625 64.015625 53.90625 55.328125 
Q 53.90625 49.265625 50.4375 45.09375 
Q 46.96875 40.921875 40.578125 39.3125 
z
" id="DejaVuSans-51"/>
      </defs>
      <g transform="translate(140.696732 324.780559)rotate(-30)scale(0.1 -0.1)">
       <use xlink:href="#DejaVuSans-48"/>
       <use x="63.623047" xlink:href="#DejaVuSans-53"/>
       <use x="127.246094" xlink:href="#DejaVuSans-45"/>
       <use x="163.330078" xlink:href="#DejaVuSans-49"/>
       <use x="226.953125" xlink:href="#DejaVuSans-57"/>
       <use x="290.576172" xlink:href="#DejaVuSans-32"/>
       <use x="322.363281" xlink:href="#DejaVuSans-50"/>
       <use x="385.986328" xlink:href="#DejaVuSans-51"/>
      </g>
     </g>
    </g>
    <g id="xtick_5">
     <g id="line2d_9">
      <path clip-path="url(#p4eb5fd5571)" d="M 218.582487 288.71965 
L 218.582487 22.318125 
" style="fill:none;stroke:#b0b0b0;stroke-linecap:square;stroke-width:0.8;"/>
     </g>
     <g id="line2d_10">
      <g>
       <use style="stroke:#000000;stroke-width:0.8;" x="218.582487" xlink:href="#m248fca79e0" y="288.71965"/>
      </g>
     </g>
     <g id="text_5">
      <!-- 05-20 00 -->
      <g transform="translate(178.605329 324.780559)rotate(-30)scale(0.1 -0.1)">
       <use xlink:href="#DejaVuSans-48"/>
       <use x="63.623047" xlink:href="#DejaVuSans-53"/>
       <use x="127.246094" xlink:href="#DejaVuSans-45"/>
       <use x="163.330078" xlink:href="#DejaVuSans-50"/>
       <use x="226.953125" xlink:href="#DejaVuSans-48"/>
       <use x="290.576172" xlink:href="#DejaVuSans-32"/>
       <use x="322.363281" xlink:href="#DejaVuSans-48"/>
       <use x="385.986328" xlink:href="#DejaVuSans-48"/>
      </g>
     </g>
    </g>
    <g id="xtick_6">
     <g id="line2d_11">
      <path clip-path="url(#p4eb5fd5571)" d="M 256.491085 288.71965 
L 256.491085 22.318125 
" style="fill:none;stroke:#b0b0b0;stroke-linecap:square;stroke-width:0.8;"/>
     </g>
     <g id="line2d_12">
      <g>
       <use style="stroke:#000000;stroke-width:0.8;" x="256.491085" xlink:href="#m248fca79e0" y="288.71965"/>
      </g>
     </g>
     <g id="text_6">
      <!-- 05-20 01 -->
      <g transform="translate(216.513927 324.780559)rotate(-30)scale(0.1 -0.1)">
       <use xlink:href="#DejaVuSans-48"/>
       <use x="63.623047" xlink:href="#DejaVuSans-53"/>
       <use x="127.246094" xlink:href="#DejaVuSans-45"/>
       <use x="163.330078" xlink:href="#DejaVuSans-50"/>
       <use x="226.953125" xlink:href="#DejaVuSans-48"/>
       <use x="290.576172" xlink:href="#DejaVuSans-32"/>
       <use x="322.363281" xlink:href="#DejaVuSans-48"/>
       <use x="385.986328" xlink:href="#DejaVuSans-49"/>
      </g>
     </g>
    </g>
    <g id="xtick_7">
     <g id="line2d_13">
      <path clip-path="url(#p4eb5fd5571)" d="M 294.399682 288.71965 
L 294.399682 22.318125 
" style="fill:none;stroke:#b0b0b0;stroke-linecap:square;stroke-width:0.8;"/>
     </g>
     <g id="line2d_14">
      <g>
       <use style="stroke:#000000;stroke-width:0.8;" x="294.399682" xlink:href="#m248fca79e0" y="288.71965"/>
      </g>
     </g>
     <g id="text_7">
      <!-- 05-20 02 -->
      <g transform="translate(254.422524 324.780559)rotate(-30)scale(0.1 -0.1)">
       <use xlink:href="#DejaVuSans-48"/>
       <use x="63.623047" xlink:href="#DejaVuSans-53"/>
       <use x="127.246094" xlink:href="#DejaVuSans-45"/>
       <use x="163.330078" xlink:href="#DejaVuSans-50"/>
       <use x="226.953125" xlink:href="#DejaVuSans-48"/>
       <use x="290.576172" xlink:href="#DejaVuSans-32"/>
       <use x="322.363281" xlink:href="#DejaVuSans-48"/>
       <use x="385.986328" xlink:href="#DejaVuSans-50"/>
      </g>
     </g>
    </g>
    <g id="xtick_8">
     <g id="line2d_15">
      <path clip-path="url(#p4eb5fd5571)" d="M 332.30828 288.71965 
L 332.30828 22.318125 
" style="fill:none;stroke:#b0b0b0;stroke-linecap:square;stroke-width:0.8;"/>
     </g>
     <g id="line2d_16">
      <g>
       <use style="stroke:#000000;stroke-width:0.8;" x="332.30828" xlink:href="#m248fca79e0" y="288.71965"/>
      </g>
     </g>
     <g id="text_8">
      <!-- 05-20 03 -->
      <g transform="translate(292.331122 324.780559)rotate(-30)scale(0.1 -0.1)">
       <use xlink:href="#DejaVuSans-48"/>
       <use x="63.623047" xlink:href="#DejaVuSans-53"/>
       <use x="127.246094" xlink:href="#DejaVuSans-45"/>
       <use x="163.330078" xlink:href="#DejaVuSans-50"/>
       <use x="226.953125" xlink:href="#DejaVuSans-48"/>
       <use x="290.576172" xlink:href="#DejaVuSans-32"/>
       <use x="322.363281" xlink:href="#DejaVuSans-48"/>
       <use x="385.986328" xlink:href="#DejaVuSans-51"/>
      </g>
     </g>
    </g>
    <g id="xtick_9">
     <g id="line2d_17">
      <path clip-path="url(#p4eb5fd5571)" d="M 370.216877 288.71965 
L 370.216877 22.318125 
" style="fill:none;stroke:#b0b0b0;stroke-linecap:square;stroke-width:0.8;"/>
     </g>
     <g id="line2d_18">
      <g>
       <use style="stroke:#000000;stroke-width:0.8;" x="370.216877" xlink:href="#m248fca79e0" y="288.71965"/>
      </g>
     </g>
     <g id="text_9">
      <!-- 05-20 04 -->
      <defs>
       <path d="M 37.796875 64.3125 
L 12.890625 25.390625 
L 37.796875 25.390625 
z
M 35.203125 72.90625 
L 47.609375 72.90625 
L 47.609375 25.390625 
L 58.015625 25.390625 
L 58.015625 17.1875 
L 47.609375 17.1875 
L 47.609375 0 
L 37.796875 0 
L 37.796875 17.1875 
L 4.890625 17.1875 
L 4.890625 26.703125 
z
" id="DejaVuSans-52"/>
      </defs>
      <g transform="translate(330.239719 324.780559)rotate(-30)scale(0.1 -0.1)">
       <use xlink:href="#DejaVuSans-48"/>
       <use x="63.623047" xlink:href="#DejaVuSans-53"/>
       <use x="127.246094" xlink:href="#DejaVuSans-45"/>
       <use x="163.330078" xlink:href="#DejaVuSans-50"/>
       <use x="226.953125" xlink:href="#DejaVuSans-48"/>
       <use x="290.576172" xlink:href="#DejaVuSans-32"/>
       <use x="322.363281" xlink:href="#DejaVuSans-48"/>
       <use x="385.986328" xlink:href="#DejaVuSans-52"/>
      </g>
     </g>
    </g>
    <g id="xtick_10">
     <g id="line2d_19">
      <path clip-path="url(#p4eb5fd5571)" d="M 408.125475 288.71965 
L 408.125475 22.318125 
" style="fill:none;stroke:#b0b0b0;stroke-linecap:square;stroke-width:0.8;"/>
     </g>
     <g id="line2d_20">
      <g>
       <use style="stroke:#000000;stroke-width:0.8;" x="408.125475" xlink:href="#m248fca79e0" y="288.71965"/>
      </g>
     </g>
     <g id="text_10">
      <!-- 05-20 05 -->
      <g transform="translate(368.148317 324.780559)rotate(-30)scale(0.1 -0.1)">
       <use xlink:href="#DejaVuSans-48"/>
       <use x="63.623047" xlink:href="#DejaVuSans-53"/>
       <use x="127.246094" xlink:href="#DejaVuSans-45"/>
       <use x="163.330078" xlink:href="#DejaVuSans-50"/>
       <use x="226.953125" xlink:href="#DejaVuSans-48"/>
       <use x="290.576172" xlink:href="#DejaVuSans-32"/>
       <use x="322.363281" xlink:href="#DejaVuSans-48"/>
       <use x="385.986328" xlink:href="#DejaVuSans-53"/>
      </g>
     </g>
    </g>
    <g id="xtick_11">
     <g id="line2d_21">
      <path clip-path="url(#p4eb5fd5571)" d="M 446.034072 288.71965 
L 446.034072 22.318125 
" style="fill:none;stroke:#b0b0b0;stroke-linecap:square;stroke-width:0.8;"/>
     </g>
     <g id="line2d_22">
      <g>
       <use style="stroke:#000000;stroke-width:0.8;" x="446.034072" xlink:href="#m248fca79e0" y="288.71965"/>
      </g>
     </g>
     <g id="text_11">
      <!-- 05-20 06 -->
      <defs>
       <path d="M 33.015625 40.375 
Q 26.375 40.375 22.484375 35.828125 
Q 18.609375 31.296875 18.609375 23.390625 
Q 18.609375 15.53125 22.484375 10.953125 
Q 26.375 6.390625 33.015625 6.390625 
Q 39.65625 6.390625 43.53125 10.953125 
Q 47.40625 15.53125 47.40625 23.390625 
Q 47.40625 31.296875 43.53125 35.828125 
Q 39.65625 40.375 33.015625 40.375 
z
M 52.59375 71.296875 
L 52.59375 62.3125 
Q 48.875 64.0625 45.09375 64.984375 
Q 41.3125 65.921875 37.59375 65.921875 
Q 27.828125 65.921875 22.671875 59.328125 
Q 17.53125 52.734375 16.796875 39.40625 
Q 19.671875 43.65625 24.015625 45.921875 
Q 28.375 48.1875 33.59375 48.1875 
Q 44.578125 48.1875 50.953125 41.515625 
Q 57.328125 34.859375 57.328125 23.390625 
Q 57.328125 12.15625 50.6875 5.359375 
Q 44.046875 -1.421875 33.015625 -1.421875 
Q 20.359375 -1.421875 13.671875 8.265625 
Q 6.984375 17.96875 6.984375 36.375 
Q 6.984375 53.65625 15.1875 63.9375 
Q 23.390625 74.21875 37.203125 74.21875 
Q 40.921875 74.21875 44.703125 73.484375 
Q 48.484375 72.75 52.59375 71.296875 
z
" id="DejaVuSans-54"/>
      </defs>
      <g transform="translate(406.056915 324.780559)rotate(-30)scale(0.1 -0.1)">
       <use xlink:href="#DejaVuSans-48"/>
       <use x="63.623047" xlink:href="#DejaVuSans-53"/>
       <use x="127.246094" xlink:href="#DejaVuSans-45"/>
       <use x="163.330078" xlink:href="#DejaVuSans-50"/>
       <use x="226.953125" xlink:href="#DejaVuSans-48"/>
       <use x="290.576172" xlink:href="#DejaVuSans-32"/>
       <use x="322.363281" xlink:href="#DejaVuSans-48"/>
       <use x="385.986328" xlink:href="#DejaVuSans-54"/>
      </g>
     </g>
    </g>
    <g id="xtick_12">
     <g id="line2d_23">
      <path clip-path="url(#p4eb5fd5571)" d="M 483.94267 288.71965 
L 483.94267 22.318125 
" style="fill:none;stroke:#b0b0b0;stroke-linecap:square;stroke-width:0.8;"/>
     </g>
     <g id="line2d_24">
      <g>
       <use style="stroke:#000000;stroke-width:0.8;" x="483.94267" xlink:href="#m248fca79e0" y="288.71965"/>
      </g>
     </g>
     <g id="text_12">
      <!-- 05-20 07 -->
      <defs>
       <path d="M 8.203125 72.90625 
L 55.078125 72.90625 
L 55.078125 68.703125 
L 28.609375 0 
L 18.3125 0 
L 43.21875 64.59375 
L 8.203125 64.59375 
z
" id="DejaVuSans-55"/>
      </defs>
      <g transform="translate(443.965512 324.780559)rotate(-30)scale(0.1 -0.1)">
       <use xlink:href="#DejaVuSans-48"/>
       <use x="63.623047" xlink:href="#DejaVuSans-53"/>
       <use x="127.246094" xlink:href="#DejaVuSans-45"/>
       <use x="163.330078" xlink:href="#DejaVuSans-50"/>
       <use x="226.953125" xlink:href="#DejaVuSans-48"/>
       <use x="290.576172" xlink:href="#DejaVuSans-32"/>
       <use x="322.363281" xlink:href="#DejaVuSans-48"/>
       <use x="385.986328" xlink:href="#DejaVuSans-55"/>
      </g>
     </g>
    </g>
    <g id="text_13">
     <!-- time [MM-dd hh] -->
     <defs>
      <path d="M 18.3125 70.21875 
L 18.3125 54.6875 
L 36.8125 54.6875 
L 36.8125 47.703125 
L 18.3125 47.703125 
L 18.3125 18.015625 
Q 18.3125 11.328125 20.140625 9.421875 
Q 21.96875 7.515625 27.59375 7.515625 
L 36.8125 7.515625 
L 36.8125 0 
L 27.59375 0 
Q 17.1875 0 13.234375 3.875 
Q 9.28125 7.765625 9.28125 18.015625 
L 9.28125 47.703125 
L 2.6875 47.703125 
L 2.6875 54.6875 
L 9.28125 54.6875 
L 9.28125 70.21875 
z
" id="DejaVuSans-116"/>
      <path d="M 9.421875 54.6875 
L 18.40625 54.6875 
L 18.40625 0 
L 9.421875 0 
z
M 9.421875 75.984375 
L 18.40625 75.984375 
L 18.40625 64.59375 
L 9.421875 64.59375 
z
" id="DejaVuSans-105"/>
      <path d="M 52 44.1875 
Q 55.375 50.25 60.0625 53.125 
Q 64.75 56 71.09375 56 
Q 79.640625 56 84.28125 50.015625 
Q 88.921875 44.046875 88.921875 33.015625 
L 88.921875 0 
L 79.890625 0 
L 79.890625 32.71875 
Q 79.890625 40.578125 77.09375 44.375 
Q 74.3125 48.1875 68.609375 48.1875 
Q 61.625 48.1875 57.5625 43.546875 
Q 53.515625 38.921875 53.515625 30.90625 
L 53.515625 0 
L 44.484375 0 
L 44.484375 32.71875 
Q 44.484375 40.625 41.703125 44.40625 
Q 38.921875 48.1875 33.109375 48.1875 
Q 26.21875 48.1875 22.15625 43.53125 
Q 18.109375 38.875 18.109375 30.90625 
L 18.109375 0 
L 9.078125 0 
L 9.078125 54.6875 
L 18.109375 54.6875 
L 18.109375 46.1875 
Q 21.1875 51.21875 25.484375 53.609375 
Q 29.78125 56 35.6875 56 
Q 41.65625 56 45.828125 52.96875 
Q 50 49.953125 52 44.1875 
z
" id="DejaVuSans-109"/>
      <path d="M 56.203125 29.59375 
L 56.203125 25.203125 
L 14.890625 25.203125 
Q 15.484375 15.921875 20.484375 11.0625 
Q 25.484375 6.203125 34.421875 6.203125 
Q 39.59375 6.203125 44.453125 7.46875 
Q 49.3125 8.734375 54.109375 11.28125 
L 54.109375 2.78125 
Q 49.265625 0.734375 44.1875 -0.34375 
Q 39.109375 -1.421875 33.890625 -1.421875 
Q 20.796875 -1.421875 13.15625 6.1875 
Q 5.515625 13.8125 5.515625 26.8125 
Q 5.515625 40.234375 12.765625 48.109375 
Q 20.015625 56 32.328125 56 
Q 43.359375 56 49.78125 48.890625 
Q 56.203125 41.796875 56.203125 29.59375 
z
M 47.21875 32.234375 
Q 47.125 39.59375 43.09375 43.984375 
Q 39.0625 48.390625 32.421875 48.390625 
Q 24.90625 48.390625 20.390625 44.140625 
Q 15.875 39.890625 15.1875 32.171875 
z
" id="DejaVuSans-101"/>
      <path d="M 8.59375 75.984375 
L 29.296875 75.984375 
L 29.296875 69 
L 17.578125 69 
L 17.578125 -6.203125 
L 29.296875 -6.203125 
L 29.296875 -13.1875 
L 8.59375 -13.1875 
z
" id="DejaVuSans-91"/>
      <path d="M 9.8125 72.90625 
L 24.515625 72.90625 
L 43.109375 23.296875 
L 61.8125 72.90625 
L 76.515625 72.90625 
L 76.515625 0 
L 66.890625 0 
L 66.890625 64.015625 
L 48.09375 14.015625 
L 38.1875 14.015625 
L 19.390625 64.015625 
L 19.390625 0 
L 9.8125 0 
z
" id="DejaVuSans-77"/>
      <path d="M 45.40625 46.390625 
L 45.40625 75.984375 
L 54.390625 75.984375 
L 54.390625 0 
L 45.40625 0 
L 45.40625 8.203125 
Q 42.578125 3.328125 38.25 0.953125 
Q 33.9375 -1.421875 27.875 -1.421875 
Q 17.96875 -1.421875 11.734375 6.484375 
Q 5.515625 14.40625 5.515625 27.296875 
Q 5.515625 40.1875 11.734375 48.09375 
Q 17.96875 56 27.875 56 
Q 33.9375 56 38.25 53.625 
Q 42.578125 51.265625 45.40625 46.390625 
z
M 14.796875 27.296875 
Q 14.796875 17.390625 18.875 11.75 
Q 22.953125 6.109375 30.078125 6.109375 
Q 37.203125 6.109375 41.296875 11.75 
Q 45.40625 17.390625 45.40625 27.296875 
Q 45.40625 37.203125 41.296875 42.84375 
Q 37.203125 48.484375 30.078125 48.484375 
Q 22.953125 48.484375 18.875 42.84375 
Q 14.796875 37.203125 14.796875 27.296875 
z
" id="DejaVuSans-100"/>
      <path d="M 54.890625 33.015625 
L 54.890625 0 
L 45.90625 0 
L 45.90625 32.71875 
Q 45.90625 40.484375 42.875 44.328125 
Q 39.84375 48.1875 33.796875 48.1875 
Q 26.515625 48.1875 22.3125 43.546875 
Q 18.109375 38.921875 18.109375 30.90625 
L 18.109375 0 
L 9.078125 0 
L 9.078125 75.984375 
L 18.109375 75.984375 
L 18.109375 46.1875 
Q 21.34375 51.125 25.703125 53.5625 
Q 30.078125 56 35.796875 56 
Q 45.21875 56 50.046875 50.171875 
Q 54.890625 44.34375 54.890625 33.015625 
z
" id="DejaVuSans-104"/>
      <path d="M 30.421875 75.984375 
L 30.421875 -13.1875 
L 9.71875 -13.1875 
L 9.71875 -6.203125 
L 21.390625 -6.203125 
L 21.390625 69 
L 9.71875 69 
L 9.71875 75.984375 
z
" id="DejaVuSans-93"/>
     </defs>
     <g transform="translate(229.934375 338.180058)scale(0.1 -0.1)">
      <use xlink:href="#DejaVuSans-116"/>
      <use x="39.208984" xlink:href="#DejaVuSans-105"/>
      <use x="66.992188" xlink:href="#DejaVuSans-109"/>
      <use x="164.404297" xlink:href="#DejaVuSans-101"/>
      <use x="225.927734" xlink:href="#DejaVuSans-32"/>
      <use x="257.714844" xlink:href="#DejaVuSans-91"/>
      <use x="296.728516" xlink:href="#DejaVuSans-77"/>
      <use x="383.007812" xlink:href="#DejaVuSans-77"/>
      <use x="469.287109" xlink:href="#DejaVuSans-45"/>
      <use x="505.371094" xlink:href="#DejaVuSans-100"/>
      <use x="568.847656" xlink:href="#DejaVuSans-100"/>
      <use x="632.324219" xlink:href="#DejaVuSans-32"/>
      <use x="664.111328" xlink:href="#DejaVuSans-104"/>
      <use x="727.490234" xlink:href="#DejaVuSans-104"/>
      <use x="790.869141" xlink:href="#DejaVuSans-93"/>
     </g>
    </g>
   </g>
   <g id="matplotlib.axis_2">
    <g id="ytick_1">
     <g id="line2d_25">
      <path clip-path="url(#p4eb5fd5571)" d="M 58.523438 288.71965 
L 484.332812 288.71965 
" style="fill:none;stroke:#b0b0b0;stroke-linecap:square;stroke-width:0.8;"/>
     </g>
     <g id="line2d_26">
      <defs>
       <path d="M 0 0 
L -3.5 0 
" id="m6fa0001104" style="stroke:#000000;stroke-width:0.8;"/>
      </defs>
      <g>
       <use style="stroke:#000000;stroke-width:0.8;" x="58.523438" xlink:href="#m6fa0001104" y="288.71965"/>
      </g>
     </g>
     <g id="text_14">
      <!-- −10.0 -->
      <defs>
       <path d="M 10.59375 35.5 
L 73.1875 35.5 
L 73.1875 27.203125 
L 10.59375 27.203125 
z
" id="DejaVuSans-8722"/>
       <path d="M 10.6875 12.40625 
L 21 12.40625 
L 21 0 
L 10.6875 0 
z
" id="DejaVuSans-46"/>
      </defs>
      <g transform="translate(20.878125 292.518869)scale(0.1 -0.1)">
       <use xlink:href="#DejaVuSans-8722"/>
       <use x="83.789062" xlink:href="#DejaVuSans-49"/>
       <use x="147.412109" xlink:href="#DejaVuSans-48"/>
       <use x="211.035156" xlink:href="#DejaVuSans-46"/>
       <use x="242.822266" xlink:href="#DejaVuSans-48"/>
      </g>
     </g>
    </g>
    <g id="ytick_2">
     <g id="line2d_27">
      <path clip-path="url(#p4eb5fd5571)" d="M 58.523438 255.419459 
L 484.332812 255.419459 
" style="fill:none;stroke:#b0b0b0;stroke-linecap:square;stroke-width:0.8;"/>
     </g>
     <g id="line2d_28">
      <g>
       <use style="stroke:#000000;stroke-width:0.8;" x="58.523438" xlink:href="#m6fa0001104" y="255.419459"/>
      </g>
     </g>
     <g id="text_15">
      <!-- −7.5 -->
      <g transform="translate(27.240625 259.218678)scale(0.1 -0.1)">
       <use xlink:href="#DejaVuSans-8722"/>
       <use x="83.789062" xlink:href="#DejaVuSans-55"/>
       <use x="147.412109" xlink:href="#DejaVuSans-46"/>
       <use x="179.199219" xlink:href="#DejaVuSans-53"/>
      </g>
     </g>
    </g>
    <g id="ytick_3">
     <g id="line2d_29">
      <path clip-path="url(#p4eb5fd5571)" d="M 58.523438 222.119269 
L 484.332812 222.119269 
" style="fill:none;stroke:#b0b0b0;stroke-linecap:square;stroke-width:0.8;"/>
     </g>
     <g id="line2d_30">
      <g>
       <use style="stroke:#000000;stroke-width:0.8;" x="58.523438" xlink:href="#m6fa0001104" y="222.119269"/>
      </g>
     </g>
     <g id="text_16">
      <!-- −5.0 -->
      <g transform="translate(27.240625 225.918487)scale(0.1 -0.1)">
       <use xlink:href="#DejaVuSans-8722"/>
       <use x="83.789062" xlink:href="#DejaVuSans-53"/>
       <use x="147.412109" xlink:href="#DejaVuSans-46"/>
       <use x="179.199219" xlink:href="#DejaVuSans-48"/>
      </g>
     </g>
    </g>
    <g id="ytick_4">
     <g id="line2d_31">
      <path clip-path="url(#p4eb5fd5571)" d="M 58.523438 188.819078 
L 484.332812 188.819078 
" style="fill:none;stroke:#b0b0b0;stroke-linecap:square;stroke-width:0.8;"/>
     </g>
     <g id="line2d_32">
      <g>
       <use style="stroke:#000000;stroke-width:0.8;" x="58.523438" xlink:href="#m6fa0001104" y="188.819078"/>
      </g>
     </g>
     <g id="text_17">
      <!-- −2.5 -->
      <g transform="translate(27.240625 192.618297)scale(0.1 -0.1)">
       <use xlink:href="#DejaVuSans-8722"/>
       <use x="83.789062" xlink:href="#DejaVuSans-50"/>
       <use x="147.412109" xlink:href="#DejaVuSans-46"/>
       <use x="179.199219" xlink:href="#DejaVuSans-53"/>
      </g>
     </g>
    </g>
    <g id="ytick_5">
     <g id="line2d_33">
      <path clip-path="url(#p4eb5fd5571)" d="M 58.523438 155.518887 
L 484.332812 155.518887 
" style="fill:none;stroke:#b0b0b0;stroke-linecap:square;stroke-width:0.8;"/>
     </g>
     <g id="line2d_34">
      <g>
       <use style="stroke:#000000;stroke-width:0.8;" x="58.523438" xlink:href="#m6fa0001104" y="155.518887"/>
      </g>
     </g>
     <g id="text_18">
      <!-- 0.0 -->
      <g transform="translate(35.620313 159.318106)scale(0.1 -0.1)">
       <use xlink:href="#DejaVuSans-48"/>
       <use x="63.623047" xlink:href="#DejaVuSans-46"/>
       <use x="95.410156" xlink:href="#DejaVuSans-48"/>
      </g>
     </g>
    </g>
    <g id="ytick_6">
     <g id="line2d_35">
      <path clip-path="url(#p4eb5fd5571)" d="M 58.523438 122.218697 
L 484.332812 122.218697 
" style="fill:none;stroke:#b0b0b0;stroke-linecap:square;stroke-width:0.8;"/>
     </g>
     <g id="line2d_36">
      <g>
       <use style="stroke:#000000;stroke-width:0.8;" x="58.523438" xlink:href="#m6fa0001104" y="122.218697"/>
      </g>
     </g>
     <g id="text_19">
      <!-- 2.5 -->
      <g transform="translate(35.620313 126.017916)scale(0.1 -0.1)">
       <use xlink:href="#DejaVuSans-50"/>
       <use x="63.623047" xlink:href="#DejaVuSans-46"/>
       <use x="95.410156" xlink:href="#DejaVuSans-53"/>
      </g>
     </g>
    </g>
    <g id="ytick_7">
     <g id="line2d_37">
      <path clip-path="url(#p4eb5fd5571)" d="M 58.523438 88.918506 
L 484.332812 88.918506 
" style="fill:none;stroke:#b0b0b0;stroke-linecap:square;stroke-width:0.8;"/>
     </g>
     <g id="line2d_38">
      <g>
       <use style="stroke:#000000;stroke-width:0.8;" x="58.523438" xlink:href="#m6fa0001104" y="88.918506"/>
      </g>
     </g>
     <g id="text_20">
      <!-- 5.0 -->
      <g transform="translate(35.620313 92.717725)scale(0.1 -0.1)">
       <use xlink:href="#DejaVuSans-53"/>
       <use x="63.623047" xlink:href="#DejaVuSans-46"/>
       <use x="95.410156" xlink:href="#DejaVuSans-48"/>
      </g>
     </g>
    </g>
    <g id="ytick_8">
     <g id="line2d_39">
      <path clip-path="url(#p4eb5fd5571)" d="M 58.523438 55.618316 
L 484.332812 55.618316 
" style="fill:none;stroke:#b0b0b0;stroke-linecap:square;stroke-width:0.8;"/>
     </g>
     <g id="line2d_40">
      <g>
       <use style="stroke:#000000;stroke-width:0.8;" x="58.523438" xlink:href="#m6fa0001104" y="55.618316"/>
      </g>
     </g>
     <g id="text_21">
      <!-- 7.5 -->
      <g transform="translate(35.620313 59.417534)scale(0.1 -0.1)">
       <use xlink:href="#DejaVuSans-55"/>
       <use x="63.623047" xlink:href="#DejaVuSans-46"/>
       <use x="95.410156" xlink:href="#DejaVuSans-53"/>
      </g>
     </g>
    </g>
    <g id="ytick_9">
     <g id="line2d_41">
      <path clip-path="url(#p4eb5fd5571)" d="M 58.523438 22.318125 
L 484.332812 22.318125 
" style="fill:none;stroke:#b0b0b0;stroke-linecap:square;stroke-width:0.8;"/>
     </g>
     <g id="line2d_42">
      <g>
       <use style="stroke:#000000;stroke-width:0.8;" x="58.523438" xlink:href="#m6fa0001104" y="22.318125"/>
      </g>
     </g>
     <g id="text_22">
      <!-- 10.0 -->
      <g transform="translate(29.257813 26.117344)scale(0.1 -0.1)">
       <use xlink:href="#DejaVuSans-49"/>
       <use x="63.623047" xlink:href="#DejaVuSans-48"/>
       <use x="127.246094" xlink:href="#DejaVuSans-46"/>
       <use x="159.033203" xlink:href="#DejaVuSans-48"/>
      </g>
     </g>
    </g>
    <g id="text_23">
     <!-- Error [Lux] -->
     <defs>
      <path d="M 9.8125 72.90625 
L 55.90625 72.90625 
L 55.90625 64.59375 
L 19.671875 64.59375 
L 19.671875 43.015625 
L 54.390625 43.015625 
L 54.390625 34.71875 
L 19.671875 34.71875 
L 19.671875 8.296875 
L 56.78125 8.296875 
L 56.78125 0 
L 9.8125 0 
z
" id="DejaVuSans-69"/>
      <path d="M 41.109375 46.296875 
Q 39.59375 47.171875 37.8125 47.578125 
Q 36.03125 48 33.890625 48 
Q 26.265625 48 22.1875 43.046875 
Q 18.109375 38.09375 18.109375 28.8125 
L 18.109375 0 
L 9.078125 0 
L 9.078125 54.6875 
L 18.109375 54.6875 
L 18.109375 46.1875 
Q 20.953125 51.171875 25.484375 53.578125 
Q 30.03125 56 36.53125 56 
Q 37.453125 56 38.578125 55.875 
Q 39.703125 55.765625 41.0625 55.515625 
z
" id="DejaVuSans-114"/>
      <path d="M 30.609375 48.390625 
Q 23.390625 48.390625 19.1875 42.75 
Q 14.984375 37.109375 14.984375 27.296875 
Q 14.984375 17.484375 19.15625 11.84375 
Q 23.34375 6.203125 30.609375 6.203125 
Q 37.796875 6.203125 41.984375 11.859375 
Q 46.1875 17.53125 46.1875 27.296875 
Q 46.1875 37.015625 41.984375 42.703125 
Q 37.796875 48.390625 30.609375 48.390625 
z
M 30.609375 56 
Q 42.328125 56 49.015625 48.375 
Q 55.71875 40.765625 55.71875 27.296875 
Q 55.71875 13.875 49.015625 6.21875 
Q 42.328125 -1.421875 30.609375 -1.421875 
Q 18.84375 -1.421875 12.171875 6.21875 
Q 5.515625 13.875 5.515625 27.296875 
Q 5.515625 40.765625 12.171875 48.375 
Q 18.84375 56 30.609375 56 
z
" id="DejaVuSans-111"/>
      <path d="M 9.8125 72.90625 
L 19.671875 72.90625 
L 19.671875 8.296875 
L 55.171875 8.296875 
L 55.171875 0 
L 9.8125 0 
z
" id="DejaVuSans-76"/>
      <path d="M 8.5 21.578125 
L 8.5 54.6875 
L 17.484375 54.6875 
L 17.484375 21.921875 
Q 17.484375 14.15625 20.5 10.265625 
Q 23.53125 6.390625 29.59375 6.390625 
Q 36.859375 6.390625 41.078125 11.03125 
Q 45.3125 15.671875 45.3125 23.6875 
L 45.3125 54.6875 
L 54.296875 54.6875 
L 54.296875 0 
L 45.3125 0 
L 45.3125 8.40625 
Q 42.046875 3.421875 37.71875 1 
Q 33.40625 -1.421875 27.6875 -1.421875 
Q 18.265625 -1.421875 13.375 4.4375 
Q 8.5 10.296875 8.5 21.578125 
z
M 31.109375 56 
z
" id="DejaVuSans-117"/>
      <path d="M 54.890625 54.6875 
L 35.109375 28.078125 
L 55.90625 0 
L 45.3125 0 
L 29.390625 21.484375 
L 13.484375 0 
L 2.875 0 
L 24.125 28.609375 
L 4.6875 54.6875 
L 15.28125 54.6875 
L 29.78125 35.203125 
L 44.28125 54.6875 
z
" id="DejaVuSans-120"/>
     </defs>
     <g style="fill:#1f77b4;" transform="translate(14.798438 182.021231)rotate(-90)scale(0.1 -0.1)">
      <use xlink:href="#DejaVuSans-69"/>
      <use x="63.183594" xlink:href="#DejaVuSans-114"/>
      <use x="102.546875" xlink:href="#DejaVuSans-114"/>
      <use x="141.410156" xlink:href="#DejaVuSans-111"/>
      <use x="202.591797" xlink:href="#DejaVuSans-114"/>
      <use x="243.705078" xlink:href="#DejaVuSans-32"/>
      <use x="275.492188" xlink:href="#DejaVuSans-91"/>
      <use x="314.505859" xlink:href="#DejaVuSans-76"/>
      <use x="368.46875" xlink:href="#DejaVuSans-117"/>
      <use x="431.847656" xlink:href="#DejaVuSans-120"/>
      <use x="491.027344" xlink:href="#DejaVuSans-93"/>
     </g>
    </g>
   </g>
   <g id="line2d_43">
    <path clip-path="url(#p4eb5fd5571)" d="M 77.878409 166.250873 
L 77.888939 166.250873 
L 77.888939 157.347734 
L 77.994241 157.347734 
L 78.120603 157.347734 
L 78.120603 195.712218 
L 78.152193 148.444595 
L 78.225905 195.712218 
L 78.236435 195.712218 
L 78.236435 148.444595 
L 78.341736 148.444595 
L 79.089378 148.444595 
L 79.089378 195.712218 
L 79.19468 148.444595 
L 79.615886 148.444595 
L 79.615886 157.347734 
L 79.721188 157.347734 
L 79.773839 157.347734 
L 79.773839 133.713923 
L 79.879141 142.617062 
L 80.237166 142.617062 
L 80.237166 118.98325 
L 80.342468 142.617062 
L 80.753145 142.617062 
L 80.753145 118.98325 
L 80.858446 142.617062 
L 81.900933 142.617062 
L 81.900933 166.250873 
L 82.006234 166.250873 
L 84.428172 166.250873 
L 84.428172 157.347734 
L 84.533474 166.250873 
L 84.586125 166.250873 
L 84.586125 157.347734 
L 84.691427 157.347734 
L 86.007697 157.347734 
L 86.007697 204.615356 
L 86.112999 157.347734 
L 87.060714 157.347734 
L 87.060714 204.615356 
L 87.166016 157.347734 
L 88.197972 157.347734 
L 88.197972 204.615356 
L 88.303273 157.347734 
L 89.240458 157.347734 
L 89.240458 204.615356 
L 89.34576 157.347734 
L 90.388246 157.347734 
L 90.388246 204.615356 
L 90.493548 157.347734 
L 91.778228 157.347734 
L 91.778228 204.615356 
L 91.88353 157.347734 
L 92.52587 157.347734 
L 92.52587 204.615356 
L 92.631172 157.347734 
L 93.105029 157.347734 
L 93.105029 148.444595 
L 93.210331 148.444595 
L 93.357753 148.444595 
L 93.357753 195.712218 
L 93.463055 157.347734 
L 93.526236 157.347734 
L 93.526236 148.444595 
L 93.631537 148.444595 
L 94.221227 148.444595 
L 94.221227 195.712218 
L 94.326528 148.444595 
L 95.09523 148.444595 
L 95.09523 195.712218 
L 95.200532 148.444595 
L 96.000825 148.444595 
L 96.000825 195.712218 
L 96.106126 148.444595 
L 96.853768 148.444595 
L 96.853768 195.712218 
L 96.95907 148.444595 
L 97.748832 148.444595 
L 97.748832 195.712218 
L 97.854134 148.444595 
L 98.612306 148.444595 
L 98.612306 195.712218 
L 98.717608 148.444595 
L 99.107224 148.444595 
L 99.107224 139.541456 
L 99.212525 139.541456 
L 99.233586 139.541456 
L 99.233586 148.444595 
L 99.338887 139.541456 
L 99.5179 139.541456 
L 99.5179 186.809079 
L 99.623202 148.444595 
L 99.654792 148.444595 
L 99.654792 139.541456 
L 99.760094 139.541456 
L 100.370844 139.541456 
L 100.370844 186.809079 
L 100.476145 139.541456 
L 101.350149 139.541456 
L 101.350149 186.809079 
L 101.455451 139.541456 
L 102.287334 139.541456 
L 102.287334 139.541456 
L 102.287334 186.809079 
L 102.392636 139.541456 
L 103.182398 139.541456 
L 103.182398 186.809079 
L 103.2877 139.541456 
L 104.182764 139.541456 
L 104.182764 186.809079 
L 104.288065 139.541456 
L 105.014647 139.541456 
L 105.014647 177.90594 
L 105.119949 139.541456 
L 105.141009 139.541456 
L 105.141009 177.90594 
L 105.18313 130.638317 
L 105.246311 130.638317 
L 105.256841 130.638317 
L 105.256841 177.90594 
L 105.362142 177.90594 
L 105.899181 177.90594 
L 105.899181 201.539751 
L 105.909711 130.638317 
L 106.004483 130.638317 
L 106.015013 130.638317 
L 106.015013 177.90594 
L 106.120314 177.90594 
L 106.151905 177.90594 
L 106.151905 130.638317 
L 106.257207 177.90594 
L 106.50993 177.90594 
L 106.50993 130.638317 
L 106.615232 130.638317 
L 106.815305 130.638317 
L 106.815305 177.90594 
L 106.920607 177.90594 
L 106.941667 177.90594 
L 106.941667 130.638317 
L 107.046969 177.90594 
L 107.647188 177.90594 
L 107.647188 201.539751 
L 107.657719 130.638317 
L 107.75249 130.638317 
L 107.815671 130.638317 
L 107.815671 177.90594 
L 107.920973 130.638317 
L 107.942033 130.638317 
L 107.942033 177.90594 
L 108.047335 177.90594 
L 108.689675 177.90594 
L 108.689675 201.539751 
L 108.700205 130.638317 
L 108.794976 130.638317 
L 108.973989 130.638317 
L 108.973989 177.90594 
L 109.079291 177.90594 
L 109.089821 177.90594 
L 109.089821 130.638317 
L 109.195123 177.90594 
L 109.900644 177.90594 
L 109.900644 201.539751 
L 109.911174 130.638317 
L 110.005946 130.638317 
L 110.111247 130.638317 
L 110.111247 177.90594 
L 110.216549 177.90594 
L 110.27973 177.90594 
L 110.27973 130.638317 
L 110.385032 177.90594 
L 111.111613 177.90594 
L 111.111613 201.539751 
L 111.122143 130.638317 
L 111.216915 130.638317 
L 111.353807 130.638317 
L 111.353807 177.90594 
L 111.459108 130.638317 
L 111.469639 130.638317 
L 111.469639 177.90594 
L 111.57494 177.90594 
L 112.269931 177.90594 
L 112.269931 201.539751 
L 112.280461 130.638317 
L 112.375233 130.638317 
L 112.427884 130.638317 
L 112.427884 177.90594 
L 112.533185 130.638317 
L 112.575306 130.638317 
L 112.575306 177.90594 
L 112.680608 177.90594 
L 113.43878 177.90594 
L 113.43878 201.539751 
L 113.44931 130.638317 
L 113.544081 130.638317 
L 113.649383 130.638317 
L 113.649383 177.90594 
L 113.754685 130.638317 
L 113.775745 130.638317 
L 113.775745 130.638317 
L 113.775745 177.90594 
L 113.881047 177.90594 
L 114.544447 177.90594 
L 114.544447 177.90594 
L 114.544447 201.539751 
L 114.565507 130.638317 
L 114.649749 130.638317 
L 114.72346 130.638317 
L 114.72346 177.90594 
L 114.828762 177.90594 
L 114.839292 177.90594 
L 114.839292 130.638317 
L 114.944593 177.90594 
L 115.776477 177.90594 
L 115.776477 201.539751 
L 115.787007 130.638317 
L 115.881778 177.90594 
L 115.892308 177.90594 
L 115.892308 130.638317 
L 115.99761 177.90594 
L 116.703131 177.90594 
L 116.703131 201.539751 
L 116.713661 130.638317 
L 116.808433 130.638317 
L 116.840023 130.638317 
L 116.840023 177.90594 
L 116.945325 130.638317 
L 116.955855 130.638317 
L 116.955855 177.90594 
L 117.061157 177.90594 
L 117.956221 177.90594 
L 117.956221 201.539751 
L 117.966751 130.638317 
L 118.061522 130.638317 
L 118.177354 130.638317 
L 118.177354 177.90594 
L 118.282656 177.90594 
L 119.662108 177.90594 
L 119.662108 201.539751 
L 119.672638 130.638317 
L 119.767409 130.638317 
L 119.978013 130.638317 
L 119.978013 177.90594 
L 120.083314 177.90594 
L 121.483826 177.90594 
L 121.483826 201.539751 
L 121.494357 130.638317 
L 121.589128 130.638317 
L 121.70496 130.638317 
L 121.70496 177.90594 
L 121.810262 130.638317 
L 121.820792 130.638317 
L 121.820792 177.90594 
L 121.926093 177.90594 
L 123.116002 177.90594 
L 123.116002 160.099662 
L 123.221304 160.099662 
L 123.316075 160.099662 
L 123.316075 183.733473 
L 123.326606 130.638317 
L 123.421377 130.638317 
L 123.653041 130.638317 
L 123.653041 177.90594 
L 123.758342 177.90594 
L 124.24273 177.90594 
L 124.24273 160.099662 
L 124.337502 160.099662 
L 125.49582 160.099662 
L 125.49582 183.733473 
L 125.50635 112.832039 
L 125.601121 183.733473 
L 125.611652 183.733473 
L 125.611652 112.832039 
L 125.716953 112.832039 
L 125.727483 112.832039 
L 125.727483 183.733473 
L 125.832785 160.099662 
L 125.874906 160.099662 
L 125.874906 112.832039 
L 125.885436 183.733473 
L 125.969677 160.099662 
L 127.559732 160.099662 
L 127.559732 183.733473 
L 127.570262 112.832039 
L 127.665034 112.832039 
L 127.675564 112.832039 
L 127.696624 183.733473 
L 127.780866 160.099662 
L 127.791396 160.099662 
L 127.791396 183.733473 
L 127.801926 112.832039 
L 127.896698 183.733473 
L 127.907228 183.733473 
L 127.907228 112.832039 
L 128.012529 160.099662 
L 128.04412 160.099662 
L 128.04412 112.832039 
L 128.05465 183.733473 
L 128.149422 160.099662 
L 130.223864 160.099662 
L 130.223864 183.733473 
L 130.234394 112.832039 
L 130.329166 160.099662 
L 130.381817 160.099662 
L 130.381817 183.733473 
L 130.392347 112.832039 
L 130.487118 112.832039 
L 130.497649 112.832039 
L 130.497649 183.733473 
L 130.60295 183.733473 
L 130.61348 183.733473 
L 130.61348 112.832039 
L 130.718782 112.832039 
L 130.729312 112.832039 
L 130.729312 183.733473 
L 130.834614 112.832039 
L 130.845144 112.832039 
L 130.845144 183.733473 
L 130.950446 160.099662 
L 131.003097 160.099662 
L 131.003097 112.832039 
L 131.013627 183.733473 
L 131.108398 160.099662 
L 131.287411 160.099662 
L 131.287411 112.832039 
L 131.297941 183.733473 
L 131.392713 160.099662 
L 133.993664 160.099662 
L 133.993664 151.196523 
L 134.098965 160.099662 
L 134.204267 160.099662 
L 134.204267 151.196523 
L 134.309569 160.099662 
L 134.330629 160.099662 
L 134.330629 151.196523 
L 134.435931 151.196523 
L 134.446461 151.196523 
L 134.446461 160.099662 
L 134.551762 151.196523 
L 134.636004 151.196523 
L 134.636004 160.099662 
L 134.741305 151.196523 
L 134.762366 151.196523 
L 134.762366 174.830334 
L 134.867667 151.196523 
L 134.899258 151.196523 
L 134.899258 174.830334 
L 135.00456 174.830334 
L 135.01509 174.830334 
L 135.01509 151.196523 
L 135.120391 151.196523 
L 135.130922 151.196523 
L 135.130922 174.830334 
L 135.236223 174.830334 
L 135.288874 174.830334 
L 135.288874 151.196523 
L 135.394176 174.830334 
L 135.404706 174.830334 
L 135.404706 151.196523 
L 135.510008 174.830334 
L 186.602373 174.830334 
L 186.602373 198.464145 
L 186.707675 174.830334 
L 384.580024 174.830334 
L 384.580024 151.196523 
L 384.685325 151.196523 
L 384.695855 151.196523 
L 384.695855 174.830334 
L 384.801157 151.196523 
L 384.811687 151.196523 
L 384.811687 174.830334 
L 384.916989 151.196523 
L 388.349823 151.196523 
L 388.349823 160.099662 
L 388.455125 151.196523 
L 389.571322 151.196523 
L 389.571322 160.099662 
L 389.676624 151.196523 
L 389.739805 151.196523 
L 389.739805 160.099662 
L 389.845107 160.099662 
L 389.855637 160.099662 
L 389.855637 151.196523 
L 389.960938 160.099662 
L 389.971469 160.099662 
L 389.971469 151.196523 
L 390.07677 151.196523 
L 390.0873 151.196523 
L 390.0873 160.099662 
L 390.192602 160.099662 
L 390.203132 160.099662 
L 390.203132 151.196523 
L 390.308434 160.099662 
L 392.783023 160.099662 
L 392.783023 112.832039 
L 392.793553 183.733473 
L 392.888325 160.099662 
L 392.898855 160.099662 
L 392.898855 112.832039 
L 392.909385 183.733473 
L 393.004156 112.832039 
L 393.014687 112.832039 
L 393.014687 183.733473 
L 393.119988 183.733473 
L 393.130518 183.733473 
L 393.130518 112.832039 
L 393.23582 112.832039 
L 393.24635 112.832039 
L 393.24635 183.733473 
L 393.351652 183.733473 
L 393.362182 183.733473 
L 393.362182 112.832039 
L 393.467484 160.099662 
L 393.488544 160.099662 
L 393.488544 183.733473 
L 393.499074 112.832039 
L 393.593846 183.733473 
L 393.604376 183.733473 
L 393.604376 112.832039 
L 393.709678 160.099662 
L 393.87816 160.099662 
L 393.87816 112.832039 
L 393.88869 183.733473 
L 393.983462 160.099662 
L 394.309897 160.099662 
L 394.309897 151.196523 
L 394.415199 151.196523 
L 394.952237 151.196523 
L 394.952237 174.830334 
L 395.057539 174.830334 
L 395.215491 174.830334 
L 395.215491 151.196523 
L 395.320793 174.830334 
L 395.362914 174.830334 
L 395.362914 151.196523 
L 395.468215 151.196523 
L 395.478745 151.196523 
L 395.478745 174.830334 
L 395.584047 174.830334 
L 395.626168 174.830334 
L 395.626168 151.196523 
L 395.731469 174.830334 
L 401.817905 174.830334 
L 401.817905 151.196523 
L 401.923207 151.196523 
L 401.933737 151.196523 
L 401.933737 174.830334 
L 402.039039 151.196523 
L 402.060099 151.196523 
L 402.060099 174.830334 
L 402.165401 174.830334 
L 402.186461 174.830334 
L 402.186461 151.196523 
L 402.291763 174.830334 
L 402.302293 174.830334 
L 402.302293 151.196523 
L 402.407595 151.196523 
L 402.418125 151.196523 
L 402.418125 174.830334 
L 402.523427 151.196523 
L 402.533957 151.196523 
L 402.533957 174.830334 
L 402.639258 174.830334 
L 402.660319 174.830334 
L 402.660319 151.196523 
L 402.76562 174.830334 
L 402.786681 174.830334 
L 402.786681 151.196523 
L 402.891982 174.830334 
L 402.913043 174.830334 
L 402.913043 151.196523 
L 403.018344 151.196523 
L 403.039405 151.196523 
L 403.039405 174.830334 
L 403.144706 174.830334 
L 403.155236 174.830334 
L 403.155236 151.196523 
L 403.260538 151.196523 
L 403.281598 151.196523 
L 403.281598 174.830334 
L 403.3869 151.196523 
L 406.272166 151.196523 
L 406.272166 160.099662 
L 406.377467 151.196523 
L 406.451178 151.196523 
L 406.451178 160.099662 
L 406.55648 151.196523 
L 406.619661 151.196523 
L 406.619661 160.099662 
L 406.724963 160.099662 
L 406.756553 160.099662 
L 406.756553 151.196523 
L 406.861855 160.099662 
L 407.462074 160.099662 
L 407.462074 112.832039 
L 407.472605 174.830334 
L 407.567376 174.830334 
L 409.06266 174.830334 
L 409.06266 151.196523 
L 409.167961 151.196523 
L 409.189022 151.196523 
L 409.189022 174.830334 
L 409.294323 151.196523 
L 409.346974 151.196523 
L 409.346974 160.099662 
L 409.452276 151.196523 
L 409.536517 151.196523 
L 409.536517 160.099662 
L 409.641819 151.196523 
L 409.778711 151.196523 
L 409.778711 160.099662 
L 409.884013 151.196523 
L 409.905073 151.196523 
L 409.905073 160.099662 
L 410.010375 151.196523 
L 410.105146 151.196523 
L 410.105146 160.099662 
L 410.210448 160.099662 
L 410.220978 160.099662 
L 410.220978 151.196523 
L 410.326279 160.099662 
L 410.35787 160.099662 
L 410.35787 151.196523 
L 410.463172 151.196523 
L 410.473702 151.196523 
L 410.473702 160.099662 
L 410.579003 160.099662 
L 413.380028 160.099662 
L 413.380028 112.832039 
L 413.390558 183.733473 
L 413.485329 183.733473 
L 413.49586 183.733473 
L 413.49586 112.832039 
L 413.601161 183.733473 
L 413.611691 183.733473 
L 413.611691 112.832039 
L 413.716993 112.832039 
L 413.727523 112.832039 
L 413.727523 183.733473 
L 413.832825 160.099662 
L 413.853885 160.099662 
L 413.853885 183.733473 
L 413.864415 112.832039 
L 413.959187 160.099662 
L 413.969717 160.099662 
L 413.969717 183.733473 
L 413.980247 112.832039 
L 414.075019 112.832039 
L 414.085549 112.832039 
L 414.096079 183.733473 
L 414.19085 160.099662 
L 421.1197 160.099662 
L 421.1197 112.832039 
L 421.13023 183.733473 
L 421.225001 160.099662 
L 421.298712 160.099662 
L 421.298712 112.832039 
L 421.309243 183.733473 
L 421.404014 112.832039 
L 421.414544 112.832039 
L 421.414544 183.733473 
L 421.519846 112.832039 
L 421.530376 112.832039 
L 421.530376 183.733473 
L 421.635678 183.733473 
L 421.646208 183.733473 
L 421.646208 112.832039 
L 421.75151 112.832039 
L 421.76204 112.832039 
L 421.76204 183.733473 
L 421.867341 112.832039 
L 421.877872 112.832039 
L 421.877872 183.733473 
L 421.983173 160.099662 
L 422.014764 160.099662 
L 422.014764 183.733473 
L 422.025294 112.832039 
L 422.120065 160.099662 
L 422.141126 160.099662 
L 422.141126 183.733473 
L 422.151656 112.832039 
L 422.235897 112.832039 
L 422.256958 112.832039 
L 422.299078 183.733473 
L 422.362259 112.832039 
L 422.372789 112.832039 
L 422.38332 183.733473 
L 422.478091 183.733473 
L 422.488621 183.733473 
L 422.488621 112.832039 
L 422.593923 160.099662 
L 425.784563 160.099662 
L 425.784563 112.832039 
L 425.795093 183.733473 
L 425.889865 183.733473 
L 425.900395 183.733473 
L 425.900395 112.832039 
L 426.005697 160.099662 
L 426.016227 160.099662 
L 426.016227 112.832039 
L 426.026757 183.733473 
L 426.121528 112.832039 
L 426.132059 112.832039 
L 426.132059 183.733473 
L 426.23736 183.733473 
L 426.24789 183.733473 
L 426.268951 112.832039 
L 426.342662 183.733473 
L 426.363722 183.733473 
L 426.363722 112.832039 
L 426.469024 160.099662 
L 426.490084 160.099662 
L 426.490084 112.832039 
L 426.500615 183.733473 
L 426.595386 160.099662 
L 427.027123 160.099662 
L 427.027123 112.832039 
L 427.037653 183.733473 
L 427.132424 112.832039 
L 427.142955 112.832039 
L 427.142955 183.733473 
L 427.248256 160.099662 
L 427.827415 160.099662 
L 427.827415 112.832039 
L 427.837945 183.733473 
L 427.932717 160.099662 
L 428.827781 160.099662 
L 428.827781 177.90594 
L 428.848841 130.638317 
L 428.933083 130.638317 
L 430.544198 130.638317 
L 430.544198 112.832039 
L 430.554728 183.733473 
L 430.6495 160.099662 
L 432.155314 160.099662 
L 432.155314 183.733473 
L 432.165844 112.832039 
L 432.260615 183.733473 
L 432.271145 183.733473 
L 432.271145 112.832039 
L 432.376447 160.099662 
L 433.408403 160.099662 
L 433.408403 112.832039 
L 433.418934 183.733473 
L 433.513705 160.099662 
L 434.029683 160.099662 
L 434.029683 183.733473 
L 434.040213 112.832039 
L 434.134985 183.733473 
L 434.145515 183.733473 
L 434.145515 112.832039 
L 434.250817 160.099662 
L 434.45089 160.099662 
L 434.45089 112.832039 
L 434.46142 183.733473 
L 434.556191 160.099662 
L 434.882627 160.099662 
L 434.882627 112.832039 
L 434.893157 183.733473 
L 434.987928 112.832039 
L 434.998458 112.832039 
L 434.998458 183.733473 
L 435.10376 160.099662 
L 436.030415 160.099662 
L 436.030415 112.832039 
L 436.040945 183.733473 
L 436.135716 130.638317 
L 436.651695 130.638317 
L 436.651695 112.832039 
L 436.662225 183.733473 
L 436.756996 160.099662 
L 436.9676 160.099662 
L 436.9676 112.832039 
L 436.98866 183.733473 
L 437.072901 183.733473 
L 437.083431 183.733473 
L 437.093961 112.832039 
L 437.188733 160.099662 
L 437.704711 160.099662 
L 437.704711 112.832039 
L 437.715241 183.733473 
L 437.810013 183.733473 
L 437.820543 183.733473 
L 437.820543 112.832039 
L 437.925845 112.832039 
L 437.936375 112.832039 
L 437.936375 183.733473 
L 438.041676 160.099662 
L 438.652426 160.099662 
L 438.652426 112.832039 
L 438.662956 183.733473 
L 438.757728 183.733473 
L 438.768258 183.733473 
L 438.768258 112.832039 
L 438.873559 160.099662 
L 439.56855 160.099662 
L 439.56855 112.832039 
L 439.579081 183.733473 
L 439.673852 160.099662 
L 439.684382 160.099662 
L 439.684382 183.733473 
L 439.694912 112.832039 
L 439.789684 183.733473 
L 439.800214 183.733473 
L 439.800214 112.832039 
L 439.905516 160.099662 
L 440.684748 160.099662 
L 440.684748 112.832039 
L 440.695278 183.733473 
L 440.79005 183.733473 
L 440.80058 183.733473 
L 440.81111 112.832039 
L 440.905882 112.832039 
L 440.916412 112.832039 
L 440.916412 183.733473 
L 441.021713 160.099662 
L 441.032243 160.099662 
L 441.032243 112.832039 
L 441.042774 183.733473 
L 441.137545 130.638317 
L 441.148075 130.638317 
L 441.148075 112.832039 
L 441.169136 183.733473 
L 441.253377 130.638317 
L 441.263907 130.638317 
L 441.263907 112.832039 
L 441.284968 183.733473 
L 441.369209 160.099662 
L 441.42186 160.099662 
L 441.42186 112.832039 
L 441.43239 183.733473 
L 441.527161 130.638317 
L 443.443651 130.638317 
L 443.443651 107.004506 
L 443.548953 130.638317 
L 444.233414 130.638317 
L 444.233414 107.004506 
L 444.338716 130.638317 
L 444.454547 130.638317 
L 444.454547 107.004506 
L 444.559849 130.638317 
L 444.938935 130.638317 
L 444.938935 177.90594 
L 445.044237 177.90594 
L 445.054767 177.90594 
L 445.054767 130.638317 
L 445.160069 130.638317 
L 445.360142 130.638317 
L 445.360142 107.004506 
L 445.465443 130.638317 
L 445.581275 130.638317 
L 445.581275 107.004506 
L 445.686577 130.638317 
L 446.013012 130.638317 
L 446.086723 201.539751 
L 446.118314 177.90594 
L 446.465809 177.90594 
L 446.465809 130.638317 
L 446.571111 177.90594 
L 446.581641 177.90594 
L 446.581641 130.638317 
L 446.686943 130.638317 
L 447.013378 130.638317 
L 447.013378 107.004506 
L 447.11868 130.638317 
L 447.234511 130.638317 
L 447.234511 107.004506 
L 447.276632 139.541456 
L 447.339813 139.541456 
L 447.350343 139.541456 
L 447.350343 115.907645 
L 447.455645 139.541456 
L 447.476705 139.541456 
L 447.476705 124.810784 
L 447.529356 148.444595 
L 447.582007 148.444595 
L 447.613597 148.444595 
L 447.613597 139.541456 
L 447.718899 139.541456 
L 447.739959 139.541456 
L 447.739959 148.444595 
L 447.78208 124.810784 
L 447.845261 148.444595 
L 447.897912 148.444595 
L 447.897912 124.810784 
L 448.003213 148.444595 
L 448.013744 148.444595 
L 448.013744 157.347734 
L 448.076925 110.080111 
L 448.119045 133.713923 
L 448.150636 133.713923 
L 448.150636 118.98325 
L 448.255937 157.347734 
L 448.750855 157.347734 
L 448.835096 118.98325 
L 448.856157 142.617062 
L 448.908808 142.617062 
L 448.908808 118.98325 
L 449.014109 142.617062 
L 449.05623 142.617062 
L 449.05623 118.98325 
L 449.098351 151.520201 
L 449.161532 151.520201 
L 449.193122 151.520201 
L 449.266833 212.313029 
L 449.298424 113.155717 
L 449.308954 113.155717 
L 449.308954 155.323082 
L 449.414256 155.323082 
L 449.477437 155.323082 
L 449.477437 212.313029 
L 449.509027 127.886389 
L 449.582738 151.520201 
L 449.593268 151.520201 
L 449.593268 186.274944 
L 449.69857 151.520201 
L 449.751221 151.520201 
L 449.751221 127.886389 
L 449.856523 151.520201 
L 449.867053 151.520201 
L 449.888113 113.155717 
L 449.972354 238.351114 
L 449.982885 238.351114 
L 449.982885 124.371221 
L 450.088186 181.361167 
L 450.246139 181.361167 
L 450.246139 238.351114 
L 450.29879 113.155717 
L 450.35144 155.323082 
L 450.361971 155.323082 
L 450.361971 212.313029 
L 450.404091 127.886389 
L 450.467272 186.274944 
L 450.477802 186.274944 
L 450.477802 151.520201 
L 450.583104 166.250873 
L 450.762117 166.250873 
L 450.762117 186.274944 
L 450.783177 127.886389 
L 450.867419 151.520201 
L 450.888479 151.520201 
L 450.96219 181.361167 
L 450.9306 113.155717 
L 450.99378 181.361167 
L 451.014841 181.361167 
L 451.014841 124.371221 
L 451.078022 264.389199 
L 451.120142 264.389199 
L 451.130673 264.389199 
L 451.130673 124.371221 
L 451.235974 181.361167 
L 451.278095 181.361167 
L 451.278095 264.389199 
L 451.330746 124.371221 
L 451.383397 181.361167 
L 451.436048 181.361167 
L 451.436048 238.351114 
L 451.541349 181.361167 
L 451.56241 181.361167 
L 451.56241 113.155717 
L 451.58347 212.313029 
L 451.667711 155.323082 
L 451.688771 155.323082 
L 451.688771 151.520201 
L 451.794073 151.520201 
L 451.899375 151.520201 
L 451.899375 186.274944 
L 452.004676 151.520201 
L 452.015207 151.520201 
L 452.015207 127.886389 
L 452.088918 155.323082 
L 452.120508 155.323082 
L 452.152099 155.323082 
L 452.23634 89.521906 
L 452.183689 181.361167 
L 452.257401 124.371221 
L 452.278461 124.371221 
L 452.341642 259.475423 
L 452.383762 145.49553 
L 452.552245 145.49553 
L 452.552245 88.505584 
L 452.657547 145.49553 
L 452.678607 145.49553 
L 452.678607 202.485476 
L 452.783909 145.49553 
L 452.794439 145.49553 
L 452.794439 88.505584 
L 452.899741 145.49553 
L 452.973452 145.49553 
L 452.973452 202.485476 
L 453.078753 145.49553 
L 453.152465 145.49553 
L 453.152465 88.505584 
L 453.236706 171.533615 
L 453.247236 166.619839 
L 453.331477 166.619839 
L 453.384128 156.792287 
L 453.573671 156.792287 
L 453.636852 192.657924 
L 453.678973 192.657924 
L 453.689503 192.657924 
L 453.689503 109.629893 
L 453.731624 171.533615 
L 453.815865 171.533615 
L 453.815865 202.485476 
L 453.963287 202.485476 
L 453.963287 145.49553 
L 454.068589 145.49553 
L 454.100179 145.49553 
L 454.100179 202.485476 
L 454.173891 88.505584 
L 454.205481 88.505584 
L 454.216011 88.505584 
L 454.321313 202.485476 
L 454.331843 202.485476 
L 454.331843 145.49553 
L 454.437145 145.49553 
L 454.447675 145.49553 
L 454.531916 238.351114 
L 454.489796 36.429414 
L 454.552977 238.351114 
L 454.574037 238.351114 
L 454.616158 151.520201 
L 454.679339 166.250873 
L 454.689869 166.250873 
L 454.689869 204.615356 
L 454.77411 148.444595 
L 454.795171 148.444595 
L 454.816231 148.444595 
L 454.816231 195.712218 
L 454.921532 148.444595 
L 455.290088 148.444595 
L 455.290088 157.347734 
L 455.39539 148.444595 
L 455.521752 148.444595 
L 455.521752 139.541456 
L 455.532282 186.809079 
L 455.627053 139.541456 
L 456.153562 139.541456 
L 456.153562 186.809079 
L 456.258864 177.90594 
L 456.269394 177.90594 
L 456.269394 201.539751 
L 456.374695 177.90594 
L 456.395756 177.90594 
L 456.395756 201.539751 
L 456.406286 130.638317 
L 456.501057 130.638317 
L 456.64848 130.638317 
L 456.64848 139.541456 
L 456.68007 115.907645 
L 456.753781 139.541456 
L 456.774842 139.541456 
L 456.774842 115.907645 
L 456.816962 148.444595 
L 456.880143 148.444595 
L 456.901204 148.444595 
L 456.901204 124.810784 
L 457.006505 148.444595 
L 457.32241 148.444595 
L 457.32241 157.347734 
L 457.385591 110.080111 
L 457.417182 118.98325 
L 457.438242 118.98325 
L 457.438242 142.617062 
L 457.543544 142.617062 
L 457.638315 142.617062 
L 457.722557 204.615356 
L 457.743617 157.347734 
L 457.754147 157.347734 
L 457.754147 204.615356 
L 457.775207 148.444595 
L 457.859449 148.444595 
L 457.9121 148.444595 
L 457.9121 195.712218 
L 458.017401 148.444595 
L 458.312246 148.444595 
L 458.396487 110.080111 
L 458.417548 110.080111 
L 458.438608 110.080111 
L 458.54391 151.520201 
L 458.55444 151.520201 
L 458.55444 127.886389 
L 458.659741 151.520201 
L 458.754513 151.520201 
L 458.754513 186.274944 
L 458.859815 151.520201 
L 458.870345 151.520201 
L 458.965116 212.313029 
L 458.975646 113.155717 
L 458.986176 113.155717 
L 459.070418 181.361167 
L 459.091478 124.371221 
L 459.112539 124.371221 
L 459.112539 202.485476 
L 459.881241 202.485476 
L 459.954952 269.302975 
L 459.986542 151.520201 
L 459.997072 151.520201 
L 459.997072 186.274944 
L 460.102374 157.347734 
L 460.123435 157.347734 
L 460.123435 204.615356 
L 460.228736 157.347734 
L 460.249796 157.347734 
L 460.249796 148.444595 
L 460.355098 157.347734 
L 460.586762 157.347734 
L 460.628882 118.98325 
L 460.692063 142.617062 
L 460.702594 142.617062 
L 460.702594 118.98325 
L 460.744714 151.520201 
L 460.807895 142.617062 
L 460.839486 142.617062 
L 460.839486 166.250873 
L 460.944787 166.250873 
L 461.039559 166.250873 
L 461.08168 127.886389 
L 461.144861 151.520201 
L 461.155391 151.520201 
L 461.208042 113.155717 
L 461.260692 212.313029 
L 461.271222 212.313029 
L 461.271222 155.323082 
L 461.376524 155.323082 
L 461.429175 155.323082 
L 461.429175 127.886389 
L 461.534477 155.323082 
L 461.618718 155.323082 
L 461.618718 113.155717 
L 461.650308 212.313029 
L 461.72402 155.323082 
L 461.892502 155.323082 
L 461.892502 212.313029 
L 461.987274 151.520201 
L 461.997804 151.520201 
L 462.092575 151.520201 
L 462.092575 186.274944 
L 462.197877 142.617062 
L 462.208407 142.617062 
L 462.208407 166.250873 
L 462.313709 166.250873 
L 462.39795 166.250873 
L 462.440071 127.886389 
L 462.503252 151.520201 
L 462.513782 151.520201 
L 462.513782 155.323082 
L 462.534842 113.155717 
L 462.619084 113.155717 
L 462.629614 113.155717 
L 462.671735 181.361167 
L 462.734916 181.361167 
L 462.766506 181.361167 
L 462.766506 124.371221 
L 462.777036 264.389199 
L 462.934989 264.389199 
L 463.01923 113.155717 
L 463.04029 155.323082 
L 463.071881 155.323082 
L 463.071881 212.313029 
L 463.177183 155.323082 
L 463.345665 155.323082 
L 463.345665 127.886389 
L 463.429907 186.274944 
L 463.450967 151.520201 
L 463.545738 151.520201 
L 463.62998 155.323082 
L 463.65104 113.155717 
L 463.66157 113.155717 
L 463.766872 238.351114 
L 463.777402 238.351114 
L 463.798462 124.371221 
L 463.819523 181.361167 
L 464.90413 181.361167 
L 464.90413 238.351114 
L 464.977841 181.361167 
" style="fill:none;stroke:#1f77b4;stroke-linecap:square;stroke-width:1.5;"/>
   </g>
   <g id="patch_3">
    <path d="M 58.523438 288.71965 
L 58.523438 22.318125 
" style="fill:none;stroke:#000000;stroke-linecap:square;stroke-linejoin:miter;stroke-width:0.8;"/>
   </g>
   <g id="patch_4">
    <path d="M 484.332812 288.71965 
L 484.332812 22.318125 
" style="fill:none;stroke:#000000;stroke-linecap:square;stroke-linejoin:miter;stroke-width:0.8;"/>
   </g>
   <g id="patch_5">
    <path d="M 58.523438 288.71965 
L 484.332813 288.71965 
" style="fill:none;stroke:#000000;stroke-linecap:square;stroke-linejoin:miter;stroke-width:0.8;"/>
   </g>
   <g id="patch_6">
    <path d="M 58.523438 22.318125 
L 484.332813 22.318125 
" style="fill:none;stroke:#000000;stroke-linecap:square;stroke-linejoin:miter;stroke-width:0.8;"/>
   </g>
   <g id="text_24">
    <!-- Error over time for group: jv -->
    <defs>
     <path d="M 2.984375 54.6875 
L 12.5 54.6875 
L 29.59375 8.796875 
L 46.6875 54.6875 
L 56.203125 54.6875 
L 35.6875 0 
L 23.484375 0 
z
" id="DejaVuSans-118"/>
     <path d="M 37.109375 75.984375 
L 37.109375 68.5 
L 28.515625 68.5 
Q 23.6875 68.5 21.796875 66.546875 
Q 19.921875 64.59375 19.921875 59.515625 
L 19.921875 54.6875 
L 34.71875 54.6875 
L 34.71875 47.703125 
L 19.921875 47.703125 
L 19.921875 0 
L 10.890625 0 
L 10.890625 47.703125 
L 2.296875 47.703125 
L 2.296875 54.6875 
L 10.890625 54.6875 
L 10.890625 58.5 
Q 10.890625 67.625 15.140625 71.796875 
Q 19.390625 75.984375 28.609375 75.984375 
z
" id="DejaVuSans-102"/>
     <path d="M 45.40625 27.984375 
Q 45.40625 37.75 41.375 43.109375 
Q 37.359375 48.484375 30.078125 48.484375 
Q 22.859375 48.484375 18.828125 43.109375 
Q 14.796875 37.75 14.796875 27.984375 
Q 14.796875 18.265625 18.828125 12.890625 
Q 22.859375 7.515625 30.078125 7.515625 
Q 37.359375 7.515625 41.375 12.890625 
Q 45.40625 18.265625 45.40625 27.984375 
z
M 54.390625 6.78125 
Q 54.390625 -7.171875 48.1875 -13.984375 
Q 42 -20.796875 29.203125 -20.796875 
Q 24.46875 -20.796875 20.265625 -20.09375 
Q 16.0625 -19.390625 12.109375 -17.921875 
L 12.109375 -9.1875 
Q 16.0625 -11.328125 19.921875 -12.34375 
Q 23.78125 -13.375 27.78125 -13.375 
Q 36.625 -13.375 41.015625 -8.765625 
Q 45.40625 -4.15625 45.40625 5.171875 
L 45.40625 9.625 
Q 42.625 4.78125 38.28125 2.390625 
Q 33.9375 0 27.875 0 
Q 17.828125 0 11.671875 7.65625 
Q 5.515625 15.328125 5.515625 27.984375 
Q 5.515625 40.671875 11.671875 48.328125 
Q 17.828125 56 27.875 56 
Q 33.9375 56 38.28125 53.609375 
Q 42.625 51.21875 45.40625 46.390625 
L 45.40625 54.6875 
L 54.390625 54.6875 
z
" id="DejaVuSans-103"/>
     <path d="M 18.109375 8.203125 
L 18.109375 -20.796875 
L 9.078125 -20.796875 
L 9.078125 54.6875 
L 18.109375 54.6875 
L 18.109375 46.390625 
Q 20.953125 51.265625 25.265625 53.625 
Q 29.59375 56 35.59375 56 
Q 45.5625 56 51.78125 48.09375 
Q 58.015625 40.1875 58.015625 27.296875 
Q 58.015625 14.40625 51.78125 6.484375 
Q 45.5625 -1.421875 35.59375 -1.421875 
Q 29.59375 -1.421875 25.265625 0.953125 
Q 20.953125 3.328125 18.109375 8.203125 
z
M 48.6875 27.296875 
Q 48.6875 37.203125 44.609375 42.84375 
Q 40.53125 48.484375 33.40625 48.484375 
Q 26.265625 48.484375 22.1875 42.84375 
Q 18.109375 37.203125 18.109375 27.296875 
Q 18.109375 17.390625 22.1875 11.75 
Q 26.265625 6.109375 33.40625 6.109375 
Q 40.53125 6.109375 44.609375 11.75 
Q 48.6875 17.390625 48.6875 27.296875 
z
" id="DejaVuSans-112"/>
     <path d="M 11.71875 12.40625 
L 22.015625 12.40625 
L 22.015625 0 
L 11.71875 0 
z
M 11.71875 51.703125 
L 22.015625 51.703125 
L 22.015625 39.3125 
L 11.71875 39.3125 
z
" id="DejaVuSans-58"/>
     <path d="M 9.421875 54.6875 
L 18.40625 54.6875 
L 18.40625 -0.984375 
Q 18.40625 -11.421875 14.421875 -16.109375 
Q 10.453125 -20.796875 1.609375 -20.796875 
L -1.8125 -20.796875 
L -1.8125 -13.1875 
L 0.59375 -13.1875 
Q 5.71875 -13.1875 7.5625 -10.8125 
Q 9.421875 -8.453125 9.421875 -0.984375 
z
M 9.421875 75.984375 
L 18.40625 75.984375 
L 18.40625 64.59375 
L 9.421875 64.59375 
z
" id="DejaVuSans-106"/>
    </defs>
    <g transform="translate(187.4225 16.318125)scale(0.12 -0.12)">
     <use xlink:href="#DejaVuSans-69"/>
     <use x="63.183594" xlink:href="#DejaVuSans-114"/>
     <use x="102.546875" xlink:href="#DejaVuSans-114"/>
     <use x="141.410156" xlink:href="#DejaVuSans-111"/>
     <use x="202.591797" xlink:href="#DejaVuSans-114"/>
     <use x="243.705078" xlink:href="#DejaVuSans-32"/>
     <use x="275.492188" xlink:href="#DejaVuSans-111"/>
     <use x="336.673828" xlink:href="#DejaVuSans-118"/>
     <use x="395.853516" xlink:href="#DejaVuSans-101"/>
     <use x="457.376953" xlink:href="#DejaVuSans-114"/>
     <use x="498.490234" xlink:href="#DejaVuSans-32"/>
     <use x="530.277344" xlink:href="#DejaVuSans-116"/>
     <use x="569.486328" xlink:href="#DejaVuSans-105"/>
     <use x="597.269531" xlink:href="#DejaVuSans-109"/>
     <use x="694.681641" xlink:href="#DejaVuSans-101"/>
     <use x="756.205078" xlink:href="#DejaVuSans-32"/>
     <use x="787.992188" xlink:href="#DejaVuSans-102"/>
     <use x="823.197266" xlink:href="#DejaVuSans-111"/>
     <use x="884.378906" xlink:href="#DejaVuSans-114"/>
     <use x="925.492188" xlink:href="#DejaVuSans-32"/>
     <use x="957.279297" xlink:href="#DejaVuSans-103"/>
     <use x="1020.755859" xlink:href="#DejaVuSans-114"/>
     <use x="1059.619141" xlink:href="#DejaVuSans-111"/>
     <use x="1120.800781" xlink:href="#DejaVuSans-117"/>
     <use x="1184.179688" xlink:href="#DejaVuSans-112"/>
     <use x="1247.65625" xlink:href="#DejaVuSans-58"/>
     <use x="1281.347656" xlink:href="#DejaVuSans-32"/>
     <use x="1313.134766" xlink:href="#DejaVuSans-106"/>
     <use x="1340.917969" xlink:href="#DejaVuSans-118"/>
    </g>
   </g>
  </g>
  <g id="axes_2">
   <g id="matplotlib.axis_3">
    <g id="ytick_10">
     <g id="line2d_44">
      <defs>
       <path d="M 0 0 
L 3.5 0 
" id="md55a8b283c" style="stroke:#000000;stroke-width:0.8;"/>
      </defs>
      <g>
       <use style="stroke:#000000;stroke-width:0.8;" x="484.332812" xlink:href="#md55a8b283c" y="279.032322"/>
      </g>
     </g>
     <g id="text_25">
      <!-- 0 -->
      <g transform="translate(491.332812 282.83154)scale(0.1 -0.1)">
       <use xlink:href="#DejaVuSans-48"/>
      </g>
     </g>
    </g>
    <g id="ytick_11">
     <g id="line2d_45">
      <g>
       <use style="stroke:#000000;stroke-width:0.8;" x="484.332812" xlink:href="#md55a8b283c" y="254.814001"/>
      </g>
     </g>
     <g id="text_26">
      <!-- 25 -->
      <g transform="translate(491.332812 258.61322)scale(0.1 -0.1)">
       <use xlink:href="#DejaVuSans-50"/>
       <use x="63.623047" xlink:href="#DejaVuSans-53"/>
      </g>
     </g>
    </g>
    <g id="ytick_12">
     <g id="line2d_46">
      <g>
       <use style="stroke:#000000;stroke-width:0.8;" x="484.332812" xlink:href="#md55a8b283c" y="230.595681"/>
      </g>
     </g>
     <g id="text_27">
      <!-- 50 -->
      <g transform="translate(491.332812 234.3949)scale(0.1 -0.1)">
       <use xlink:href="#DejaVuSans-53"/>
       <use x="63.623047" xlink:href="#DejaVuSans-48"/>
      </g>
     </g>
    </g>
    <g id="ytick_13">
     <g id="line2d_47">
      <g>
       <use style="stroke:#000000;stroke-width:0.8;" x="484.332812" xlink:href="#md55a8b283c" y="206.37736"/>
      </g>
     </g>
     <g id="text_28">
      <!-- 75 -->
      <g transform="translate(491.332812 210.176579)scale(0.1 -0.1)">
       <use xlink:href="#DejaVuSans-55"/>
       <use x="63.623047" xlink:href="#DejaVuSans-53"/>
      </g>
     </g>
    </g>
    <g id="ytick_14">
     <g id="line2d_48">
      <g>
       <use style="stroke:#000000;stroke-width:0.8;" x="484.332812" xlink:href="#md55a8b283c" y="182.15904"/>
      </g>
     </g>
     <g id="text_29">
      <!-- 100 -->
      <g transform="translate(491.332812 185.958259)scale(0.1 -0.1)">
       <use xlink:href="#DejaVuSans-49"/>
       <use x="63.623047" xlink:href="#DejaVuSans-48"/>
       <use x="127.246094" xlink:href="#DejaVuSans-48"/>
      </g>
     </g>
    </g>
    <g id="ytick_15">
     <g id="line2d_49">
      <g>
       <use style="stroke:#000000;stroke-width:0.8;" x="484.332812" xlink:href="#md55a8b283c" y="157.94072"/>
      </g>
     </g>
     <g id="text_30">
      <!-- 125 -->
      <g transform="translate(491.332812 161.739938)scale(0.1 -0.1)">
       <use xlink:href="#DejaVuSans-49"/>
       <use x="63.623047" xlink:href="#DejaVuSans-50"/>
       <use x="127.246094" xlink:href="#DejaVuSans-53"/>
      </g>
     </g>
    </g>
    <g id="ytick_16">
     <g id="line2d_50">
      <g>
       <use style="stroke:#000000;stroke-width:0.8;" x="484.332812" xlink:href="#md55a8b283c" y="133.722399"/>
      </g>
     </g>
     <g id="text_31">
      <!-- 150 -->
      <g transform="translate(491.332812 137.521618)scale(0.1 -0.1)">
       <use xlink:href="#DejaVuSans-49"/>
       <use x="63.623047" xlink:href="#DejaVuSans-53"/>
       <use x="127.246094" xlink:href="#DejaVuSans-48"/>
      </g>
     </g>
    </g>
    <g id="ytick_17">
     <g id="line2d_51">
      <g>
       <use style="stroke:#000000;stroke-width:0.8;" x="484.332812" xlink:href="#md55a8b283c" y="109.504079"/>
      </g>
     </g>
     <g id="text_32">
      <!-- 175 -->
      <g transform="translate(491.332812 113.303297)scale(0.1 -0.1)">
       <use xlink:href="#DejaVuSans-49"/>
       <use x="63.623047" xlink:href="#DejaVuSans-55"/>
       <use x="127.246094" xlink:href="#DejaVuSans-53"/>
      </g>
     </g>
    </g>
    <g id="ytick_18">
     <g id="line2d_52">
      <g>
       <use style="stroke:#000000;stroke-width:0.8;" x="484.332812" xlink:href="#md55a8b283c" y="85.285758"/>
      </g>
     </g>
     <g id="text_33">
      <!-- 200 -->
      <g transform="translate(491.332812 89.084977)scale(0.1 -0.1)">
       <use xlink:href="#DejaVuSans-50"/>
       <use x="63.623047" xlink:href="#DejaVuSans-48"/>
       <use x="127.246094" xlink:href="#DejaVuSans-48"/>
      </g>
     </g>
    </g>
    <g id="ytick_19">
     <g id="line2d_53">
      <g>
       <use style="stroke:#000000;stroke-width:0.8;" x="484.332812" xlink:href="#md55a8b283c" y="61.067438"/>
      </g>
     </g>
     <g id="text_34">
      <!-- 225 -->
      <g transform="translate(491.332812 64.866656)scale(0.1 -0.1)">
       <use xlink:href="#DejaVuSans-50"/>
       <use x="63.623047" xlink:href="#DejaVuSans-50"/>
       <use x="127.246094" xlink:href="#DejaVuSans-53"/>
      </g>
     </g>
    </g>
    <g id="ytick_20">
     <g id="line2d_54">
      <g>
       <use style="stroke:#000000;stroke-width:0.8;" x="484.332812" xlink:href="#md55a8b283c" y="36.849117"/>
      </g>
     </g>
     <g id="text_35">
      <!-- 250 -->
      <g transform="translate(491.332812 40.648336)scale(0.1 -0.1)">
       <use xlink:href="#DejaVuSans-50"/>
       <use x="63.623047" xlink:href="#DejaVuSans-53"/>
       <use x="127.246094" xlink:href="#DejaVuSans-48"/>
      </g>
     </g>
    </g>
    <g id="text_36">
     <!-- Intensity [0-255] -->
     <defs>
      <path d="M 9.8125 72.90625 
L 19.671875 72.90625 
L 19.671875 0 
L 9.8125 0 
z
" id="DejaVuSans-73"/>
      <path d="M 54.890625 33.015625 
L 54.890625 0 
L 45.90625 0 
L 45.90625 32.71875 
Q 45.90625 40.484375 42.875 44.328125 
Q 39.84375 48.1875 33.796875 48.1875 
Q 26.515625 48.1875 22.3125 43.546875 
Q 18.109375 38.921875 18.109375 30.90625 
L 18.109375 0 
L 9.078125 0 
L 9.078125 54.6875 
L 18.109375 54.6875 
L 18.109375 46.1875 
Q 21.34375 51.125 25.703125 53.5625 
Q 30.078125 56 35.796875 56 
Q 45.21875 56 50.046875 50.171875 
Q 54.890625 44.34375 54.890625 33.015625 
z
" id="DejaVuSans-110"/>
      <path d="M 44.28125 53.078125 
L 44.28125 44.578125 
Q 40.484375 46.53125 36.375 47.5 
Q 32.28125 48.484375 27.875 48.484375 
Q 21.1875 48.484375 17.84375 46.4375 
Q 14.5 44.390625 14.5 40.28125 
Q 14.5 37.15625 16.890625 35.375 
Q 19.28125 33.59375 26.515625 31.984375 
L 29.59375 31.296875 
Q 39.15625 29.25 43.1875 25.515625 
Q 47.21875 21.78125 47.21875 15.09375 
Q 47.21875 7.46875 41.1875 3.015625 
Q 35.15625 -1.421875 24.609375 -1.421875 
Q 20.21875 -1.421875 15.453125 -0.5625 
Q 10.6875 0.296875 5.421875 2 
L 5.421875 11.28125 
Q 10.40625 8.6875 15.234375 7.390625 
Q 20.0625 6.109375 24.8125 6.109375 
Q 31.15625 6.109375 34.5625 8.28125 
Q 37.984375 10.453125 37.984375 14.40625 
Q 37.984375 18.0625 35.515625 20.015625 
Q 33.0625 21.96875 24.703125 23.78125 
L 21.578125 24.515625 
Q 13.234375 26.265625 9.515625 29.90625 
Q 5.8125 33.546875 5.8125 39.890625 
Q 5.8125 47.609375 11.28125 51.796875 
Q 16.75 56 26.8125 56 
Q 31.78125 56 36.171875 55.265625 
Q 40.578125 54.546875 44.28125 53.078125 
z
" id="DejaVuSans-115"/>
      <path d="M 32.171875 -5.078125 
Q 28.375 -14.84375 24.75 -17.8125 
Q 21.140625 -20.796875 15.09375 -20.796875 
L 7.90625 -20.796875 
L 7.90625 -13.28125 
L 13.1875 -13.28125 
Q 16.890625 -13.28125 18.9375 -11.515625 
Q 21 -9.765625 23.484375 -3.21875 
L 25.09375 0.875 
L 2.984375 54.6875 
L 12.5 54.6875 
L 29.59375 11.921875 
L 46.6875 54.6875 
L 56.203125 54.6875 
z
" id="DejaVuSans-121"/>
     </defs>
     <g style="fill:#d62728;" transform="translate(522.01875 197.300919)rotate(-90)scale(0.1 -0.1)">
      <use xlink:href="#DejaVuSans-73"/>
      <use x="29.492188" xlink:href="#DejaVuSans-110"/>
      <use x="92.871094" xlink:href="#DejaVuSans-116"/>
      <use x="132.080078" xlink:href="#DejaVuSans-101"/>
      <use x="193.603516" xlink:href="#DejaVuSans-110"/>
      <use x="256.982422" xlink:href="#DejaVuSans-115"/>
      <use x="309.082031" xlink:href="#DejaVuSans-105"/>
      <use x="336.865234" xlink:href="#DejaVuSans-116"/>
      <use x="376.074219" xlink:href="#DejaVuSans-121"/>
      <use x="435.253906" xlink:href="#DejaVuSans-32"/>
      <use x="467.041016" xlink:href="#DejaVuSans-91"/>
      <use x="506.054688" xlink:href="#DejaVuSans-48"/>
      <use x="569.677734" xlink:href="#DejaVuSans-45"/>
      <use x="605.761719" xlink:href="#DejaVuSans-50"/>
      <use x="669.384766" xlink:href="#DejaVuSans-53"/>
      <use x="733.007812" xlink:href="#DejaVuSans-53"/>
      <use x="796.630859" xlink:href="#DejaVuSans-93"/>
     </g>
    </g>
   </g>
   <g id="line2d_55">
    <path clip-path="url(#p4eb5fd5571)" d="M 77.878409 279.032322 
L 78.120603 279.032322 
L 78.225905 259.657665 
L 78.278556 259.657665 
L 78.278556 254.814001 
L 78.383857 254.814001 
L 79.089378 254.814001 
L 79.089378 249.970337 
L 79.19468 249.970337 
L 80.237166 249.970337 
L 80.237166 254.814001 
L 80.342468 254.814001 
L 80.753145 254.814001 
L 80.753145 259.657665 
L 80.858446 259.657665 
L 86.007697 259.657665 
L 86.007697 254.814001 
L 86.112999 254.814001 
L 87.060714 254.814001 
L 87.060714 249.970337 
L 87.166016 249.970337 
L 88.197972 249.970337 
L 88.197972 245.126673 
L 88.303273 245.126673 
L 89.240458 245.126673 
L 89.240458 240.283009 
L 89.34576 240.283009 
L 90.388246 240.283009 
L 90.388246 235.439345 
L 90.493548 235.439345 
L 91.778228 235.439345 
L 91.778228 230.595681 
L 91.88353 230.595681 
L 92.52587 230.595681 
L 92.52587 225.752017 
L 92.631172 225.752017 
L 93.357753 225.752017 
L 93.357753 220.908353 
L 93.463055 220.908353 
L 94.221227 220.908353 
L 94.221227 216.064689 
L 94.326528 216.064689 
L 95.09523 216.064689 
L 95.09523 211.221024 
L 95.200532 211.221024 
L 96.000825 211.221024 
L 96.000825 206.37736 
L 96.106126 206.37736 
L 96.853768 206.37736 
L 96.853768 201.533696 
L 96.95907 201.533696 
L 97.748832 201.533696 
L 97.748832 196.690032 
L 97.854134 196.690032 
L 98.612306 196.690032 
L 98.612306 191.846368 
L 98.717608 191.846368 
L 99.5179 191.846368 
L 99.5179 187.002704 
L 99.623202 187.002704 
L 100.370844 187.002704 
L 100.370844 182.15904 
L 100.476145 182.15904 
L 101.350149 182.15904 
L 101.350149 177.315376 
L 101.455451 177.315376 
L 102.287334 177.315376 
L 102.287334 177.315376 
L 102.287334 172.471712 
L 102.392636 172.471712 
L 103.182398 172.471712 
L 103.182398 167.628048 
L 103.2877 167.628048 
L 104.182764 167.628048 
L 104.182764 162.784384 
L 104.288065 162.784384 
L 105.899181 162.784384 
L 105.899181 157.94072 
L 106.004483 157.94072 
L 107.647188 157.94072 
L 107.647188 153.097055 
L 107.75249 153.097055 
L 108.689675 153.097055 
L 108.689675 148.253391 
L 108.794976 148.253391 
L 109.900644 148.253391 
L 109.900644 143.409727 
L 110.005946 143.409727 
L 111.111613 143.409727 
L 111.111613 138.566063 
L 111.216915 138.566063 
L 112.269931 138.566063 
L 112.269931 133.722399 
L 112.375233 133.722399 
L 113.43878 133.722399 
L 113.43878 128.878735 
L 113.544081 128.878735 
L 114.544447 128.878735 
L 114.544447 128.878735 
L 114.544447 124.035071 
L 114.649749 124.035071 
L 115.776477 124.035071 
L 115.776477 119.191407 
L 115.881778 119.191407 
L 116.703131 119.191407 
L 116.703131 114.347743 
L 116.808433 114.347743 
L 117.956221 114.347743 
L 117.956221 109.504079 
L 118.061522 109.504079 
L 119.662108 109.504079 
L 119.662108 104.660415 
L 119.767409 104.660415 
L 121.483826 104.660415 
L 121.483826 99.81675 
L 121.589128 99.81675 
L 123.316075 99.81675 
L 123.316075 94.973086 
L 123.421377 94.973086 
L 125.49582 94.973086 
L 125.49582 90.129422 
L 125.601121 90.129422 
L 125.611652 90.129422 
L 125.611652 94.973086 
L 125.716953 94.973086 
L 125.727483 94.973086 
L 125.727483 90.129422 
L 125.832785 90.129422 
L 125.874906 90.129422 
L 125.874906 94.973086 
L 125.969677 90.129422 
L 127.559732 90.129422 
L 127.559732 85.285758 
L 127.665034 90.129422 
L 127.696624 90.129422 
L 127.696624 85.285758 
L 127.801926 90.129422 
L 127.812456 90.129422 
L 127.812456 85.285758 
L 127.917758 85.285758 
L 127.928288 85.285758 
L 127.928288 90.129422 
L 128.03359 85.285758 
L 128.04412 85.285758 
L 128.04412 90.129422 
L 128.149422 85.285758 
L 130.223864 85.285758 
L 130.223864 80.442094 
L 130.329166 85.285758 
L 130.381817 85.285758 
L 130.381817 80.442094 
L 130.487118 85.285758 
L 130.497649 85.285758 
L 130.497649 80.442094 
L 130.60295 80.442094 
L 130.61348 80.442094 
L 130.61348 85.285758 
L 130.718782 85.285758 
L 130.729312 85.285758 
L 130.729312 80.442094 
L 130.834614 85.285758 
L 130.845144 85.285758 
L 130.845144 80.442094 
L 130.950446 80.442094 
L 131.003097 80.442094 
L 131.003097 85.285758 
L 131.108398 80.442094 
L 131.287411 80.442094 
L 131.287411 85.285758 
L 131.392713 80.442094 
L 186.602373 80.442094 
L 186.602373 75.59843 
L 186.707675 75.59843 
L 392.783023 75.59843 
L 392.783023 80.442094 
L 392.888325 75.59843 
L 392.898855 75.59843 
L 392.898855 80.442094 
L 393.004156 80.442094 
L 393.014687 80.442094 
L 393.014687 75.59843 
L 393.119988 75.59843 
L 393.130518 75.59843 
L 393.130518 80.442094 
L 393.23582 80.442094 
L 393.24635 80.442094 
L 393.24635 75.59843 
L 393.351652 75.59843 
L 393.362182 75.59843 
L 393.362182 80.442094 
L 393.467484 80.442094 
L 393.488544 80.442094 
L 393.488544 75.59843 
L 393.593846 75.59843 
L 393.604376 75.59843 
L 393.604376 80.442094 
L 393.709678 75.59843 
L 393.87816 75.59843 
L 393.87816 80.442094 
L 393.983462 75.59843 
L 407.462074 75.59843 
L 407.462074 80.442094 
L 407.567376 80.442094 
L 413.380028 80.442094 
L 413.380028 85.285758 
L 413.485329 80.442094 
L 413.49586 80.442094 
L 413.49586 85.285758 
L 413.601161 80.442094 
L 413.611691 80.442094 
L 413.611691 85.285758 
L 413.716993 85.285758 
L 413.727523 85.285758 
L 413.727523 80.442094 
L 413.832825 85.285758 
L 413.853885 85.285758 
L 413.853885 80.442094 
L 413.959187 85.285758 
L 413.969717 85.285758 
L 413.969717 80.442094 
L 414.075019 85.285758 
L 414.096079 85.285758 
L 414.096079 80.442094 
L 414.201381 85.285758 
L 421.1197 85.285758 
L 421.1197 90.129422 
L 421.225001 85.285758 
L 421.298712 85.285758 
L 421.298712 90.129422 
L 421.404014 90.129422 
L 421.414544 90.129422 
L 421.414544 85.285758 
L 421.519846 90.129422 
L 421.530376 90.129422 
L 421.530376 85.285758 
L 421.635678 85.285758 
L 421.646208 85.285758 
L 421.646208 90.129422 
L 421.75151 90.129422 
L 421.76204 90.129422 
L 421.76204 85.285758 
L 421.867341 90.129422 
L 421.877872 90.129422 
L 421.877872 85.285758 
L 421.983173 90.129422 
L 422.014764 90.129422 
L 422.014764 85.285758 
L 422.120065 90.129422 
L 422.141126 90.129422 
L 422.141126 85.285758 
L 422.235897 90.129422 
L 422.299078 90.129422 
L 422.299078 85.285758 
L 422.40438 90.129422 
L 422.41491 90.129422 
L 422.41491 85.285758 
L 422.520212 85.285758 
L 422.530742 85.285758 
L 422.530742 90.129422 
L 422.636044 90.129422 
L 425.784563 90.129422 
L 425.784563 94.973086 
L 425.889865 90.129422 
L 425.900395 90.129422 
L 425.900395 94.973086 
L 426.005697 90.129422 
L 426.016227 90.129422 
L 426.016227 94.973086 
L 426.121528 94.973086 
L 426.132059 94.973086 
L 426.132059 90.129422 
L 426.23736 90.129422 
L 426.268951 90.129422 
L 426.268951 94.973086 
L 426.374252 90.129422 
L 426.384783 90.129422 
L 426.384783 94.973086 
L 426.490084 94.973086 
L 426.500615 94.973086 
L 426.500615 90.129422 
L 426.605916 90.129422 
L 427.027123 90.129422 
L 427.027123 94.973086 
L 427.132424 94.973086 
L 427.142955 94.973086 
L 427.142955 90.129422 
L 427.248256 94.973086 
L 427.827415 94.973086 
L 427.827415 99.81675 
L 427.932717 99.81675 
L 430.544198 99.81675 
L 430.544198 104.660415 
L 430.6495 99.81675 
L 432.155314 99.81675 
L 432.155314 94.973086 
L 432.260615 94.973086 
L 432.271145 94.973086 
L 432.271145 99.81675 
L 432.376447 99.81675 
L 433.408403 99.81675 
L 433.408403 104.660415 
L 433.513705 104.660415 
L 434.029683 104.660415 
L 434.029683 99.81675 
L 434.134985 99.81675 
L 434.145515 99.81675 
L 434.145515 104.660415 
L 434.250817 99.81675 
L 434.45089 99.81675 
L 434.45089 104.660415 
L 434.556191 104.660415 
L 434.882627 104.660415 
L 434.882627 109.504079 
L 434.987928 109.504079 
L 434.998458 109.504079 
L 434.998458 104.660415 
L 435.10376 104.660415 
L 436.030415 104.660415 
L 436.030415 109.504079 
L 436.135716 104.660415 
L 436.651695 104.660415 
L 436.651695 109.504079 
L 436.756996 104.660415 
L 436.9676 104.660415 
L 436.9676 109.504079 
L 437.072901 104.660415 
L 437.093961 104.660415 
L 437.093961 109.504079 
L 437.199263 104.660415 
L 437.704711 104.660415 
L 437.704711 109.504079 
L 437.810013 104.660415 
L 437.820543 104.660415 
L 437.820543 109.504079 
L 437.925845 109.504079 
L 437.936375 109.504079 
L 437.936375 104.660415 
L 438.041676 104.660415 
L 438.652426 104.660415 
L 438.652426 109.504079 
L 438.757728 104.660415 
L 438.768258 104.660415 
L 438.768258 109.504079 
L 438.873559 104.660415 
L 439.56855 104.660415 
L 439.56855 109.504079 
L 439.673852 109.504079 
L 439.684382 109.504079 
L 439.684382 104.660415 
L 439.789684 104.660415 
L 439.800214 104.660415 
L 439.800214 109.504079 
L 439.905516 109.504079 
L 440.684748 109.504079 
L 440.684748 114.347743 
L 440.79005 109.504079 
L 440.81111 109.504079 
L 440.81111 114.347743 
L 440.916412 109.504079 
L 440.926942 109.504079 
L 440.926942 114.347743 
L 441.032243 114.347743 
L 441.042774 114.347743 
L 441.042774 109.504079 
L 441.148075 114.347743 
L 441.169136 114.347743 
L 441.169136 109.504079 
L 441.274437 114.347743 
L 441.284968 114.347743 
L 441.284968 109.504079 
L 441.390269 109.504079 
L 441.42186 109.504079 
L 441.42186 114.347743 
L 441.527161 109.504079 
L 443.443651 109.504079 
L 443.443651 114.347743 
L 443.548953 114.347743 
L 444.233414 114.347743 
L 444.233414 119.191407 
L 444.338716 119.191407 
L 444.454547 119.191407 
L 444.454547 124.035071 
L 444.559849 124.035071 
L 445.360142 124.035071 
L 445.360142 128.878735 
L 445.465443 128.878735 
L 445.581275 128.878735 
L 445.581275 133.722399 
L 445.686577 133.722399 
L 446.086723 133.722399 
L 446.086723 128.878735 
L 446.192025 128.878735 
L 447.013378 128.878735 
L 447.013378 133.722399 
L 447.11868 133.722399 
L 447.234511 133.722399 
L 447.297692 143.409727 
L 447.339813 143.409727 
L 447.350343 143.409727 
L 447.402994 153.097055 
L 447.455645 153.097055 
L 447.476705 153.097055 
L 447.476705 157.94072 
L 447.582007 157.94072 
L 447.78208 157.94072 
L 447.78208 162.784384 
L 447.887382 162.784384 
L 447.897912 162.784384 
L 447.982153 177.315376 
L 448.003213 177.315376 
L 448.076925 177.315376 
L 448.150636 187.002704 
L 448.182226 187.002704 
L 448.835096 187.002704 
L 448.908808 196.690032 
L 448.940398 196.690032 
L 448.993049 196.690032 
L 449.05623 206.37736 
L 449.098351 206.37736 
L 449.108881 206.37736 
L 449.193122 220.908353 
L 449.214182 220.908353 
L 449.235243 220.908353 
L 449.235243 225.752017 
L 449.340544 225.752017 
L 449.477437 225.752017 
L 449.477437 220.908353 
L 449.582738 220.908353 
L 449.593268 220.908353 
L 449.593268 216.064689 
L 449.69857 216.064689 
L 449.751221 216.064689 
L 449.824932 225.752017 
L 449.856523 225.752017 
L 449.867053 225.752017 
L 449.867053 220.908353 
L 449.951294 235.439345 
L 449.972354 230.595681 
L 449.982885 230.595681 
L 450.035535 240.283009 
L 450.088186 240.283009 
L 450.246139 240.283009 
L 450.34091 225.752017 
L 450.35144 225.752017 
L 450.361971 225.752017 
L 450.467272 216.064689 
L 450.762117 216.064689 
L 450.762117 211.221024 
L 450.856888 225.752017 
L 450.867419 225.752017 
L 450.9306 225.752017 
L 451.014841 240.283009 
L 451.035901 240.283009 
L 451.046431 240.283009 
L 451.141203 254.814001 
L 451.151733 249.970337 
L 451.162263 249.970337 
L 451.162263 254.814001 
L 451.267565 254.814001 
L 451.278095 254.814001 
L 451.351806 240.283009 
L 451.383397 245.126673 
L 451.436048 245.126673 
L 451.530819 230.595681 
L 451.541349 230.595681 
L 451.56241 230.595681 
L 451.56241 235.439345 
L 451.646651 225.752017 
L 451.667711 225.752017 
L 451.899375 225.752017 
L 451.899375 220.908353 
L 452.004676 220.908353 
L 452.015207 220.908353 
L 452.046797 230.595681 
L 452.120508 230.595681 
L 452.152099 230.595681 
L 452.257401 249.970337 
L 452.267931 249.970337 
L 452.299521 264.501329 
L 452.362702 245.126673 
L 452.373232 245.126673 
L 452.552245 245.126673 
L 452.552245 249.970337 
L 452.657547 249.970337 
L 452.678607 249.970337 
L 452.678607 245.126673 
L 452.783909 245.126673 
L 452.794439 245.126673 
L 452.84709 254.814001 
L 452.899741 254.814001 
L 452.973452 254.814001 
L 452.973452 249.970337 
L 453.078753 249.970337 
L 453.152465 249.970337 
L 453.247236 279.032322 
L 453.636852 279.032322 
L 453.678973 269.344994 
L 453.731624 279.032322 
L 453.815865 279.032322 
L 453.815865 274.188658 
L 453.931697 274.188658 
L 454.005408 254.814001 
L 454.036999 254.814001 
L 454.058059 254.814001 
L 454.13177 240.283009 
L 454.16336 240.283009 
L 454.173891 240.283009 
L 454.268662 259.657665 
L 454.279192 259.657665 
L 454.321313 259.657665 
L 454.426615 245.126673 
L 454.447675 245.126673 
L 454.468735 235.439345 
L 454.521386 254.814001 
L 454.552977 245.126673 
L 454.563507 245.126673 
L 454.626688 225.752017 
L 454.668808 225.752017 
L 454.689869 225.752017 
L 454.78464 201.533696 
L 454.795171 201.533696 
L 454.816231 201.533696 
L 454.868882 191.846368 
L 454.921532 191.846368 
L 455.532282 191.846368 
L 455.584933 182.15904 
L 455.637584 182.15904 
L 456.153562 182.15904 
L 456.195683 172.471712 
L 456.258864 172.471712 
L 456.269394 172.471712 
L 456.332575 162.784384 
L 456.374695 162.784384 
L 456.395756 162.784384 
L 456.395756 157.94072 
L 456.501057 157.94072 
L 456.68007 157.94072 
L 456.774842 177.315376 
L 456.785372 177.315376 
L 456.806432 177.315376 
L 456.901204 191.846368 
L 456.911734 191.846368 
L 457.385591 191.846368 
L 457.469833 211.221024 
L 457.490893 211.221024 
L 457.501423 211.221024 
L 457.501423 216.064689 
L 457.606725 216.064689 
L 457.722557 216.064689 
L 457.796268 201.533696 
L 457.827858 201.533696 
L 457.838388 201.533696 
L 457.9121 191.846368 
L 457.94369 191.846368 
L 458.312246 191.846368 
L 458.417548 206.37736 
L 458.428078 206.37736 
L 458.533379 245.126673 
L 458.55444 245.126673 
L 458.617621 254.814001 
L 458.659741 254.814001 
L 458.754513 254.814001 
L 458.807164 245.126673 
L 458.859815 245.126673 
L 458.870345 245.126673 
L 458.933526 254.814001 
L 458.975646 254.814001 
L 459.007237 254.814001 
L 459.102008 274.188658 
L 459.112539 274.188658 
L 459.881241 274.188658 
L 459.881241 279.032322 
L 459.976012 249.970337 
L 459.986542 249.970337 
L 459.997072 249.970337 
L 460.028663 235.439345 
L 460.102374 235.439345 
L 460.123435 235.439345 
L 460.218206 216.064689 
L 460.228736 216.064689 
L 460.628882 216.064689 
L 460.702594 230.595681 
L 460.734184 230.595681 
L 460.765774 230.595681 
L 460.765774 235.439345 
L 460.871076 235.439345 
L 461.08168 235.439345 
L 461.1238 249.970337 
L 461.186981 249.970337 
L 461.208042 249.970337 
L 461.208042 254.814001 
L 461.313343 249.970337 
L 461.429175 249.970337 
L 461.429175 254.814001 
L 461.534477 254.814001 
L 461.618718 254.814001 
L 461.618718 259.657665 
L 461.72402 254.814001 
L 461.892502 254.814001 
L 461.892502 249.970337 
L 461.997804 249.970337 
L 462.092575 249.970337 
L 462.166287 235.439345 
L 462.197877 235.439345 
L 462.440071 235.439345 
L 462.534842 254.814001 
L 462.545373 254.814001 
L 462.566433 254.814001 
L 462.619084 264.501329 
L 462.671735 264.501329 
L 462.724385 264.501329 
L 462.766506 274.188658 
L 462.777036 274.188658 
L 462.956049 274.188658 
L 462.99817 249.970337 
L 463.061351 249.970337 
L 463.071881 249.970337 
L 463.166652 240.283009 
L 463.177183 240.283009 
L 463.345665 240.283009 
L 463.345665 245.126673 
L 463.450967 240.283009 
L 463.545738 240.283009 
L 463.65104 254.814001 
L 463.6721 254.814001 
L 463.756342 274.188658 
L 463.777402 269.344994 
L 463.798462 269.344994 
L 463.819523 279.032322 
L 464.90413 279.032322 
L 464.956781 259.657665 
L 464.977841 259.657665 
" style="fill:none;stroke:#d62728;stroke-linecap:square;stroke-width:1.5;"/>
   </g>
   <g id="patch_7">
    <path d="M 58.523438 288.71965 
L 58.523438 22.318125 
" style="fill:none;stroke:#000000;stroke-linecap:square;stroke-linejoin:miter;stroke-width:0.8;"/>
   </g>
   <g id="patch_8">
    <path d="M 484.332812 288.71965 
L 484.332812 22.318125 
" style="fill:none;stroke:#000000;stroke-linecap:square;stroke-linejoin:miter;stroke-width:0.8;"/>
   </g>
   <g id="patch_9">
    <path d="M 58.523438 288.71965 
L 484.332813 288.71965 
" style="fill:none;stroke:#000000;stroke-linecap:square;stroke-linejoin:miter;stroke-width:0.8;"/>
   </g>
   <g id="patch_10">
    <path d="M 58.523438 22.318125 
L 484.332813 22.318125 
" style="fill:none;stroke:#000000;stroke-linecap:square;stroke-linejoin:miter;stroke-width:0.8;"/>
   </g>
   <g id="legend_1">
    <g id="patch_11">
     <path d="M 528.91375 54.674375 
L 604.43875 54.674375 
Q 606.43875 54.674375 606.43875 52.674375 
L 606.43875 24.318125 
Q 606.43875 22.318125 604.43875 22.318125 
L 528.91375 22.318125 
Q 526.91375 22.318125 526.91375 24.318125 
L 526.91375 52.674375 
Q 526.91375 54.674375 528.91375 54.674375 
z
" style="fill:#ffffff;opacity:0.8;stroke:#cccccc;stroke-linejoin:miter;"/>
    </g>
    <g id="line2d_56">
     <path d="M 530.91375 30.416562 
L 550.91375 30.416562 
" style="fill:none;stroke:#1f77b4;stroke-linecap:square;stroke-width:1.5;"/>
    </g>
    <g id="line2d_57"/>
    <g id="text_37">
     <!-- Error -->
     <g transform="translate(558.91375 33.916562)scale(0.1 -0.1)">
      <use xlink:href="#DejaVuSans-69"/>
      <use x="63.183594" xlink:href="#DejaVuSans-114"/>
      <use x="102.546875" xlink:href="#DejaVuSans-114"/>
      <use x="141.410156" xlink:href="#DejaVuSans-111"/>
      <use x="202.591797" xlink:href="#DejaVuSans-114"/>
     </g>
    </g>
    <g id="line2d_58">
     <path d="M 530.91375 45.094687 
L 550.91375 45.094687 
" style="fill:none;stroke:#d62728;stroke-linecap:square;stroke-width:1.5;"/>
    </g>
    <g id="line2d_59"/>
    <g id="text_38">
     <!-- Intensity -->
     <g transform="translate(558.91375 48.594687)scale(0.1 -0.1)">
      <use xlink:href="#DejaVuSans-73"/>
      <use x="29.492188" xlink:href="#DejaVuSans-110"/>
      <use x="92.871094" xlink:href="#DejaVuSans-116"/>
      <use x="132.080078" xlink:href="#DejaVuSans-101"/>
      <use x="193.603516" xlink:href="#DejaVuSans-110"/>
      <use x="256.982422" xlink:href="#DejaVuSans-115"/>
      <use x="309.082031" xlink:href="#DejaVuSans-105"/>
      <use x="336.865234" xlink:href="#DejaVuSans-116"/>
      <use x="376.074219" xlink:href="#DejaVuSans-121"/>
     </g>
    </g>
   </g>
  </g>
 </g>
 <defs>
  <clipPath id="p4eb5fd5571">
   <rect height="266.401525" width="425.809375" x="58.523438" y="22.318125"/>
  </clipPath>
 </defs>
</svg>
