<?xml version="1.0" encoding="utf-8" standalone="no"?>
<!DOCTYPE svg PUBLIC "-//W3C//DTD SVG 1.1//EN"
  "http://www.w3.org/Graphics/SVG/1.1/DTD/svg11.dtd">
<!-- Created with matplotlib (https://matplotlib.org/) -->
<svg height="347.459746pt" version="1.1" viewBox="0 0 613.63875 347.459746" width="613.63875pt" xmlns="http://www.w3.org/2000/svg" xmlns:xlink="http://www.w3.org/1999/xlink">
 <defs>
  <style type="text/css">
*{stroke-linecap:butt;stroke-linejoin:round;}
  </style>
 </defs>
 <g id="figure_1">
  <g id="patch_1">
   <path d="M 0 347.459746 
L 613.63875 347.459746 
L 613.63875 0 
L 0 0 
z
" style="fill:#ffffff;"/>
  </g>
  <g id="axes_1">
   <g id="patch_2">
    <path d="M 58.523438 288.71965 
L 484.332812 288.71965 
L 484.332812 22.318125 
L 58.523438 22.318125 
z
" style="fill:#ffffff;"/>
   </g>
   <g id="matplotlib.axis_1">
    <g id="xtick_1">
     <g id="line2d_1">
      <path clip-path="url(#pa1ab16e35c)" d="M 94.423805 288.71965 
L 94.423805 22.318125 
" style="fill:none;stroke:#b0b0b0;stroke-linecap:square;stroke-width:0.8;"/>
     </g>
     <g id="line2d_2">
      <defs>
       <path d="M 0 0 
L 0 3.5 
" id="m90fb2fd05a" style="stroke:#000000;stroke-width:0.8;"/>
      </defs>
      <g>
       <use style="stroke:#000000;stroke-width:0.8;" x="94.423805" xlink:href="#m90fb2fd05a" y="288.71965"/>
      </g>
     </g>
     <g id="text_1">
      <!-- 05-17 21 -->
      <defs>
       <path d="M 31.78125 66.40625 
Q 24.171875 66.40625 20.328125 58.90625 
Q 16.5 51.421875 16.5 36.375 
Q 16.5 21.390625 20.328125 13.890625 
Q 24.171875 6.390625 31.78125 6.390625 
Q 39.453125 6.390625 43.28125 13.890625 
Q 47.125 21.390625 47.125 36.375 
Q 47.125 51.421875 43.28125 58.90625 
Q 39.453125 66.40625 31.78125 66.40625 
z
M 31.78125 74.21875 
Q 44.046875 74.21875 50.515625 64.515625 
Q 56.984375 54.828125 56.984375 36.375 
Q 56.984375 17.96875 50.515625 8.265625 
Q 44.046875 -1.421875 31.78125 -1.421875 
Q 19.53125 -1.421875 13.0625 8.265625 
Q 6.59375 17.96875 6.59375 36.375 
Q 6.59375 54.828125 13.0625 64.515625 
Q 19.53125 74.21875 31.78125 74.21875 
z
" id="DejaVuSans-48"/>
       <path d="M 10.796875 72.90625 
L 49.515625 72.90625 
L 49.515625 64.59375 
L 19.828125 64.59375 
L 19.828125 46.734375 
Q 21.96875 47.46875 24.109375 47.828125 
Q 26.265625 48.1875 28.421875 48.1875 
Q 40.625 48.1875 47.75 41.5 
Q 54.890625 34.8125 54.890625 23.390625 
Q 54.890625 11.625 47.5625 5.09375 
Q 40.234375 -1.421875 26.90625 -1.421875 
Q 22.3125 -1.421875 17.546875 -0.640625 
Q 12.796875 0.140625 7.71875 1.703125 
L 7.71875 11.625 
Q 12.109375 9.234375 16.796875 8.0625 
Q 21.484375 6.890625 26.703125 6.890625 
Q 35.15625 6.890625 40.078125 11.328125 
Q 45.015625 15.765625 45.015625 23.390625 
Q 45.015625 31 40.078125 35.4375 
Q 35.15625 39.890625 26.703125 39.890625 
Q 22.75 39.890625 18.8125 39.015625 
Q 14.890625 38.140625 10.796875 36.28125 
z
" id="DejaVuSans-53"/>
       <path d="M 4.890625 31.390625 
L 31.203125 31.390625 
L 31.203125 23.390625 
L 4.890625 23.390625 
z
" id="DejaVuSans-45"/>
       <path d="M 12.40625 8.296875 
L 28.515625 8.296875 
L 28.515625 63.921875 
L 10.984375 60.40625 
L 10.984375 69.390625 
L 28.421875 72.90625 
L 38.28125 72.90625 
L 38.28125 8.296875 
L 54.390625 8.296875 
L 54.390625 0 
L 12.40625 0 
z
" id="DejaVuSans-49"/>
       <path d="M 8.203125 72.90625 
L 55.078125 72.90625 
L 55.078125 68.703125 
L 28.609375 0 
L 18.3125 0 
L 43.21875 64.59375 
L 8.203125 64.59375 
z
" id="DejaVuSans-55"/>
       <path id="DejaVuSans-32"/>
       <path d="M 19.1875 8.296875 
L 53.609375 8.296875 
L 53.609375 0 
L 7.328125 0 
L 7.328125 8.296875 
Q 12.9375 14.109375 22.625 23.890625 
Q 32.328125 33.6875 34.8125 36.53125 
Q 39.546875 41.84375 41.421875 45.53125 
Q 43.3125 49.21875 43.3125 52.78125 
Q 43.3125 58.59375 39.234375 62.25 
Q 35.15625 65.921875 28.609375 65.921875 
Q 23.96875 65.921875 18.8125 64.3125 
Q 13.671875 62.703125 7.8125 59.421875 
L 7.8125 69.390625 
Q 13.765625 71.78125 18.9375 73 
Q 24.125 74.21875 28.421875 74.21875 
Q 39.75 74.21875 46.484375 68.546875 
Q 53.21875 62.890625 53.21875 53.421875 
Q 53.21875 48.921875 51.53125 44.890625 
Q 49.859375 40.875 45.40625 35.40625 
Q 44.1875 33.984375 37.640625 27.21875 
Q 31.109375 20.453125 19.1875 8.296875 
z
" id="DejaVuSans-50"/>
      </defs>
      <g transform="translate(54.446648 324.780559)rotate(-30)scale(0.1 -0.1)">
       <use xlink:href="#DejaVuSans-48"/>
       <use x="63.623047" xlink:href="#DejaVuSans-53"/>
       <use x="127.246094" xlink:href="#DejaVuSans-45"/>
       <use x="163.330078" xlink:href="#DejaVuSans-49"/>
       <use x="226.953125" xlink:href="#DejaVuSans-55"/>
       <use x="290.576172" xlink:href="#DejaVuSans-32"/>
       <use x="322.363281" xlink:href="#DejaVuSans-50"/>
       <use x="385.986328" xlink:href="#DejaVuSans-49"/>
      </g>
     </g>
    </g>
    <g id="xtick_2">
     <g id="line2d_3">
      <path clip-path="url(#pa1ab16e35c)" d="M 133.430634 288.71965 
L 133.430634 22.318125 
" style="fill:none;stroke:#b0b0b0;stroke-linecap:square;stroke-width:0.8;"/>
     </g>
     <g id="line2d_4">
      <g>
       <use style="stroke:#000000;stroke-width:0.8;" x="133.430634" xlink:href="#m90fb2fd05a" y="288.71965"/>
      </g>
     </g>
     <g id="text_2">
      <!-- 05-17 22 -->
      <g transform="translate(93.453476 324.780559)rotate(-30)scale(0.1 -0.1)">
       <use xlink:href="#DejaVuSans-48"/>
       <use x="63.623047" xlink:href="#DejaVuSans-53"/>
       <use x="127.246094" xlink:href="#DejaVuSans-45"/>
       <use x="163.330078" xlink:href="#DejaVuSans-49"/>
       <use x="226.953125" xlink:href="#DejaVuSans-55"/>
       <use x="290.576172" xlink:href="#DejaVuSans-32"/>
       <use x="322.363281" xlink:href="#DejaVuSans-50"/>
       <use x="385.986328" xlink:href="#DejaVuSans-50"/>
      </g>
     </g>
    </g>
    <g id="xtick_3">
     <g id="line2d_5">
      <path clip-path="url(#pa1ab16e35c)" d="M 172.437462 288.71965 
L 172.437462 22.318125 
" style="fill:none;stroke:#b0b0b0;stroke-linecap:square;stroke-width:0.8;"/>
     </g>
     <g id="line2d_6">
      <g>
       <use style="stroke:#000000;stroke-width:0.8;" x="172.437462" xlink:href="#m90fb2fd05a" y="288.71965"/>
      </g>
     </g>
     <g id="text_3">
      <!-- 05-17 23 -->
      <defs>
       <path d="M 40.578125 39.3125 
Q 47.65625 37.796875 51.625 33 
Q 55.609375 28.21875 55.609375 21.1875 
Q 55.609375 10.40625 48.1875 4.484375 
Q 40.765625 -1.421875 27.09375 -1.421875 
Q 22.515625 -1.421875 17.65625 -0.515625 
Q 12.796875 0.390625 7.625 2.203125 
L 7.625 11.71875 
Q 11.71875 9.328125 16.59375 8.109375 
Q 21.484375 6.890625 26.8125 6.890625 
Q 36.078125 6.890625 40.9375 10.546875 
Q 45.796875 14.203125 45.796875 21.1875 
Q 45.796875 27.640625 41.28125 31.265625 
Q 36.765625 34.90625 28.71875 34.90625 
L 20.21875 34.90625 
L 20.21875 43.015625 
L 29.109375 43.015625 
Q 36.375 43.015625 40.234375 45.921875 
Q 44.09375 48.828125 44.09375 54.296875 
Q 44.09375 59.90625 40.109375 62.90625 
Q 36.140625 65.921875 28.71875 65.921875 
Q 24.65625 65.921875 20.015625 65.03125 
Q 15.375 64.15625 9.8125 62.3125 
L 9.8125 71.09375 
Q 15.4375 72.65625 20.34375 73.4375 
Q 25.25 74.21875 29.59375 74.21875 
Q 40.828125 74.21875 47.359375 69.109375 
Q 53.90625 64.015625 53.90625 55.328125 
Q 53.90625 49.265625 50.4375 45.09375 
Q 46.96875 40.921875 40.578125 39.3125 
z
" id="DejaVuSans-51"/>
      </defs>
      <g transform="translate(132.460305 324.780559)rotate(-30)scale(0.1 -0.1)">
       <use xlink:href="#DejaVuSans-48"/>
       <use x="63.623047" xlink:href="#DejaVuSans-53"/>
       <use x="127.246094" xlink:href="#DejaVuSans-45"/>
       <use x="163.330078" xlink:href="#DejaVuSans-49"/>
       <use x="226.953125" xlink:href="#DejaVuSans-55"/>
       <use x="290.576172" xlink:href="#DejaVuSans-32"/>
       <use x="322.363281" xlink:href="#DejaVuSans-50"/>
       <use x="385.986328" xlink:href="#DejaVuSans-51"/>
      </g>
     </g>
    </g>
    <g id="xtick_4">
     <g id="line2d_7">
      <path clip-path="url(#pa1ab16e35c)" d="M 211.444291 288.71965 
L 211.444291 22.318125 
" style="fill:none;stroke:#b0b0b0;stroke-linecap:square;stroke-width:0.8;"/>
     </g>
     <g id="line2d_8">
      <g>
       <use style="stroke:#000000;stroke-width:0.8;" x="211.444291" xlink:href="#m90fb2fd05a" y="288.71965"/>
      </g>
     </g>
     <g id="text_4">
      <!-- 05-18 00 -->
      <defs>
       <path d="M 31.78125 34.625 
Q 24.75 34.625 20.71875 30.859375 
Q 16.703125 27.09375 16.703125 20.515625 
Q 16.703125 13.921875 20.71875 10.15625 
Q 24.75 6.390625 31.78125 6.390625 
Q 38.8125 6.390625 42.859375 10.171875 
Q 46.921875 13.96875 46.921875 20.515625 
Q 46.921875 27.09375 42.890625 30.859375 
Q 38.875 34.625 31.78125 34.625 
z
M 21.921875 38.8125 
Q 15.578125 40.375 12.03125 44.71875 
Q 8.5 49.078125 8.5 55.328125 
Q 8.5 64.0625 14.71875 69.140625 
Q 20.953125 74.21875 31.78125 74.21875 
Q 42.671875 74.21875 48.875 69.140625 
Q 55.078125 64.0625 55.078125 55.328125 
Q 55.078125 49.078125 51.53125 44.71875 
Q 48 40.375 41.703125 38.8125 
Q 48.828125 37.15625 52.796875 32.3125 
Q 56.78125 27.484375 56.78125 20.515625 
Q 56.78125 9.90625 50.3125 4.234375 
Q 43.84375 -1.421875 31.78125 -1.421875 
Q 19.734375 -1.421875 13.25 4.234375 
Q 6.78125 9.90625 6.78125 20.515625 
Q 6.78125 27.484375 10.78125 32.3125 
Q 14.796875 37.15625 21.921875 38.8125 
z
M 18.3125 54.390625 
Q 18.3125 48.734375 21.84375 45.5625 
Q 25.390625 42.390625 31.78125 42.390625 
Q 38.140625 42.390625 41.71875 45.5625 
Q 45.3125 48.734375 45.3125 54.390625 
Q 45.3125 60.0625 41.71875 63.234375 
Q 38.140625 66.40625 31.78125 66.40625 
Q 25.390625 66.40625 21.84375 63.234375 
Q 18.3125 60.0625 18.3125 54.390625 
z
" id="DejaVuSans-56"/>
      </defs>
      <g transform="translate(171.467133 324.780559)rotate(-30)scale(0.1 -0.1)">
       <use xlink:href="#DejaVuSans-48"/>
       <use x="63.623047" xlink:href="#DejaVuSans-53"/>
       <use x="127.246094" xlink:href="#DejaVuSans-45"/>
       <use x="163.330078" xlink:href="#DejaVuSans-49"/>
       <use x="226.953125" xlink:href="#DejaVuSans-56"/>
       <use x="290.576172" xlink:href="#DejaVuSans-32"/>
       <use x="322.363281" xlink:href="#DejaVuSans-48"/>
       <use x="385.986328" xlink:href="#DejaVuSans-48"/>
      </g>
     </g>
    </g>
    <g id="xtick_5">
     <g id="line2d_9">
      <path clip-path="url(#pa1ab16e35c)" d="M 250.451119 288.71965 
L 250.451119 22.318125 
" style="fill:none;stroke:#b0b0b0;stroke-linecap:square;stroke-width:0.8;"/>
     </g>
     <g id="line2d_10">
      <g>
       <use style="stroke:#000000;stroke-width:0.8;" x="250.451119" xlink:href="#m90fb2fd05a" y="288.71965"/>
      </g>
     </g>
     <g id="text_5">
      <!-- 05-18 01 -->
      <g transform="translate(210.473962 324.780559)rotate(-30)scale(0.1 -0.1)">
       <use xlink:href="#DejaVuSans-48"/>
       <use x="63.623047" xlink:href="#DejaVuSans-53"/>
       <use x="127.246094" xlink:href="#DejaVuSans-45"/>
       <use x="163.330078" xlink:href="#DejaVuSans-49"/>
       <use x="226.953125" xlink:href="#DejaVuSans-56"/>
       <use x="290.576172" xlink:href="#DejaVuSans-32"/>
       <use x="322.363281" xlink:href="#DejaVuSans-48"/>
       <use x="385.986328" xlink:href="#DejaVuSans-49"/>
      </g>
     </g>
    </g>
    <g id="xtick_6">
     <g id="line2d_11">
      <path clip-path="url(#pa1ab16e35c)" d="M 289.457948 288.71965 
L 289.457948 22.318125 
" style="fill:none;stroke:#b0b0b0;stroke-linecap:square;stroke-width:0.8;"/>
     </g>
     <g id="line2d_12">
      <g>
       <use style="stroke:#000000;stroke-width:0.8;" x="289.457948" xlink:href="#m90fb2fd05a" y="288.71965"/>
      </g>
     </g>
     <g id="text_6">
      <!-- 05-18 02 -->
      <g transform="translate(249.48079 324.780559)rotate(-30)scale(0.1 -0.1)">
       <use xlink:href="#DejaVuSans-48"/>
       <use x="63.623047" xlink:href="#DejaVuSans-53"/>
       <use x="127.246094" xlink:href="#DejaVuSans-45"/>
       <use x="163.330078" xlink:href="#DejaVuSans-49"/>
       <use x="226.953125" xlink:href="#DejaVuSans-56"/>
       <use x="290.576172" xlink:href="#DejaVuSans-32"/>
       <use x="322.363281" xlink:href="#DejaVuSans-48"/>
       <use x="385.986328" xlink:href="#DejaVuSans-50"/>
      </g>
     </g>
    </g>
    <g id="xtick_7">
     <g id="line2d_13">
      <path clip-path="url(#pa1ab16e35c)" d="M 328.464776 288.71965 
L 328.464776 22.318125 
" style="fill:none;stroke:#b0b0b0;stroke-linecap:square;stroke-width:0.8;"/>
     </g>
     <g id="line2d_14">
      <g>
       <use style="stroke:#000000;stroke-width:0.8;" x="328.464776" xlink:href="#m90fb2fd05a" y="288.71965"/>
      </g>
     </g>
     <g id="text_7">
      <!-- 05-18 03 -->
      <g transform="translate(288.487619 324.780559)rotate(-30)scale(0.1 -0.1)">
       <use xlink:href="#DejaVuSans-48"/>
       <use x="63.623047" xlink:href="#DejaVuSans-53"/>
       <use x="127.246094" xlink:href="#DejaVuSans-45"/>
       <use x="163.330078" xlink:href="#DejaVuSans-49"/>
       <use x="226.953125" xlink:href="#DejaVuSans-56"/>
       <use x="290.576172" xlink:href="#DejaVuSans-32"/>
       <use x="322.363281" xlink:href="#DejaVuSans-48"/>
       <use x="385.986328" xlink:href="#DejaVuSans-51"/>
      </g>
     </g>
    </g>
    <g id="xtick_8">
     <g id="line2d_15">
      <path clip-path="url(#pa1ab16e35c)" d="M 367.471605 288.71965 
L 367.471605 22.318125 
" style="fill:none;stroke:#b0b0b0;stroke-linecap:square;stroke-width:0.8;"/>
     </g>
     <g id="line2d_16">
      <g>
       <use style="stroke:#000000;stroke-width:0.8;" x="367.471605" xlink:href="#m90fb2fd05a" y="288.71965"/>
      </g>
     </g>
     <g id="text_8">
      <!-- 05-18 04 -->
      <defs>
       <path d="M 37.796875 64.3125 
L 12.890625 25.390625 
L 37.796875 25.390625 
z
M 35.203125 72.90625 
L 47.609375 72.90625 
L 47.609375 25.390625 
L 58.015625 25.390625 
L 58.015625 17.1875 
L 47.609375 17.1875 
L 47.609375 0 
L 37.796875 0 
L 37.796875 17.1875 
L 4.890625 17.1875 
L 4.890625 26.703125 
z
" id="DejaVuSans-52"/>
      </defs>
      <g transform="translate(327.494447 324.780559)rotate(-30)scale(0.1 -0.1)">
       <use xlink:href="#DejaVuSans-48"/>
       <use x="63.623047" xlink:href="#DejaVuSans-53"/>
       <use x="127.246094" xlink:href="#DejaVuSans-45"/>
       <use x="163.330078" xlink:href="#DejaVuSans-49"/>
       <use x="226.953125" xlink:href="#DejaVuSans-56"/>
       <use x="290.576172" xlink:href="#DejaVuSans-32"/>
       <use x="322.363281" xlink:href="#DejaVuSans-48"/>
       <use x="385.986328" xlink:href="#DejaVuSans-52"/>
      </g>
     </g>
    </g>
    <g id="xtick_9">
     <g id="line2d_17">
      <path clip-path="url(#pa1ab16e35c)" d="M 406.478433 288.71965 
L 406.478433 22.318125 
" style="fill:none;stroke:#b0b0b0;stroke-linecap:square;stroke-width:0.8;"/>
     </g>
     <g id="line2d_18">
      <g>
       <use style="stroke:#000000;stroke-width:0.8;" x="406.478433" xlink:href="#m90fb2fd05a" y="288.71965"/>
      </g>
     </g>
     <g id="text_9">
      <!-- 05-18 05 -->
      <g transform="translate(366.501276 324.780559)rotate(-30)scale(0.1 -0.1)">
       <use xlink:href="#DejaVuSans-48"/>
       <use x="63.623047" xlink:href="#DejaVuSans-53"/>
       <use x="127.246094" xlink:href="#DejaVuSans-45"/>
       <use x="163.330078" xlink:href="#DejaVuSans-49"/>
       <use x="226.953125" xlink:href="#DejaVuSans-56"/>
       <use x="290.576172" xlink:href="#DejaVuSans-32"/>
       <use x="322.363281" xlink:href="#DejaVuSans-48"/>
       <use x="385.986328" xlink:href="#DejaVuSans-53"/>
      </g>
     </g>
    </g>
    <g id="xtick_10">
     <g id="line2d_19">
      <path clip-path="url(#pa1ab16e35c)" d="M 445.485262 288.71965 
L 445.485262 22.318125 
" style="fill:none;stroke:#b0b0b0;stroke-linecap:square;stroke-width:0.8;"/>
     </g>
     <g id="line2d_20">
      <g>
       <use style="stroke:#000000;stroke-width:0.8;" x="445.485262" xlink:href="#m90fb2fd05a" y="288.71965"/>
      </g>
     </g>
     <g id="text_10">
      <!-- 05-18 06 -->
      <defs>
       <path d="M 33.015625 40.375 
Q 26.375 40.375 22.484375 35.828125 
Q 18.609375 31.296875 18.609375 23.390625 
Q 18.609375 15.53125 22.484375 10.953125 
Q 26.375 6.390625 33.015625 6.390625 
Q 39.65625 6.390625 43.53125 10.953125 
Q 47.40625 15.53125 47.40625 23.390625 
Q 47.40625 31.296875 43.53125 35.828125 
Q 39.65625 40.375 33.015625 40.375 
z
M 52.59375 71.296875 
L 52.59375 62.3125 
Q 48.875 64.0625 45.09375 64.984375 
Q 41.3125 65.921875 37.59375 65.921875 
Q 27.828125 65.921875 22.671875 59.328125 
Q 17.53125 52.734375 16.796875 39.40625 
Q 19.671875 43.65625 24.015625 45.921875 
Q 28.375 48.1875 33.59375 48.1875 
Q 44.578125 48.1875 50.953125 41.515625 
Q 57.328125 34.859375 57.328125 23.390625 
Q 57.328125 12.15625 50.6875 5.359375 
Q 44.046875 -1.421875 33.015625 -1.421875 
Q 20.359375 -1.421875 13.671875 8.265625 
Q 6.984375 17.96875 6.984375 36.375 
Q 6.984375 53.65625 15.1875 63.9375 
Q 23.390625 74.21875 37.203125 74.21875 
Q 40.921875 74.21875 44.703125 73.484375 
Q 48.484375 72.75 52.59375 71.296875 
z
" id="DejaVuSans-54"/>
      </defs>
      <g transform="translate(405.508104 324.780559)rotate(-30)scale(0.1 -0.1)">
       <use xlink:href="#DejaVuSans-48"/>
       <use x="63.623047" xlink:href="#DejaVuSans-53"/>
       <use x="127.246094" xlink:href="#DejaVuSans-45"/>
       <use x="163.330078" xlink:href="#DejaVuSans-49"/>
       <use x="226.953125" xlink:href="#DejaVuSans-56"/>
       <use x="290.576172" xlink:href="#DejaVuSans-32"/>
       <use x="322.363281" xlink:href="#DejaVuSans-48"/>
       <use x="385.986328" xlink:href="#DejaVuSans-54"/>
      </g>
     </g>
    </g>
    <g id="text_11">
     <!-- time [MM-dd hh] -->
     <defs>
      <path d="M 18.3125 70.21875 
L 18.3125 54.6875 
L 36.8125 54.6875 
L 36.8125 47.703125 
L 18.3125 47.703125 
L 18.3125 18.015625 
Q 18.3125 11.328125 20.140625 9.421875 
Q 21.96875 7.515625 27.59375 7.515625 
L 36.8125 7.515625 
L 36.8125 0 
L 27.59375 0 
Q 17.1875 0 13.234375 3.875 
Q 9.28125 7.765625 9.28125 18.015625 
L 9.28125 47.703125 
L 2.6875 47.703125 
L 2.6875 54.6875 
L 9.28125 54.6875 
L 9.28125 70.21875 
z
" id="DejaVuSans-116"/>
      <path d="M 9.421875 54.6875 
L 18.40625 54.6875 
L 18.40625 0 
L 9.421875 0 
z
M 9.421875 75.984375 
L 18.40625 75.984375 
L 18.40625 64.59375 
L 9.421875 64.59375 
z
" id="DejaVuSans-105"/>
      <path d="M 52 44.1875 
Q 55.375 50.25 60.0625 53.125 
Q 64.75 56 71.09375 56 
Q 79.640625 56 84.28125 50.015625 
Q 88.921875 44.046875 88.921875 33.015625 
L 88.921875 0 
L 79.890625 0 
L 79.890625 32.71875 
Q 79.890625 40.578125 77.09375 44.375 
Q 74.3125 48.1875 68.609375 48.1875 
Q 61.625 48.1875 57.5625 43.546875 
Q 53.515625 38.921875 53.515625 30.90625 
L 53.515625 0 
L 44.484375 0 
L 44.484375 32.71875 
Q 44.484375 40.625 41.703125 44.40625 
Q 38.921875 48.1875 33.109375 48.1875 
Q 26.21875 48.1875 22.15625 43.53125 
Q 18.109375 38.875 18.109375 30.90625 
L 18.109375 0 
L 9.078125 0 
L 9.078125 54.6875 
L 18.109375 54.6875 
L 18.109375 46.1875 
Q 21.1875 51.21875 25.484375 53.609375 
Q 29.78125 56 35.6875 56 
Q 41.65625 56 45.828125 52.96875 
Q 50 49.953125 52 44.1875 
z
" id="DejaVuSans-109"/>
      <path d="M 56.203125 29.59375 
L 56.203125 25.203125 
L 14.890625 25.203125 
Q 15.484375 15.921875 20.484375 11.0625 
Q 25.484375 6.203125 34.421875 6.203125 
Q 39.59375 6.203125 44.453125 7.46875 
Q 49.3125 8.734375 54.109375 11.28125 
L 54.109375 2.78125 
Q 49.265625 0.734375 44.1875 -0.34375 
Q 39.109375 -1.421875 33.890625 -1.421875 
Q 20.796875 -1.421875 13.15625 6.1875 
Q 5.515625 13.8125 5.515625 26.8125 
Q 5.515625 40.234375 12.765625 48.109375 
Q 20.015625 56 32.328125 56 
Q 43.359375 56 49.78125 48.890625 
Q 56.203125 41.796875 56.203125 29.59375 
z
M 47.21875 32.234375 
Q 47.125 39.59375 43.09375 43.984375 
Q 39.0625 48.390625 32.421875 48.390625 
Q 24.90625 48.390625 20.390625 44.140625 
Q 15.875 39.890625 15.1875 32.171875 
z
" id="DejaVuSans-101"/>
      <path d="M 8.59375 75.984375 
L 29.296875 75.984375 
L 29.296875 69 
L 17.578125 69 
L 17.578125 -6.203125 
L 29.296875 -6.203125 
L 29.296875 -13.1875 
L 8.59375 -13.1875 
z
" id="DejaVuSans-91"/>
      <path d="M 9.8125 72.90625 
L 24.515625 72.90625 
L 43.109375 23.296875 
L 61.8125 72.90625 
L 76.515625 72.90625 
L 76.515625 0 
L 66.890625 0 
L 66.890625 64.015625 
L 48.09375 14.015625 
L 38.1875 14.015625 
L 19.390625 64.015625 
L 19.390625 0 
L 9.8125 0 
z
" id="DejaVuSans-77"/>
      <path d="M 45.40625 46.390625 
L 45.40625 75.984375 
L 54.390625 75.984375 
L 54.390625 0 
L 45.40625 0 
L 45.40625 8.203125 
Q 42.578125 3.328125 38.25 0.953125 
Q 33.9375 -1.421875 27.875 -1.421875 
Q 17.96875 -1.421875 11.734375 6.484375 
Q 5.515625 14.40625 5.515625 27.296875 
Q 5.515625 40.1875 11.734375 48.09375 
Q 17.96875 56 27.875 56 
Q 33.9375 56 38.25 53.625 
Q 42.578125 51.265625 45.40625 46.390625 
z
M 14.796875 27.296875 
Q 14.796875 17.390625 18.875 11.75 
Q 22.953125 6.109375 30.078125 6.109375 
Q 37.203125 6.109375 41.296875 11.75 
Q 45.40625 17.390625 45.40625 27.296875 
Q 45.40625 37.203125 41.296875 42.84375 
Q 37.203125 48.484375 30.078125 48.484375 
Q 22.953125 48.484375 18.875 42.84375 
Q 14.796875 37.203125 14.796875 27.296875 
z
" id="DejaVuSans-100"/>
      <path d="M 54.890625 33.015625 
L 54.890625 0 
L 45.90625 0 
L 45.90625 32.71875 
Q 45.90625 40.484375 42.875 44.328125 
Q 39.84375 48.1875 33.796875 48.1875 
Q 26.515625 48.1875 22.3125 43.546875 
Q 18.109375 38.921875 18.109375 30.90625 
L 18.109375 0 
L 9.078125 0 
L 9.078125 75.984375 
L 18.109375 75.984375 
L 18.109375 46.1875 
Q 21.34375 51.125 25.703125 53.5625 
Q 30.078125 56 35.796875 56 
Q 45.21875 56 50.046875 50.171875 
Q 54.890625 44.34375 54.890625 33.015625 
z
" id="DejaVuSans-104"/>
      <path d="M 30.421875 75.984375 
L 30.421875 -13.1875 
L 9.71875 -13.1875 
L 9.71875 -6.203125 
L 21.390625 -6.203125 
L 21.390625 69 
L 9.71875 69 
L 9.71875 75.984375 
z
" id="DejaVuSans-93"/>
     </defs>
     <g transform="translate(229.934375 338.180058)scale(0.1 -0.1)">
      <use xlink:href="#DejaVuSans-116"/>
      <use x="39.208984" xlink:href="#DejaVuSans-105"/>
      <use x="66.992188" xlink:href="#DejaVuSans-109"/>
      <use x="164.404297" xlink:href="#DejaVuSans-101"/>
      <use x="225.927734" xlink:href="#DejaVuSans-32"/>
      <use x="257.714844" xlink:href="#DejaVuSans-91"/>
      <use x="296.728516" xlink:href="#DejaVuSans-77"/>
      <use x="383.007812" xlink:href="#DejaVuSans-77"/>
      <use x="469.287109" xlink:href="#DejaVuSans-45"/>
      <use x="505.371094" xlink:href="#DejaVuSans-100"/>
      <use x="568.847656" xlink:href="#DejaVuSans-100"/>
      <use x="632.324219" xlink:href="#DejaVuSans-32"/>
      <use x="664.111328" xlink:href="#DejaVuSans-104"/>
      <use x="727.490234" xlink:href="#DejaVuSans-104"/>
      <use x="790.869141" xlink:href="#DejaVuSans-93"/>
     </g>
    </g>
   </g>
   <g id="matplotlib.axis_2">
    <g id="ytick_1">
     <g id="line2d_21">
      <path clip-path="url(#pa1ab16e35c)" d="M 58.523438 288.71965 
L 484.332812 288.71965 
" style="fill:none;stroke:#b0b0b0;stroke-linecap:square;stroke-width:0.8;"/>
     </g>
     <g id="line2d_22">
      <defs>
       <path d="M 0 0 
L -3.5 0 
" id="m4a44adff33" style="stroke:#000000;stroke-width:0.8;"/>
      </defs>
      <g>
       <use style="stroke:#000000;stroke-width:0.8;" x="58.523438" xlink:href="#m4a44adff33" y="288.71965"/>
      </g>
     </g>
     <g id="text_12">
      <!-- −10.0 -->
      <defs>
       <path d="M 10.59375 35.5 
L 73.1875 35.5 
L 73.1875 27.203125 
L 10.59375 27.203125 
z
" id="DejaVuSans-8722"/>
       <path d="M 10.6875 12.40625 
L 21 12.40625 
L 21 0 
L 10.6875 0 
z
" id="DejaVuSans-46"/>
      </defs>
      <g transform="translate(20.878125 292.518869)scale(0.1 -0.1)">
       <use xlink:href="#DejaVuSans-8722"/>
       <use x="83.789062" xlink:href="#DejaVuSans-49"/>
       <use x="147.412109" xlink:href="#DejaVuSans-48"/>
       <use x="211.035156" xlink:href="#DejaVuSans-46"/>
       <use x="242.822266" xlink:href="#DejaVuSans-48"/>
      </g>
     </g>
    </g>
    <g id="ytick_2">
     <g id="line2d_23">
      <path clip-path="url(#pa1ab16e35c)" d="M 58.523438 255.419459 
L 484.332812 255.419459 
" style="fill:none;stroke:#b0b0b0;stroke-linecap:square;stroke-width:0.8;"/>
     </g>
     <g id="line2d_24">
      <g>
       <use style="stroke:#000000;stroke-width:0.8;" x="58.523438" xlink:href="#m4a44adff33" y="255.419459"/>
      </g>
     </g>
     <g id="text_13">
      <!-- −7.5 -->
      <g transform="translate(27.240625 259.218678)scale(0.1 -0.1)">
       <use xlink:href="#DejaVuSans-8722"/>
       <use x="83.789062" xlink:href="#DejaVuSans-55"/>
       <use x="147.412109" xlink:href="#DejaVuSans-46"/>
       <use x="179.199219" xlink:href="#DejaVuSans-53"/>
      </g>
     </g>
    </g>
    <g id="ytick_3">
     <g id="line2d_25">
      <path clip-path="url(#pa1ab16e35c)" d="M 58.523438 222.119269 
L 484.332812 222.119269 
" style="fill:none;stroke:#b0b0b0;stroke-linecap:square;stroke-width:0.8;"/>
     </g>
     <g id="line2d_26">
      <g>
       <use style="stroke:#000000;stroke-width:0.8;" x="58.523438" xlink:href="#m4a44adff33" y="222.119269"/>
      </g>
     </g>
     <g id="text_14">
      <!-- −5.0 -->
      <g transform="translate(27.240625 225.918487)scale(0.1 -0.1)">
       <use xlink:href="#DejaVuSans-8722"/>
       <use x="83.789062" xlink:href="#DejaVuSans-53"/>
       <use x="147.412109" xlink:href="#DejaVuSans-46"/>
       <use x="179.199219" xlink:href="#DejaVuSans-48"/>
      </g>
     </g>
    </g>
    <g id="ytick_4">
     <g id="line2d_27">
      <path clip-path="url(#pa1ab16e35c)" d="M 58.523438 188.819078 
L 484.332812 188.819078 
" style="fill:none;stroke:#b0b0b0;stroke-linecap:square;stroke-width:0.8;"/>
     </g>
     <g id="line2d_28">
      <g>
       <use style="stroke:#000000;stroke-width:0.8;" x="58.523438" xlink:href="#m4a44adff33" y="188.819078"/>
      </g>
     </g>
     <g id="text_15">
      <!-- −2.5 -->
      <g transform="translate(27.240625 192.618297)scale(0.1 -0.1)">
       <use xlink:href="#DejaVuSans-8722"/>
       <use x="83.789062" xlink:href="#DejaVuSans-50"/>
       <use x="147.412109" xlink:href="#DejaVuSans-46"/>
       <use x="179.199219" xlink:href="#DejaVuSans-53"/>
      </g>
     </g>
    </g>
    <g id="ytick_5">
     <g id="line2d_29">
      <path clip-path="url(#pa1ab16e35c)" d="M 58.523438 155.518887 
L 484.332812 155.518887 
" style="fill:none;stroke:#b0b0b0;stroke-linecap:square;stroke-width:0.8;"/>
     </g>
     <g id="line2d_30">
      <g>
       <use style="stroke:#000000;stroke-width:0.8;" x="58.523438" xlink:href="#m4a44adff33" y="155.518887"/>
      </g>
     </g>
     <g id="text_16">
      <!-- 0.0 -->
      <g transform="translate(35.620313 159.318106)scale(0.1 -0.1)">
       <use xlink:href="#DejaVuSans-48"/>
       <use x="63.623047" xlink:href="#DejaVuSans-46"/>
       <use x="95.410156" xlink:href="#DejaVuSans-48"/>
      </g>
     </g>
    </g>
    <g id="ytick_6">
     <g id="line2d_31">
      <path clip-path="url(#pa1ab16e35c)" d="M 58.523438 122.218697 
L 484.332812 122.218697 
" style="fill:none;stroke:#b0b0b0;stroke-linecap:square;stroke-width:0.8;"/>
     </g>
     <g id="line2d_32">
      <g>
       <use style="stroke:#000000;stroke-width:0.8;" x="58.523438" xlink:href="#m4a44adff33" y="122.218697"/>
      </g>
     </g>
     <g id="text_17">
      <!-- 2.5 -->
      <g transform="translate(35.620313 126.017916)scale(0.1 -0.1)">
       <use xlink:href="#DejaVuSans-50"/>
       <use x="63.623047" xlink:href="#DejaVuSans-46"/>
       <use x="95.410156" xlink:href="#DejaVuSans-53"/>
      </g>
     </g>
    </g>
    <g id="ytick_7">
     <g id="line2d_33">
      <path clip-path="url(#pa1ab16e35c)" d="M 58.523438 88.918506 
L 484.332812 88.918506 
" style="fill:none;stroke:#b0b0b0;stroke-linecap:square;stroke-width:0.8;"/>
     </g>
     <g id="line2d_34">
      <g>
       <use style="stroke:#000000;stroke-width:0.8;" x="58.523438" xlink:href="#m4a44adff33" y="88.918506"/>
      </g>
     </g>
     <g id="text_18">
      <!-- 5.0 -->
      <g transform="translate(35.620313 92.717725)scale(0.1 -0.1)">
       <use xlink:href="#DejaVuSans-53"/>
       <use x="63.623047" xlink:href="#DejaVuSans-46"/>
       <use x="95.410156" xlink:href="#DejaVuSans-48"/>
      </g>
     </g>
    </g>
    <g id="ytick_8">
     <g id="line2d_35">
      <path clip-path="url(#pa1ab16e35c)" d="M 58.523438 55.618316 
L 484.332812 55.618316 
" style="fill:none;stroke:#b0b0b0;stroke-linecap:square;stroke-width:0.8;"/>
     </g>
     <g id="line2d_36">
      <g>
       <use style="stroke:#000000;stroke-width:0.8;" x="58.523438" xlink:href="#m4a44adff33" y="55.618316"/>
      </g>
     </g>
     <g id="text_19">
      <!-- 7.5 -->
      <g transform="translate(35.620313 59.417534)scale(0.1 -0.1)">
       <use xlink:href="#DejaVuSans-55"/>
       <use x="63.623047" xlink:href="#DejaVuSans-46"/>
       <use x="95.410156" xlink:href="#DejaVuSans-53"/>
      </g>
     </g>
    </g>
    <g id="ytick_9">
     <g id="line2d_37">
      <path clip-path="url(#pa1ab16e35c)" d="M 58.523438 22.318125 
L 484.332812 22.318125 
" style="fill:none;stroke:#b0b0b0;stroke-linecap:square;stroke-width:0.8;"/>
     </g>
     <g id="line2d_38">
      <g>
       <use style="stroke:#000000;stroke-width:0.8;" x="58.523438" xlink:href="#m4a44adff33" y="22.318125"/>
      </g>
     </g>
     <g id="text_20">
      <!-- 10.0 -->
      <g transform="translate(29.257813 26.117344)scale(0.1 -0.1)">
       <use xlink:href="#DejaVuSans-49"/>
       <use x="63.623047" xlink:href="#DejaVuSans-48"/>
       <use x="127.246094" xlink:href="#DejaVuSans-46"/>
       <use x="159.033203" xlink:href="#DejaVuSans-48"/>
      </g>
     </g>
    </g>
    <g id="text_21">
     <!-- Error [Lux] -->
     <defs>
      <path d="M 9.8125 72.90625 
L 55.90625 72.90625 
L 55.90625 64.59375 
L 19.671875 64.59375 
L 19.671875 43.015625 
L 54.390625 43.015625 
L 54.390625 34.71875 
L 19.671875 34.71875 
L 19.671875 8.296875 
L 56.78125 8.296875 
L 56.78125 0 
L 9.8125 0 
z
" id="DejaVuSans-69"/>
      <path d="M 41.109375 46.296875 
Q 39.59375 47.171875 37.8125 47.578125 
Q 36.03125 48 33.890625 48 
Q 26.265625 48 22.1875 43.046875 
Q 18.109375 38.09375 18.109375 28.8125 
L 18.109375 0 
L 9.078125 0 
L 9.078125 54.6875 
L 18.109375 54.6875 
L 18.109375 46.1875 
Q 20.953125 51.171875 25.484375 53.578125 
Q 30.03125 56 36.53125 56 
Q 37.453125 56 38.578125 55.875 
Q 39.703125 55.765625 41.0625 55.515625 
z
" id="DejaVuSans-114"/>
      <path d="M 30.609375 48.390625 
Q 23.390625 48.390625 19.1875 42.75 
Q 14.984375 37.109375 14.984375 27.296875 
Q 14.984375 17.484375 19.15625 11.84375 
Q 23.34375 6.203125 30.609375 6.203125 
Q 37.796875 6.203125 41.984375 11.859375 
Q 46.1875 17.53125 46.1875 27.296875 
Q 46.1875 37.015625 41.984375 42.703125 
Q 37.796875 48.390625 30.609375 48.390625 
z
M 30.609375 56 
Q 42.328125 56 49.015625 48.375 
Q 55.71875 40.765625 55.71875 27.296875 
Q 55.71875 13.875 49.015625 6.21875 
Q 42.328125 -1.421875 30.609375 -1.421875 
Q 18.84375 -1.421875 12.171875 6.21875 
Q 5.515625 13.875 5.515625 27.296875 
Q 5.515625 40.765625 12.171875 48.375 
Q 18.84375 56 30.609375 56 
z
" id="DejaVuSans-111"/>
      <path d="M 9.8125 72.90625 
L 19.671875 72.90625 
L 19.671875 8.296875 
L 55.171875 8.296875 
L 55.171875 0 
L 9.8125 0 
z
" id="DejaVuSans-76"/>
      <path d="M 8.5 21.578125 
L 8.5 54.6875 
L 17.484375 54.6875 
L 17.484375 21.921875 
Q 17.484375 14.15625 20.5 10.265625 
Q 23.53125 6.390625 29.59375 6.390625 
Q 36.859375 6.390625 41.078125 11.03125 
Q 45.3125 15.671875 45.3125 23.6875 
L 45.3125 54.6875 
L 54.296875 54.6875 
L 54.296875 0 
L 45.3125 0 
L 45.3125 8.40625 
Q 42.046875 3.421875 37.71875 1 
Q 33.40625 -1.421875 27.6875 -1.421875 
Q 18.265625 -1.421875 13.375 4.4375 
Q 8.5 10.296875 8.5 21.578125 
z
M 31.109375 56 
z
" id="DejaVuSans-117"/>
      <path d="M 54.890625 54.6875 
L 35.109375 28.078125 
L 55.90625 0 
L 45.3125 0 
L 29.390625 21.484375 
L 13.484375 0 
L 2.875 0 
L 24.125 28.609375 
L 4.6875 54.6875 
L 15.28125 54.6875 
L 29.78125 35.203125 
L 44.28125 54.6875 
z
" id="DejaVuSans-120"/>
     </defs>
     <g style="fill:#1f77b4;" transform="translate(14.798438 182.021231)rotate(-90)scale(0.1 -0.1)">
      <use xlink:href="#DejaVuSans-69"/>
      <use x="63.183594" xlink:href="#DejaVuSans-114"/>
      <use x="102.546875" xlink:href="#DejaVuSans-114"/>
      <use x="141.410156" xlink:href="#DejaVuSans-111"/>
      <use x="202.591797" xlink:href="#DejaVuSans-114"/>
      <use x="243.705078" xlink:href="#DejaVuSans-32"/>
      <use x="275.492188" xlink:href="#DejaVuSans-91"/>
      <use x="314.505859" xlink:href="#DejaVuSans-76"/>
      <use x="368.46875" xlink:href="#DejaVuSans-117"/>
      <use x="431.847656" xlink:href="#DejaVuSans-120"/>
      <use x="491.027344" xlink:href="#DejaVuSans-93"/>
     </g>
    </g>
   </g>
   <g id="line2d_39">
    <path clip-path="url(#pa1ab16e35c)" d="M 77.878409 30.576572 
L 77.986761 169.303834 
L 77.997596 169.303834 
L 77.997596 216.571457 
L 78.008432 107.305539 
L 78.105949 130.939351 
L 78.365994 130.939351 
L 78.365994 154.573162 
L 78.723557 154.573162 
L 78.723557 130.939351 
L 78.831909 154.573162 
L 79.232813 154.573162 
L 79.232813 145.670023 
L 79.297824 169.303834 
L 79.341165 154.573162 
L 79.352 154.573162 
L 79.352 169.303834 
L 79.373671 145.670023 
L 79.427847 145.670023 
L 79.785409 145.670023 
L 79.785409 169.303834 
L 79.893762 154.573162 
L 80.121302 154.573162 
L 80.121302 145.670023 
L 80.142972 178.206973 
L 80.229654 169.303834 
L 80.240489 169.303834 
L 80.294665 145.670023 
L 80.348841 154.573162 
L 80.359677 154.573162 
L 80.370512 192.937646 
L 80.468029 154.573162 
L 80.51137 154.573162 
L 80.51137 130.939351 
L 80.619722 154.573162 
L 80.663063 154.573162 
L 80.663063 130.939351 
L 80.771415 130.939351 
L 80.782251 130.939351 
L 80.782251 154.573162 
L 80.890603 130.939351 
L 80.901438 130.939351 
L 80.901438 154.573162 
L 81.00979 130.939351 
L 81.063967 130.939351 
L 81.063967 154.573162 
L 81.172319 130.939351 
L 81.345683 130.939351 
L 81.345683 154.573162 
L 81.454035 154.573162 
L 81.46487 154.573162 
L 81.46487 130.939351 
L 81.573222 154.573162 
L 81.811597 154.573162 
L 81.811597 130.939351 
L 81.91995 154.573162 
L 81.952455 154.573162 
L 81.952455 130.939351 
L 82.060808 154.573162 
L 82.591734 154.573162 
L 82.656745 130.939351 
L 82.700086 130.939351 
L 83.176836 130.939351 
L 83.176836 107.305539 
L 83.285189 130.939351 
L 83.891962 130.939351 
L 83.891962 154.573162 
L 84.000314 154.573162 
L 84.292865 154.573162 
L 84.292865 178.206973 
L 84.401217 178.206973 
L 84.422888 178.206973 
L 84.422888 154.573162 
L 84.53124 169.303834 
L 85.766456 169.303834 
L 85.766456 192.937646 
L 85.874809 169.303834 
L 88.161042 169.303834 
L 88.161042 145.670023 
L 88.269395 145.670023 
L 88.388582 145.670023 
L 88.388582 169.303834 
L 88.496935 145.670023 
L 88.540275 145.670023 
L 88.540275 169.303834 
L 88.648628 169.303834 
L 89.407094 169.303834 
L 89.407094 145.670023 
L 89.515446 145.670023 
L 89.526281 145.670023 
L 89.526281 169.303834 
L 89.634634 145.670023 
L 89.645469 145.670023 
L 89.645469 169.303834 
L 89.753821 169.303834 
L 89.764656 169.303834 
L 89.764656 145.670023 
L 89.873009 169.303834 
L 90.16556 169.303834 
L 90.16556 145.670023 
L 90.273912 169.303834 
L 90.295583 169.303834 
L 90.295583 145.670023 
L 90.403935 145.670023 
L 90.41477 145.670023 
L 90.41477 169.303834 
L 90.523123 145.670023 
L 91.314094 145.670023 
L 91.314094 169.303834 
L 91.422447 169.303834 
L 91.433282 169.303834 
L 91.433282 145.670023 
L 91.541634 169.303834 
L 92.115901 169.303834 
L 92.115901 169.303834 
L 92.115901 145.670023 
L 92.224254 169.303834 
L 92.267595 169.303834 
L 92.267595 145.670023 
L 92.375947 169.303834 
L 92.386782 169.303834 
L 92.386782 145.670023 
L 92.495134 145.670023 
L 93.741186 145.670023 
L 93.741186 169.303834 
L 93.849538 169.303834 
L 93.957891 169.303834 
L 93.957891 145.670023 
L 94.066243 145.670023 
L 94.261277 145.670023 
L 94.261277 169.303834 
L 94.369629 169.303834 
L 94.423805 169.303834 
L 94.423805 145.670023 
L 94.532158 169.303834 
L 94.542993 169.303834 
L 94.542993 145.670023 
L 94.651345 145.670023 
L 95.333965 145.670023 
L 95.333965 169.303834 
L 95.442317 169.303834 
L 95.463987 169.303834 
L 95.463987 145.670023 
L 95.57234 169.303834 
L 95.680692 169.303834 
L 95.680692 145.670023 
L 95.789044 145.670023 
L 95.843221 145.670023 
L 95.843221 169.303834 
L 95.951573 145.670023 
L 97.175954 145.670023 
L 97.175954 169.303834 
L 97.284306 169.303834 
L 110.936696 169.303834 
L 110.936696 192.937646 
L 111.045048 169.303834 
L 115.411646 169.303834 
L 115.411646 145.670023 
L 115.519998 169.303834 
L 115.823385 169.303834 
L 115.823385 145.670023 
L 115.931737 169.303834 
L 115.953408 169.303834 
L 115.953408 145.670023 
L 116.06176 169.303834 
L 188.386921 169.303834 
L 188.386921 246.032802 
L 188.495273 169.303834 
L 188.766154 169.303834 
L 188.766154 36.103072 
L 188.874506 103.9289 
L 188.885342 103.9289 
L 188.885342 174.830334 
L 188.993694 174.830334 
L 191.052388 174.830334 
L 191.052388 151.196523 
L 191.16074 151.196523 
L 191.171575 151.196523 
L 191.171575 174.830334 
L 191.279927 174.830334 
L 191.355774 174.830334 
L 191.355774 151.196523 
L 191.464127 174.830334 
L 191.572479 174.830334 
L 191.572479 151.196523 
L 191.680831 174.830334 
L 191.756678 174.830334 
L 191.756678 151.196523 
L 191.86503 151.196523 
L 191.875865 151.196523 
L 191.875865 174.830334 
L 191.984218 174.830334 
L 191.995053 174.830334 
L 191.995053 151.196523 
L 192.103405 174.830334 
L 192.135911 174.830334 
L 192.135911 151.196523 
L 192.244263 174.830334 
L 192.255098 174.830334 
L 192.255098 151.196523 
L 192.363451 174.830334 
L 192.395956 174.830334 
L 192.395956 151.196523 
L 192.504309 151.196523 
L 192.515144 151.196523 
L 192.515144 174.830334 
L 192.623496 174.830334 
L 192.656002 174.830334 
L 192.656002 151.196523 
L 192.764354 151.196523 
L 192.786025 151.196523 
L 192.786025 174.830334 
L 192.894377 174.830334 
L 192.916047 174.830334 
L 192.916047 151.196523 
L 193.0244 174.830334 
L 193.056905 174.830334 
L 193.056905 151.196523 
L 193.165258 151.196523 
L 193.284445 151.196523 
L 193.284445 174.830334 
L 193.392797 151.196523 
L 193.425303 151.196523 
L 193.425303 174.830334 
L 193.533656 151.196523 
L 193.576996 151.196523 
L 193.576996 174.830334 
L 193.685349 174.830334 
L 193.696184 174.830334 
L 193.696184 151.196523 
L 193.804536 151.196523 
L 193.945394 151.196523 
L 193.945394 174.830334 
L 194.053746 151.196523 
L 196.33998 151.196523 
L 196.33998 174.830334 
L 196.448332 174.830334 
L 196.459168 174.830334 
L 196.459168 151.196523 
L 196.56752 174.830334 
L 196.578355 174.830334 
L 196.578355 151.196523 
L 196.686707 174.830334 
L 196.708378 174.830334 
L 196.708378 151.196523 
L 196.81673 174.830334 
L 196.827565 174.830334 
L 196.827565 151.196523 
L 196.935918 151.196523 
L 196.946753 151.196523 
L 196.946753 174.830334 
L 197.055105 151.196523 
L 197.130952 151.196523 
L 197.130952 174.830334 
L 197.239304 151.196523 
L 197.29348 151.196523 
L 197.29348 174.830334 
L 197.401833 151.196523 
L 197.412668 151.196523 
L 197.412668 174.830334 
L 197.52102 174.830334 
L 411.289276 174.830334 
L 411.289276 151.196523 
L 411.397628 151.196523 
L 411.430133 151.196523 
L 411.430133 174.830334 
L 411.538486 151.196523 
L 411.581827 151.196523 
L 411.581827 160.099662 
L 411.690179 160.099662 
L 411.711849 160.099662 
L 411.711849 151.196523 
L 411.820202 160.099662 
L 411.906884 160.099662 
L 411.906884 151.196523 
L 412.004401 160.099662 
L 412.026071 160.099662 
L 412.026071 151.196523 
L 412.134423 151.196523 
L 412.470316 151.196523 
L 412.470316 174.830334 
L 412.578668 151.196523 
L 412.589503 151.196523 
L 412.589503 174.830334 
L 412.697855 174.830334 
L 413.207111 174.830334 
L 413.207111 151.196523 
L 413.315464 174.830334 
L 413.358804 174.830334 
L 413.358804 151.196523 
L 413.467157 174.830334 
L 413.521333 174.830334 
L 413.521333 151.196523 
L 413.629685 151.196523 
L 413.651356 151.196523 
L 413.651356 174.830334 
L 413.759708 174.830334 
L 413.803049 174.830334 
L 413.803049 151.196523 
L 413.911401 174.830334 
L 413.922236 174.830334 
L 413.922236 151.196523 
L 414.030589 151.196523 
L 414.041424 151.196523 
L 414.041424 174.830334 
L 414.149776 151.196523 
L 414.160612 151.196523 
L 414.160612 174.830334 
L 414.268964 151.196523 
L 414.377316 151.196523 
L 414.377316 174.830334 
L 414.474833 151.196523 
L 414.626526 151.196523 
L 414.626526 174.830334 
L 414.734879 151.196523 
L 415.0491 151.196523 
L 415.0491 174.830334 
L 415.157453 151.196523 
L 415.319981 151.196523 
L 415.319981 160.099662 
L 415.428333 160.099662 
L 415.450004 160.099662 
L 415.450004 151.196523 
L 415.558356 160.099662 
L 415.569191 160.099662 
L 415.569191 151.196523 
L 415.677544 151.196523 
L 415.688379 151.196523 
L 415.688379 160.099662 
L 415.796731 160.099662 
L 426.436927 160.099662 
L 426.436927 112.832039 
L 426.447763 183.733473 
L 426.54528 183.733473 
L 426.556115 183.733473 
L 426.556115 112.832039 
L 426.664467 112.832039 
L 426.675302 112.832039 
L 426.675302 183.733473 
L 426.783655 112.832039 
L 426.79449 112.832039 
L 426.805325 183.733473 
L 426.902842 112.832039 
L 426.913677 112.832039 
L 426.913677 183.733473 
L 427.02203 112.832039 
L 427.032865 112.832039 
L 427.032865 183.733473 
L 427.130382 160.099662 
L 427.379592 160.099662 
L 427.379592 112.832039 
L 427.390427 183.733473 
L 427.487945 183.733473 
L 427.49878 183.733473 
L 427.531286 112.832039 
L 427.607132 183.733473 
L 427.617967 183.733473 
L 427.617967 112.832039 
L 427.72632 112.832039 
L 427.737155 112.832039 
L 427.737155 183.733473 
L 427.845507 183.733473 
L 427.856342 183.733473 
L 427.856342 112.832039 
L 427.953859 112.832039 
L 427.97553 112.832039 
L 427.97553 183.733473 
L 428.083882 183.733473 
L 428.094717 183.733473 
L 428.094717 112.832039 
L 428.20307 183.733473 
L 428.213905 183.733473 
L 428.22474 112.832039 
L 428.322257 160.099662 
L 428.365598 160.099662 
L 428.365598 112.832039 
L 428.376433 183.733473 
L 428.473951 112.832039 
L 428.484786 112.832039 
L 428.484786 183.733473 
L 428.593138 183.733473 
L 428.603973 183.733473 
L 428.603973 112.832039 
L 428.712326 160.099662 
L 436.968771 160.099662 
L 436.968771 112.832039 
L 436.979606 183.733473 
L 437.077123 160.099662 
L 437.748908 160.099662 
L 437.748908 112.832039 
L 437.759743 183.733473 
L 437.85726 112.832039 
L 437.868095 112.832039 
L 437.868095 183.733473 
L 437.976447 183.733473 
L 437.987283 183.733473 
L 437.987283 112.832039 
L 438.095635 160.099662 
L 438.236493 160.099662 
L 438.236493 183.733473 
L 438.247328 112.832039 
L 438.344845 160.099662 
L 439.655908 160.099662 
L 439.655908 183.733473 
L 439.666743 112.832039 
L 439.753425 183.733473 
L 439.775096 183.733473 
L 439.775096 112.832039 
L 439.883448 160.099662 
L 439.905118 160.099662 
L 439.905118 112.832039 
L 439.915954 183.733473 
L 440.013471 112.832039 
L 440.024306 112.832039 
L 440.024306 183.733473 
L 440.132658 183.733473 
L 440.143493 183.733473 
L 440.143493 112.832039 
L 440.251846 112.832039 
L 440.262681 112.832039 
L 440.262681 183.733473 
L 440.371033 160.099662 
L 440.436045 160.099662 
L 440.436045 112.832039 
L 440.44688 183.733473 
L 440.544397 183.733473 
L 440.555232 183.733473 
L 440.555232 112.832039 
L 440.663584 112.832039 
L 440.67442 112.832039 
L 440.67442 160.099662 
L 440.782772 160.099662 
L 442.516409 160.099662 
L 442.516409 112.832039 
L 442.527244 183.733473 
L 442.624761 183.733473 
L 442.635596 183.733473 
L 442.635596 112.832039 
L 442.743949 160.099662 
L 444.748466 160.099662 
L 444.748466 177.90594 
L 444.802642 130.638317 
L 444.856819 130.638317 
L 445.409415 130.638317 
L 445.409415 160.099662 
L 445.517768 160.099662 
L 445.972847 160.099662 
L 445.972847 183.733473 
L 445.983683 112.832039 
L 446.0812 160.099662 
L 448.389104 160.099662 
L 448.389104 112.832039 
L 448.399939 183.733473 
L 448.497456 130.638317 
L 464.977841 130.638317 
L 464.977841 130.638317 
" style="fill:none;stroke:#1f77b4;stroke-linecap:square;stroke-width:1.5;"/>
   </g>
   <g id="patch_3">
    <path d="M 58.523438 288.71965 
L 58.523438 22.318125 
" style="fill:none;stroke:#000000;stroke-linecap:square;stroke-linejoin:miter;stroke-width:0.8;"/>
   </g>
   <g id="patch_4">
    <path d="M 484.332812 288.71965 
L 484.332812 22.318125 
" style="fill:none;stroke:#000000;stroke-linecap:square;stroke-linejoin:miter;stroke-width:0.8;"/>
   </g>
   <g id="patch_5">
    <path d="M 58.523437 288.71965 
L 484.332812 288.71965 
" style="fill:none;stroke:#000000;stroke-linecap:square;stroke-linejoin:miter;stroke-width:0.8;"/>
   </g>
   <g id="patch_6">
    <path d="M 58.523437 22.318125 
L 484.332812 22.318125 
" style="fill:none;stroke:#000000;stroke-linecap:square;stroke-linejoin:miter;stroke-width:0.8;"/>
   </g>
   <g id="text_22">
    <!-- Error over time for group: jv -->
    <defs>
     <path d="M 2.984375 54.6875 
L 12.5 54.6875 
L 29.59375 8.796875 
L 46.6875 54.6875 
L 56.203125 54.6875 
L 35.6875 0 
L 23.484375 0 
z
" id="DejaVuSans-118"/>
     <path d="M 37.109375 75.984375 
L 37.109375 68.5 
L 28.515625 68.5 
Q 23.6875 68.5 21.796875 66.546875 
Q 19.921875 64.59375 19.921875 59.515625 
L 19.921875 54.6875 
L 34.71875 54.6875 
L 34.71875 47.703125 
L 19.921875 47.703125 
L 19.921875 0 
L 10.890625 0 
L 10.890625 47.703125 
L 2.296875 47.703125 
L 2.296875 54.6875 
L 10.890625 54.6875 
L 10.890625 58.5 
Q 10.890625 67.625 15.140625 71.796875 
Q 19.390625 75.984375 28.609375 75.984375 
z
" id="DejaVuSans-102"/>
     <path d="M 45.40625 27.984375 
Q 45.40625 37.75 41.375 43.109375 
Q 37.359375 48.484375 30.078125 48.484375 
Q 22.859375 48.484375 18.828125 43.109375 
Q 14.796875 37.75 14.796875 27.984375 
Q 14.796875 18.265625 18.828125 12.890625 
Q 22.859375 7.515625 30.078125 7.515625 
Q 37.359375 7.515625 41.375 12.890625 
Q 45.40625 18.265625 45.40625 27.984375 
z
M 54.390625 6.78125 
Q 54.390625 -7.171875 48.1875 -13.984375 
Q 42 -20.796875 29.203125 -20.796875 
Q 24.46875 -20.796875 20.265625 -20.09375 
Q 16.0625 -19.390625 12.109375 -17.921875 
L 12.109375 -9.1875 
Q 16.0625 -11.328125 19.921875 -12.34375 
Q 23.78125 -13.375 27.78125 -13.375 
Q 36.625 -13.375 41.015625 -8.765625 
Q 45.40625 -4.15625 45.40625 5.171875 
L 45.40625 9.625 
Q 42.625 4.78125 38.28125 2.390625 
Q 33.9375 0 27.875 0 
Q 17.828125 0 11.671875 7.65625 
Q 5.515625 15.328125 5.515625 27.984375 
Q 5.515625 40.671875 11.671875 48.328125 
Q 17.828125 56 27.875 56 
Q 33.9375 56 38.28125 53.609375 
Q 42.625 51.21875 45.40625 46.390625 
L 45.40625 54.6875 
L 54.390625 54.6875 
z
" id="DejaVuSans-103"/>
     <path d="M 18.109375 8.203125 
L 18.109375 -20.796875 
L 9.078125 -20.796875 
L 9.078125 54.6875 
L 18.109375 54.6875 
L 18.109375 46.390625 
Q 20.953125 51.265625 25.265625 53.625 
Q 29.59375 56 35.59375 56 
Q 45.5625 56 51.78125 48.09375 
Q 58.015625 40.1875 58.015625 27.296875 
Q 58.015625 14.40625 51.78125 6.484375 
Q 45.5625 -1.421875 35.59375 -1.421875 
Q 29.59375 -1.421875 25.265625 0.953125 
Q 20.953125 3.328125 18.109375 8.203125 
z
M 48.6875 27.296875 
Q 48.6875 37.203125 44.609375 42.84375 
Q 40.53125 48.484375 33.40625 48.484375 
Q 26.265625 48.484375 22.1875 42.84375 
Q 18.109375 37.203125 18.109375 27.296875 
Q 18.109375 17.390625 22.1875 11.75 
Q 26.265625 6.109375 33.40625 6.109375 
Q 40.53125 6.109375 44.609375 11.75 
Q 48.6875 17.390625 48.6875 27.296875 
z
" id="DejaVuSans-112"/>
     <path d="M 11.71875 12.40625 
L 22.015625 12.40625 
L 22.015625 0 
L 11.71875 0 
z
M 11.71875 51.703125 
L 22.015625 51.703125 
L 22.015625 39.3125 
L 11.71875 39.3125 
z
" id="DejaVuSans-58"/>
     <path d="M 9.421875 54.6875 
L 18.40625 54.6875 
L 18.40625 -0.984375 
Q 18.40625 -11.421875 14.421875 -16.109375 
Q 10.453125 -20.796875 1.609375 -20.796875 
L -1.8125 -20.796875 
L -1.8125 -13.1875 
L 0.59375 -13.1875 
Q 5.71875 -13.1875 7.5625 -10.8125 
Q 9.421875 -8.453125 9.421875 -0.984375 
z
M 9.421875 75.984375 
L 18.40625 75.984375 
L 18.40625 64.59375 
L 9.421875 64.59375 
z
" id="DejaVuSans-106"/>
    </defs>
    <g transform="translate(187.4225 16.318125)scale(0.12 -0.12)">
     <use xlink:href="#DejaVuSans-69"/>
     <use x="63.183594" xlink:href="#DejaVuSans-114"/>
     <use x="102.546875" xlink:href="#DejaVuSans-114"/>
     <use x="141.410156" xlink:href="#DejaVuSans-111"/>
     <use x="202.591797" xlink:href="#DejaVuSans-114"/>
     <use x="243.705078" xlink:href="#DejaVuSans-32"/>
     <use x="275.492188" xlink:href="#DejaVuSans-111"/>
     <use x="336.673828" xlink:href="#DejaVuSans-118"/>
     <use x="395.853516" xlink:href="#DejaVuSans-101"/>
     <use x="457.376953" xlink:href="#DejaVuSans-114"/>
     <use x="498.490234" xlink:href="#DejaVuSans-32"/>
     <use x="530.277344" xlink:href="#DejaVuSans-116"/>
     <use x="569.486328" xlink:href="#DejaVuSans-105"/>
     <use x="597.269531" xlink:href="#DejaVuSans-109"/>
     <use x="694.681641" xlink:href="#DejaVuSans-101"/>
     <use x="756.205078" xlink:href="#DejaVuSans-32"/>
     <use x="787.992188" xlink:href="#DejaVuSans-102"/>
     <use x="823.197266" xlink:href="#DejaVuSans-111"/>
     <use x="884.378906" xlink:href="#DejaVuSans-114"/>
     <use x="925.492188" xlink:href="#DejaVuSans-32"/>
     <use x="957.279297" xlink:href="#DejaVuSans-103"/>
     <use x="1020.755859" xlink:href="#DejaVuSans-114"/>
     <use x="1059.619141" xlink:href="#DejaVuSans-111"/>
     <use x="1120.800781" xlink:href="#DejaVuSans-117"/>
     <use x="1184.179688" xlink:href="#DejaVuSans-112"/>
     <use x="1247.65625" xlink:href="#DejaVuSans-58"/>
     <use x="1281.347656" xlink:href="#DejaVuSans-32"/>
     <use x="1313.134766" xlink:href="#DejaVuSans-106"/>
     <use x="1340.917969" xlink:href="#DejaVuSans-118"/>
    </g>
   </g>
  </g>
  <g id="axes_2">
   <g id="matplotlib.axis_3">
    <g id="ytick_10">
     <g id="line2d_40">
      <defs>
       <path d="M 0 0 
L 3.5 0 
" id="m0a5e13d16c" style="stroke:#000000;stroke-width:0.8;"/>
      </defs>
      <g>
       <use style="stroke:#000000;stroke-width:0.8;" x="484.332812" xlink:href="#m0a5e13d16c" y="279.032322"/>
      </g>
     </g>
     <g id="text_23">
      <!-- 0 -->
      <g transform="translate(491.332812 282.83154)scale(0.1 -0.1)">
       <use xlink:href="#DejaVuSans-48"/>
      </g>
     </g>
    </g>
    <g id="ytick_11">
     <g id="line2d_41">
      <g>
       <use style="stroke:#000000;stroke-width:0.8;" x="484.332812" xlink:href="#m0a5e13d16c" y="254.814001"/>
      </g>
     </g>
     <g id="text_24">
      <!-- 25 -->
      <g transform="translate(491.332812 258.61322)scale(0.1 -0.1)">
       <use xlink:href="#DejaVuSans-50"/>
       <use x="63.623047" xlink:href="#DejaVuSans-53"/>
      </g>
     </g>
    </g>
    <g id="ytick_12">
     <g id="line2d_42">
      <g>
       <use style="stroke:#000000;stroke-width:0.8;" x="484.332812" xlink:href="#m0a5e13d16c" y="230.595681"/>
      </g>
     </g>
     <g id="text_25">
      <!-- 50 -->
      <g transform="translate(491.332812 234.3949)scale(0.1 -0.1)">
       <use xlink:href="#DejaVuSans-53"/>
       <use x="63.623047" xlink:href="#DejaVuSans-48"/>
      </g>
     </g>
    </g>
    <g id="ytick_13">
     <g id="line2d_43">
      <g>
       <use style="stroke:#000000;stroke-width:0.8;" x="484.332812" xlink:href="#m0a5e13d16c" y="206.37736"/>
      </g>
     </g>
     <g id="text_26">
      <!-- 75 -->
      <g transform="translate(491.332812 210.176579)scale(0.1 -0.1)">
       <use xlink:href="#DejaVuSans-55"/>
       <use x="63.623047" xlink:href="#DejaVuSans-53"/>
      </g>
     </g>
    </g>
    <g id="ytick_14">
     <g id="line2d_44">
      <g>
       <use style="stroke:#000000;stroke-width:0.8;" x="484.332812" xlink:href="#m0a5e13d16c" y="182.15904"/>
      </g>
     </g>
     <g id="text_27">
      <!-- 100 -->
      <g transform="translate(491.332812 185.958259)scale(0.1 -0.1)">
       <use xlink:href="#DejaVuSans-49"/>
       <use x="63.623047" xlink:href="#DejaVuSans-48"/>
       <use x="127.246094" xlink:href="#DejaVuSans-48"/>
      </g>
     </g>
    </g>
    <g id="ytick_15">
     <g id="line2d_45">
      <g>
       <use style="stroke:#000000;stroke-width:0.8;" x="484.332812" xlink:href="#m0a5e13d16c" y="157.94072"/>
      </g>
     </g>
     <g id="text_28">
      <!-- 125 -->
      <g transform="translate(491.332812 161.739938)scale(0.1 -0.1)">
       <use xlink:href="#DejaVuSans-49"/>
       <use x="63.623047" xlink:href="#DejaVuSans-50"/>
       <use x="127.246094" xlink:href="#DejaVuSans-53"/>
      </g>
     </g>
    </g>
    <g id="ytick_16">
     <g id="line2d_46">
      <g>
       <use style="stroke:#000000;stroke-width:0.8;" x="484.332812" xlink:href="#m0a5e13d16c" y="133.722399"/>
      </g>
     </g>
     <g id="text_29">
      <!-- 150 -->
      <g transform="translate(491.332812 137.521618)scale(0.1 -0.1)">
       <use xlink:href="#DejaVuSans-49"/>
       <use x="63.623047" xlink:href="#DejaVuSans-53"/>
       <use x="127.246094" xlink:href="#DejaVuSans-48"/>
      </g>
     </g>
    </g>
    <g id="ytick_17">
     <g id="line2d_47">
      <g>
       <use style="stroke:#000000;stroke-width:0.8;" x="484.332812" xlink:href="#m0a5e13d16c" y="109.504079"/>
      </g>
     </g>
     <g id="text_30">
      <!-- 175 -->
      <g transform="translate(491.332812 113.303297)scale(0.1 -0.1)">
       <use xlink:href="#DejaVuSans-49"/>
       <use x="63.623047" xlink:href="#DejaVuSans-55"/>
       <use x="127.246094" xlink:href="#DejaVuSans-53"/>
      </g>
     </g>
    </g>
    <g id="ytick_18">
     <g id="line2d_48">
      <g>
       <use style="stroke:#000000;stroke-width:0.8;" x="484.332812" xlink:href="#m0a5e13d16c" y="85.285758"/>
      </g>
     </g>
     <g id="text_31">
      <!-- 200 -->
      <g transform="translate(491.332812 89.084977)scale(0.1 -0.1)">
       <use xlink:href="#DejaVuSans-50"/>
       <use x="63.623047" xlink:href="#DejaVuSans-48"/>
       <use x="127.246094" xlink:href="#DejaVuSans-48"/>
      </g>
     </g>
    </g>
    <g id="ytick_19">
     <g id="line2d_49">
      <g>
       <use style="stroke:#000000;stroke-width:0.8;" x="484.332812" xlink:href="#m0a5e13d16c" y="61.067438"/>
      </g>
     </g>
     <g id="text_32">
      <!-- 225 -->
      <g transform="translate(491.332812 64.866656)scale(0.1 -0.1)">
       <use xlink:href="#DejaVuSans-50"/>
       <use x="63.623047" xlink:href="#DejaVuSans-50"/>
       <use x="127.246094" xlink:href="#DejaVuSans-53"/>
      </g>
     </g>
    </g>
    <g id="ytick_20">
     <g id="line2d_50">
      <g>
       <use style="stroke:#000000;stroke-width:0.8;" x="484.332812" xlink:href="#m0a5e13d16c" y="36.849117"/>
      </g>
     </g>
     <g id="text_33">
      <!-- 250 -->
      <g transform="translate(491.332812 40.648336)scale(0.1 -0.1)">
       <use xlink:href="#DejaVuSans-50"/>
       <use x="63.623047" xlink:href="#DejaVuSans-53"/>
       <use x="127.246094" xlink:href="#DejaVuSans-48"/>
      </g>
     </g>
    </g>
    <g id="text_34">
     <!-- Intensity [0-255] -->
     <defs>
      <path d="M 9.8125 72.90625 
L 19.671875 72.90625 
L 19.671875 0 
L 9.8125 0 
z
" id="DejaVuSans-73"/>
      <path d="M 54.890625 33.015625 
L 54.890625 0 
L 45.90625 0 
L 45.90625 32.71875 
Q 45.90625 40.484375 42.875 44.328125 
Q 39.84375 48.1875 33.796875 48.1875 
Q 26.515625 48.1875 22.3125 43.546875 
Q 18.109375 38.921875 18.109375 30.90625 
L 18.109375 0 
L 9.078125 0 
L 9.078125 54.6875 
L 18.109375 54.6875 
L 18.109375 46.1875 
Q 21.34375 51.125 25.703125 53.5625 
Q 30.078125 56 35.796875 56 
Q 45.21875 56 50.046875 50.171875 
Q 54.890625 44.34375 54.890625 33.015625 
z
" id="DejaVuSans-110"/>
      <path d="M 44.28125 53.078125 
L 44.28125 44.578125 
Q 40.484375 46.53125 36.375 47.5 
Q 32.28125 48.484375 27.875 48.484375 
Q 21.1875 48.484375 17.84375 46.4375 
Q 14.5 44.390625 14.5 40.28125 
Q 14.5 37.15625 16.890625 35.375 
Q 19.28125 33.59375 26.515625 31.984375 
L 29.59375 31.296875 
Q 39.15625 29.25 43.1875 25.515625 
Q 47.21875 21.78125 47.21875 15.09375 
Q 47.21875 7.46875 41.1875 3.015625 
Q 35.15625 -1.421875 24.609375 -1.421875 
Q 20.21875 -1.421875 15.453125 -0.5625 
Q 10.6875 0.296875 5.421875 2 
L 5.421875 11.28125 
Q 10.40625 8.6875 15.234375 7.390625 
Q 20.0625 6.109375 24.8125 6.109375 
Q 31.15625 6.109375 34.5625 8.28125 
Q 37.984375 10.453125 37.984375 14.40625 
Q 37.984375 18.0625 35.515625 20.015625 
Q 33.0625 21.96875 24.703125 23.78125 
L 21.578125 24.515625 
Q 13.234375 26.265625 9.515625 29.90625 
Q 5.8125 33.546875 5.8125 39.890625 
Q 5.8125 47.609375 11.28125 51.796875 
Q 16.75 56 26.8125 56 
Q 31.78125 56 36.171875 55.265625 
Q 40.578125 54.546875 44.28125 53.078125 
z
" id="DejaVuSans-115"/>
      <path d="M 32.171875 -5.078125 
Q 28.375 -14.84375 24.75 -17.8125 
Q 21.140625 -20.796875 15.09375 -20.796875 
L 7.90625 -20.796875 
L 7.90625 -13.28125 
L 13.1875 -13.28125 
Q 16.890625 -13.28125 18.9375 -11.515625 
Q 21 -9.765625 23.484375 -3.21875 
L 25.09375 0.875 
L 2.984375 54.6875 
L 12.5 54.6875 
L 29.59375 11.921875 
L 46.6875 54.6875 
L 56.203125 54.6875 
z
" id="DejaVuSans-121"/>
     </defs>
     <g style="fill:#d62728;" transform="translate(522.01875 197.300919)rotate(-90)scale(0.1 -0.1)">
      <use xlink:href="#DejaVuSans-73"/>
      <use x="29.492188" xlink:href="#DejaVuSans-110"/>
      <use x="92.871094" xlink:href="#DejaVuSans-116"/>
      <use x="132.080078" xlink:href="#DejaVuSans-101"/>
      <use x="193.603516" xlink:href="#DejaVuSans-110"/>
      <use x="256.982422" xlink:href="#DejaVuSans-115"/>
      <use x="309.082031" xlink:href="#DejaVuSans-105"/>
      <use x="336.865234" xlink:href="#DejaVuSans-116"/>
      <use x="376.074219" xlink:href="#DejaVuSans-121"/>
      <use x="435.253906" xlink:href="#DejaVuSans-32"/>
      <use x="467.041016" xlink:href="#DejaVuSans-91"/>
      <use x="506.054688" xlink:href="#DejaVuSans-48"/>
      <use x="569.677734" xlink:href="#DejaVuSans-45"/>
      <use x="605.761719" xlink:href="#DejaVuSans-50"/>
      <use x="669.384766" xlink:href="#DejaVuSans-53"/>
      <use x="733.007812" xlink:href="#DejaVuSans-53"/>
      <use x="796.630859" xlink:href="#DejaVuSans-93"/>
     </g>
    </g>
   </g>
   <g id="line2d_51">
    <path clip-path="url(#pa1ab16e35c)" d="M 77.878409 36.849117 
L 77.932585 65.911102 
L 77.986761 65.911102 
L 77.997596 65.911102 
L 77.997596 61.067438 
L 78.105949 65.911102 
L 80.370512 65.911102 
L 80.370512 61.067438 
L 80.478864 61.067438 
L 83.176836 61.067438 
L 83.176836 65.911102 
L 83.285189 65.911102 
L 85.766456 65.911102 
L 85.766456 61.067438 
L 85.874809 61.067438 
L 110.936696 61.067438 
L 110.936696 56.223774 
L 111.045048 56.223774 
L 188.386921 56.223774 
L 188.430262 32.005453 
L 188.495273 32.005453 
L 188.766154 32.005453 
L 188.874506 75.59843 
L 426.436927 75.59843 
L 426.436927 80.442094 
L 426.54528 75.59843 
L 426.556115 75.59843 
L 426.556115 80.442094 
L 426.664467 80.442094 
L 426.675302 80.442094 
L 426.675302 75.59843 
L 426.783655 80.442094 
L 426.805325 80.442094 
L 426.805325 75.59843 
L 426.913677 75.59843 
L 426.924513 75.59843 
L 426.924513 80.442094 
L 427.032865 75.59843 
L 427.0437 75.59843 
L 427.0437 80.442094 
L 427.152053 75.59843 
L 427.379592 75.59843 
L 427.379592 80.442094 
L 427.487945 75.59843 
L 427.531286 75.59843 
L 427.531286 80.442094 
L 427.639638 80.442094 
L 427.650473 80.442094 
L 427.650473 75.59843 
L 427.758825 75.59843 
L 427.769661 75.59843 
L 427.769661 80.442094 
L 427.878013 80.442094 
L 427.888848 80.442094 
L 427.888848 75.59843 
L 427.9972 75.59843 
L 428.008036 75.59843 
L 428.008036 80.442094 
L 428.116388 80.442094 
L 428.127223 80.442094 
L 428.127223 75.59843 
L 428.235575 75.59843 
L 428.246411 75.59843 
L 428.246411 80.442094 
L 428.354763 75.59843 
L 428.365598 75.59843 
L 428.365598 80.442094 
L 428.473951 80.442094 
L 428.484786 80.442094 
L 428.484786 75.59843 
L 428.593138 75.59843 
L 428.603973 75.59843 
L 428.603973 80.442094 
L 428.712326 80.442094 
L 436.968771 80.442094 
L 436.968771 85.285758 
L 437.077123 80.442094 
L 437.748908 80.442094 
L 437.748908 85.285758 
L 437.85726 85.285758 
L 437.868095 85.285758 
L 437.868095 80.442094 
L 437.976447 80.442094 
L 437.987283 80.442094 
L 437.987283 85.285758 
L 438.095635 85.285758 
L 438.236493 85.285758 
L 438.236493 80.442094 
L 438.344845 85.285758 
L 439.655908 85.285758 
L 439.655908 80.442094 
L 439.753425 80.442094 
L 439.775096 80.442094 
L 439.775096 85.285758 
L 439.883448 80.442094 
L 439.905118 80.442094 
L 439.905118 85.285758 
L 440.013471 85.285758 
L 440.024306 85.285758 
L 440.024306 80.442094 
L 440.132658 80.442094 
L 440.143493 80.442094 
L 440.143493 85.285758 
L 440.251846 85.285758 
L 440.262681 85.285758 
L 440.262681 80.442094 
L 440.371033 80.442094 
L 440.436045 80.442094 
L 440.436045 85.285758 
L 440.544397 80.442094 
L 440.555232 80.442094 
L 440.555232 85.285758 
L 440.663584 85.285758 
L 442.516409 85.285758 
L 442.516409 90.129422 
L 442.624761 85.285758 
L 442.635596 85.285758 
L 442.635596 90.129422 
L 442.743949 90.129422 
L 445.972847 90.129422 
L 445.972847 85.285758 
L 446.0812 90.129422 
L 448.389104 90.129422 
L 448.389104 94.973086 
L 448.497456 90.129422 
L 464.977841 90.129422 
L 464.977841 90.129422 
" style="fill:none;stroke:#d62728;stroke-linecap:square;stroke-width:1.5;"/>
   </g>
   <g id="patch_7">
    <path d="M 58.523438 288.71965 
L 58.523438 22.318125 
" style="fill:none;stroke:#000000;stroke-linecap:square;stroke-linejoin:miter;stroke-width:0.8;"/>
   </g>
   <g id="patch_8">
    <path d="M 484.332812 288.71965 
L 484.332812 22.318125 
" style="fill:none;stroke:#000000;stroke-linecap:square;stroke-linejoin:miter;stroke-width:0.8;"/>
   </g>
   <g id="patch_9">
    <path d="M 58.523437 288.71965 
L 484.332812 288.71965 
" style="fill:none;stroke:#000000;stroke-linecap:square;stroke-linejoin:miter;stroke-width:0.8;"/>
   </g>
   <g id="patch_10">
    <path d="M 58.523437 22.318125 
L 484.332812 22.318125 
" style="fill:none;stroke:#000000;stroke-linecap:square;stroke-linejoin:miter;stroke-width:0.8;"/>
   </g>
   <g id="legend_1">
    <g id="patch_11">
     <path d="M 528.91375 54.674375 
L 604.43875 54.674375 
Q 606.43875 54.674375 606.43875 52.674375 
L 606.43875 24.318125 
Q 606.43875 22.318125 604.43875 22.318125 
L 528.91375 22.318125 
Q 526.91375 22.318125 526.91375 24.318125 
L 526.91375 52.674375 
Q 526.91375 54.674375 528.91375 54.674375 
z
" style="fill:#ffffff;opacity:0.8;stroke:#cccccc;stroke-linejoin:miter;"/>
    </g>
    <g id="line2d_52">
     <path d="M 530.91375 30.416562 
L 550.91375 30.416562 
" style="fill:none;stroke:#1f77b4;stroke-linecap:square;stroke-width:1.5;"/>
    </g>
    <g id="line2d_53"/>
    <g id="text_35">
     <!-- Error -->
     <g transform="translate(558.91375 33.916562)scale(0.1 -0.1)">
      <use xlink:href="#DejaVuSans-69"/>
      <use x="63.183594" xlink:href="#DejaVuSans-114"/>
      <use x="102.546875" xlink:href="#DejaVuSans-114"/>
      <use x="141.410156" xlink:href="#DejaVuSans-111"/>
      <use x="202.591797" xlink:href="#DejaVuSans-114"/>
     </g>
    </g>
    <g id="line2d_54">
     <path d="M 530.91375 45.094687 
L 550.91375 45.094687 
" style="fill:none;stroke:#d62728;stroke-linecap:square;stroke-width:1.5;"/>
    </g>
    <g id="line2d_55"/>
    <g id="text_36">
     <!-- Intensity -->
     <g transform="translate(558.91375 48.594687)scale(0.1 -0.1)">
      <use xlink:href="#DejaVuSans-73"/>
      <use x="29.492188" xlink:href="#DejaVuSans-110"/>
      <use x="92.871094" xlink:href="#DejaVuSans-116"/>
      <use x="132.080078" xlink:href="#DejaVuSans-101"/>
      <use x="193.603516" xlink:href="#DejaVuSans-110"/>
      <use x="256.982422" xlink:href="#DejaVuSans-115"/>
      <use x="309.082031" xlink:href="#DejaVuSans-105"/>
      <use x="336.865234" xlink:href="#DejaVuSans-116"/>
      <use x="376.074219" xlink:href="#DejaVuSans-121"/>
     </g>
    </g>
   </g>
  </g>
 </g>
 <defs>
  <clipPath id="pa1ab16e35c">
   <rect height="266.401525" width="425.809375" x="58.523438" y="22.318125"/>
  </clipPath>
 </defs>
</svg>
